<?xml version="1.0" encoding="utf-8"?>
<!-- Generator: Adobe Illustrator 28.2.0, SVG Export Plug-In . SVG Version: 6.00 Build 0)  -->
<svg version="1.1" id="Teacher_1" xmlns="http://www.w3.org/2000/svg" xmlns:xlink="http://www.w3.org/1999/xlink" x="0px" y="0px"
	 viewBox="0 0 313.55 377.67" style="enable-background:new 0 0 313.55 377.67;" xml:space="preserve">
<style type="text/css">
	.st0{fill:#2F3664;}
	.st1{fill:#FFFFFF;}
	.st2{fill:#DD2D2B;}
	.st3{fill:#1B243E;}
	.st4{fill:none;stroke:#1B243E;stroke-width:2;stroke-linecap:round;stroke-miterlimit:10;}
	.st5{fill:#EDCBAF;}
	.st6{fill:#E3E0E0;}
	.st7{fill:#EBE8E9;}
	.st8{fill:#21243F;}
	.st9{fill:#25253F;}
	.st10{fill:none;stroke:#1B243E;stroke-linecap:round;stroke-miterlimit:10;}
	.st11{fill:#AD5727;}
</style>
<g id="cuerpo">
	<g>
		<g>
			<g>
				<path class="st0" d="M86.05,209.56c0,0-3.03,16.47-1.28,18.19S97.23,239,106.05,248.6s23.2,26.24,24.72,31.94
					c1.52,5.69,26.6,3.12,26.37-0.37c-0.23-3.49,7.91-13.47,7.91-13.47l-6.35-43.09l-8.37-38.21l-23,0.81L86.05,209.56z"/>
			</g>
		</g>
		<g>
			<g>
				<g>
					<g>
						<path class="st1" d="M205.48,97.53c0,0-24.93,34.57-22.79,90.38c0,0,44.83,44.94,123.01,12.11c0,0-31.6-86.01-65.86-110.46
							C239.84,89.56,218.13,83.04,205.48,97.53z"/>
					</g>
				</g>
			</g>
			<g>
				<g>
					<g>
						<path class="st2" d="M248.55,176.24c-7.94-10.49-11.57-41.29-11.72-42.6c-2.82-30.83,5.61-39.97,5.97-40.34l0.58,0.55
							c-0.09,0.09-8.53,9.33-5.75,39.71c0.04,0.31,3.75,31.88,11.56,42.2L248.55,176.24z"/>
					</g>
				</g>
				<g>
					<g>
						<path class="st2" d="M243.77,178.05c-7.65-11.37-11.73-49.48-11.9-51.1c-1.96-29.28,7.62-36.38,7.71-36.43l0.22-0.12
							l0.21,0.15l-0.24,0.32l0.21,0.34c-0.09,0.06-9.22,7.17-7.32,35.67c0.04,0.38,4.23,39.52,11.77,50.72L243.77,178.05z"/>
					</g>
				</g>
				<g>
					<g>
						<path class="st2" d="M237.99,179.39c-12.17-38.23-10.88-70.33-10.86-70.65l0.8,0.04c-0.01,0.32-1.3,32.28,10.83,70.37
							L237.99,179.39z"/>
					</g>
				</g>
				<g>
					<g>
						<path class="st2" d="M232.81,181.13c-10.98-44.11-10.31-73.73-10.31-74.03l0.8,0.02c-0.01,0.29-0.66,29.82,10.28,73.81
							L232.81,181.13z"/>
					</g>
				</g>
				<g>
					<g>
						<path class="st2" d="M220.43,186.99c-7.93-53.84-6.94-80.99-6.93-81.26l0.8,0.03c-0.01,0.27-1,27.36,6.92,81.11L220.43,186.99
							z"/>
					</g>
				</g>
				<g>
					<g>
						<path class="st2" d="M214.47,188.12c-7.33-50.02-3.99-79.12-3.95-79.41l0.79,0.1c-0.04,0.29-3.36,29.29,3.95,79.2
							L214.47,188.12z"/>
					</g>
				</g>
				<g>
					<g>
						<path class="st2" d="M188.46,190.26c-0.65-31.08,3.62-52.35,7.32-64.72c4.01-13.44,8.25-19.61,8.29-19.67l0.66,0.46
							c-0.17,0.24-16.7,24.71-15.47,83.92L188.46,190.26z"/>
					</g>
				</g>
				<g>
					<g>
						<path class="st2" d="M196.89,190.3c-6.3-51.64,8.79-80.19,8.95-80.48l0.7,0.38c-0.15,0.28-15.13,28.63-8.85,80L196.89,190.3z"
							/>
					</g>
				</g>
				<g>
					<g>
						<path class="st2" d="M208.77,188.17c-6.24-38.5-1.94-74.42-1.9-74.78l0.79,0.1c-0.04,0.36-4.33,36.17,1.89,74.56
							L208.77,188.17z"/>
					</g>
				</g>
				<g>
					<g>
						<path class="st2" d="M245.91,197.3c-3.94,0-8.2-0.42-12.8-1.25l0.18-0.98c19.52,3.54,32.81-0.52,40.65-12.4
							c5.76-8.73,4.31-21.84,0.53-30.32c-10.17-22.81-30.68-44.14-30.88-44.35l0.72-0.7c0.21,0.21,20.83,21.66,31.08,44.64
							c3.89,8.73,5.36,22.24-0.61,31.28C268.55,192.64,259.05,197.3,245.91,197.3z"/>
					</g>
				</g>
				<g>
					<g>
						<path class="st2" d="M242.07,191.66c-3.11,0-5.91-0.35-8.08-0.93l0.26-0.97c6.95,1.87,20.7,1.27,29.47-5.89
							c5.55-4.53,8.12-10.86,7.63-18.81c-0.75-12.21-9.34-25.46-28.31-50.53l0.8-0.6c19.1,25.24,27.75,38.6,28.51,51.07
							c0.51,8.29-2.18,14.9-7.99,19.65C258.04,189.8,249.24,191.66,242.07,191.66z"/>
					</g>
				</g>
				<g>
					<g>
						<path class="st2" d="M235.72,185.41c-0.82,0-1.66-0.02-2.54-0.05l0.04-1c14.29,0.53,21.19-3.71,21.26-3.76
							c4.94-2.03,10.42-6.22,11.18-11.98c1.48-11.15-13.24-31.09-20.32-40.67c-1.4-1.89-2.5-3.38-3.19-4.41l0.83-0.56
							c0.68,1.01,1.78,2.5,3.17,4.38c7.15,9.69,22.04,29.84,20.51,41.39c-0.82,6.19-6.59,10.64-11.72,12.74
							C254.74,181.63,248.58,185.41,235.72,185.41z"/>
					</g>
				</g>
				<g>
					<g>
						<path class="st2" d="M299.88,201.42c-1.86-10.65-12.31-35.94-12.42-36.2l0.92-0.38c0.11,0.25,10.61,25.65,12.48,36.41
							L299.88,201.42z"/>
					</g>
				</g>
				<g>
					<g>
						<path class="st2" d="M295.47,202.37c-1.92-9.92-7.96-25.37-8.02-25.52l0.93-0.37c0.06,0.16,6.13,15.69,8.07,25.7
							L295.47,202.37z"/>
					</g>
				</g>
				<g>
					<g>
						<path class="st2" d="M246.76,202.77c-4.56,0-10.06-0.44-15.63-1.94l0.26-0.97c7.75,2.08,15.39,2.08,20.44,1.72
							c7.42-0.54,14.15-3.06,19.48-7.3c9.61-7.64,11.84-18.22,12.02-25.75c0.17-6.97-1.42-13.61-5-20.91
							c-10.64-21.73-32.92-46.93-33.14-47.18l0.75-0.66c0.22,0.25,22.59,25.55,33.29,47.41c3.65,7.45,5.27,14.24,5.1,21.37
							c-0.18,7.75-2.49,18.63-12.4,26.51c-5.49,4.36-12.41,6.96-20.03,7.51C250.4,202.69,248.66,202.77,246.76,202.77z"/>
					</g>
				</g>
				<g>
					<g>
						<path class="st2" d="M259.35,169.06l-0.68-0.74c3.26-2.99-14.06-30.94-16.07-33.69l0.39-0.29l-0.42,0.24l0.15-0.68l0.68,0.11
							C243.63,134.31,263.71,165.07,259.35,169.06z"/>
					</g>
				</g>
				<g>
					<g>
						<path class="st2" d="M290.59,202.53c-1.24-7.65-5.73-18.39-5.78-18.5l0.92-0.39c0.05,0.11,4.58,10.96,5.84,18.73
							L290.59,202.53z"/>
					</g>
				</g>
				<g>
					<g>
						<path class="st2" d="M285.44,204.49c-0.57-7.5-3.89-14.74-3.93-14.81l0.91-0.42c0.04,0.07,3.43,7.47,4.02,15.16L285.44,204.49
							z"/>
					</g>
				</g>
				<g>
					<g>
						<path class="st2" d="M280.75,205.28c-0.22-5.94-2.87-10.32-2.89-10.36l0.85-0.52c0.12,0.19,2.81,4.64,3.04,10.85
							L280.75,205.28z"/>
					</g>
				</g>
				<g>
					<g>
						<path class="st2" d="M276.2,204.89c-0.2-3.67-2.13-5.76-2.15-5.78l0.73-0.69c0.09,0.09,2.2,2.36,2.42,6.41L276.2,204.89z"/>
					</g>
				</g>
				<g>
					<g>
						<path class="st2" d="M224.5,203.13l-0.74-0.31c5.08-12.17,2.25-20.46,2.22-20.54l0.75-0.27
							C226.87,182.35,229.71,190.65,224.5,203.13z"/>
					</g>
				</g>
				<g>
					<g>
						<path class="st2" d="M227.58,203.13l-0.74-0.31c5.08-12.17,2.25-20.46,2.22-20.54l0.75-0.27
							C229.95,182.35,232.79,190.65,227.58,203.13z"/>
					</g>
				</g>
				<g>
					<g>
						<path class="st3" d="M240.4,88.73c7.08,4.52,12.66,10.56,18.08,16.79c8.86,10.41,16.44,21.86,23.16,33.73l3.96,7.16
							c1.22,2.45,4.3,8.62,5.48,10.98c1.08,2.37,3.92,8.74,5.02,11.19c1.91,4.26,4.26,10.81,6.05,15.19l5.33,15.44l0.6,1.73
							c-3.95,1.45-8.06,2.32-12.07,3.06c-8.58,1.53-17.27,2.2-25.96,2.28l-5.2-0.03c-1.29-0.04-1.32-1.92-0.03-2
							c3.06-0.1,7.29-0.26,10.3-0.53c10.07-0.85,20.4-2.42,29.94-5.7l-1.15,2.35c-4.04-11.99-9.34-26.28-14.56-37.7
							c-7.64-17.07-17.02-33.86-28.31-48.77c-3.32-4.21-6.68-8.41-10.37-12.31c-3.59-3.96-7.43-7.77-11.39-11.22
							c-0.46-0.34-0.55-1.03-0.16-1.47C239.44,88.54,239.99,88.47,240.4,88.73L240.4,88.73z"/>
					</g>
				</g>
				<g>
					<g>
						<path class="st3" d="M205.57,99.12c-16,20.41-21.51,63.1-20.52,88.7c0.08,1.32-0.94,2.45-2.26,2.51
							c-1.33,0.07-2.46-0.99-2.49-2.33c0.02-26.36,5.07-56.81,17.13-80.37c1.93-3.54,3.94-6.99,6.75-9.95
							c0.39-0.39,1.02-0.39,1.41,0C206,98.09,205.98,98.74,205.57,99.12L205.57,99.12z"/>
					</g>
				</g>
				<g>
					<g>
						<path class="st3" d="M248.44,98.05c-6.73,14.44-5.38,31.4-1.7,46.51c2.36,9.32,5.1,18.62,8.13,27.73
							c0.4,1.2-0.24,2.5-1.44,2.9c-1.22,0.42-2.56-0.27-2.92-1.51c-6.05-21.75-13.46-44.81-7.43-67.38
							c0.92-3.24,1.95-6.31,3.64-9.29c0.27-0.48,0.89-0.64,1.36-0.37C248.58,96.93,248.73,97.57,248.44,98.05L248.44,98.05z"/>
					</g>
				</g>
				<g>
					<g>
						<path class="st3" d="M218.19,102.86c2.08,26.03,4.82,52.32,10.81,77.73c0.56,2.56-3.2,3.52-3.9,0.95
							c-2.81-12.99-4.52-26.09-5.92-39.2c-1.35-13.1-2.35-26.21-2.98-39.37C216.14,101.7,218.08,101.53,218.19,102.86L218.19,102.86
							z"/>
					</g>
				</g>
				<g>
					<g>
						<path class="st3" d="M260.51,167.81c-2.46,10.37-27.29,15.02-36.62,16.25l1.28-1.64c0.18,3.45-0.02,6.75-0.53,10.14
							c-0.52,3.34-1.41,6.65-2.92,9.74l-0.53-1.35c4.6,1.29,9.34,2.37,14.07,3.09c9.16,1.35,19.06,2.09,27.89-0.9
							c21.55-7.78,28.46-32.12,20.93-52.46c-0.85-2.23-1.8-4.44-2.91-6.58c-0.58-1.11,1.08-2.07,1.75-0.97
							c5.29,8.55,8.03,18.7,7.32,28.77c-0.61,15.58-10.79,30.16-25.63,35.35c-13.9,4.78-31.11,1.62-44.17-4.45l-0.94-0.46l0.41-0.89
							c2.42-5.82,2.81-12.5,2.24-18.73l-0.15-1.37l1.43-0.27c9.85-2.2,29.8-5.77,36.12-13.62
							C259.83,166.97,260.63,167.26,260.51,167.81L260.51,167.81z"/>
					</g>
				</g>
				<g>
					<g>
						<path class="st4" d="M268.06,205.91"/>
					</g>
				</g>
				<g>
					<g>
						<path class="st3" d="M229.68,205.45c-0.15,0-0.31-0.04-0.46-0.11c-0.49-0.25-0.68-0.85-0.43-1.35
							c6.6-12.87,2.12-22.43,2.08-22.53c-0.24-0.5-0.03-1.09,0.46-1.34c0.5-0.24,1.09-0.04,1.34,0.46
							c0.21,0.42,4.99,10.51-2.1,24.32C230.39,205.26,230.04,205.45,229.68,205.45z"/>
					</g>
				</g>
				<g>
					<g>
						<path class="st3" d="M202.37,129.96c0.06-0.33-0.32,0.77,0.84,0.15v-0.01v0.02l-0.01,0.05c-0.02,0.19-0.07,0.58-0.09,0.78
							c-0.9,9.3-1.24,18.75-0.96,28.08c0.33,9.57,1.34,19.21,3.86,28.43c0.25,0.89-0.27,1.82-1.16,2.07s-1.82-0.28-2.07-1.17
							c-1.32-4.79-2.17-9.68-2.68-14.58c-1.02-9.78-0.82-19.62,0.1-29.38c0.49-4.78,1.14-9.57,2.12-14.27l0.03-0.12L202.37,129.96
							c0-0.02,0.01-0.06,0.01-0.08c1.17-0.63,0.78,0.48,0.85,0.16C203.17,130.61,202.32,130.52,202.37,129.96L202.37,129.96z"/>
					</g>
				</g>
			</g>
		</g>
		<g>
			<g>
				<path class="st1" d="M100.49,138.99c0,0,31.37-5.47,56.49,9.18c0,0-6.34-21.46-40.39-16.87L100.49,138.99z"/>
			</g>
		</g>
		<g>
			<g>
				<g>
					<path class="st1" d="M95.58,141.38c0,0,31.79-8.69,61.99,7.09l28.74,42.33l-53.09-3.97L95.58,141.38z"/>
				</g>
			</g>
			<g>
				<g>
					<path class="st1" d="M160.71,148.17c0,0,9.59-12.9,28.54-15.11c0,0,17.22-1.58,24.75,3.96L160.71,148.17z"/>
				</g>
			</g>
			<g>
				<g>
					<polygon class="st1" points="158.71,149.03 215.1,136.78 237.41,177.82 185.59,190.92 					"/>
				</g>
			</g>
			<g>
				<g>
					<path class="st3" d="M111.28,163.72c-5.32-6.54-10.53-13.17-15.79-19.76c-0.1-0.12-0.49-0.58-0.65-1.05
						c-0.36-0.96-0.18-2.05,0.45-2.84c0.52-0.69,1.35-1.01,2.17-1.14c14.77-2.97,30.27-1.93,44.69,2.28
						c5.86,1.69,11.69,3.98,17.17,6.69c0.04,0.04,0.79-0.17,0.85-0.17c17.46-3.98,34.81-8.46,52.28-12.37l0.75-0.17
						c1.53-0.51,3.39,0.12,4.16,1.58c4.83,8.87,11.2,20.84,15.88,29.83c1.86,3.65,3.75,7.28,5.56,10.95
						c0.31,0.63,0.05,1.4-0.58,1.71c-0.6,0.3-1.32,0.07-1.66-0.49c-2.11-3.51-4.14-7.07-6.2-10.61
						c-5.08-8.79-11.56-20.63-16.46-29.46c0.1,0.18,0.37,0.28,0.51,0.23l-0.38,0.08l-0.75,0.16c-17.47,3.9-35.09,7.22-52.58,11.04
						c-0.68,0.16-1.49,0.35-2.17,0.09c-0.54-0.2-0.61-0.28-0.88-0.39c-5.18-2.56-10.67-4.72-16.22-6.31
						c-14.04-3.97-29.07-4.88-43.39-1.89l-0.53,0.12c-0.02-0.01-0.03,0.05-0.03,0.06c-0.12-0.14,0.37,0.48,0.65,0.84
						c5.04,6.46,10.13,12.89,15.1,19.4C114.24,163.46,112.31,164.96,111.28,163.72L111.28,163.72z"/>
				</g>
			</g>
			<g>
				<g>
					<path class="st3" d="M96.27,139.88c6.69-3.25,13.4-6.53,20.14-9.65c10.44-1.56,21.5-0.59,30.92,4.46
						c5.64,2.84,10.88,8.48,13.54,13.5c3.59,5.68,8.83,13.68,12.33,19.31l6.09,9.71c1.99,3.26,4.02,6.49,5.99,9.77
						c0.49,0.82,0.23,1.89-0.6,2.38c-0.79,0.48-1.82,0.24-2.33-0.52c-2.14-3.17-4.22-6.37-6.33-9.55l-6.23-9.62
						c-3.57-5.54-8.7-13.68-12.29-19.34c-1.85-3.45-4.19-6.65-7.19-9.18c-9.03-7.83-21.91-9.97-33.52-8.78
						c-5.36,2.34-13.72,5.78-20.1,8.41c-0.26,0.1-0.55-0.02-0.65-0.28C95.92,140.27,96.03,139.99,96.27,139.88L96.27,139.88z"/>
				</g>
			</g>
			<g>
				<g>
					<path class="st3" d="M158.9,147.93c14.66-15.38,36.99-20.41,56.85-12.86c0.95,0.34,1.44,1.39,1.1,2.34
						c-0.35,0.97-1.45,1.46-2.4,1.07c-18.59-7.83-39.96-3.55-54.34,10.53C159.41,149.8,158.17,148.73,158.9,147.93L158.9,147.93z"/>
				</g>
			</g>
		</g>
		<g>
			<g>
				<g>
					<path class="st0" d="M129.5,155.27c15.07-6.64,30.58,8.67,24.75,23.92c-3.86,9.93-14.55,14.36-23.97,8.95
						C116.46,180.38,113.24,162.35,129.5,155.27L129.5,155.27z M131.43,159.73c-7.6,2.85-11.26,9.4-6.96,16.79
						c5.8,10.07,19.58,13.22,24.34,0.66C152.52,166.82,141.95,155.55,131.43,159.73L131.43,159.73z"/>
				</g>
			</g>
		</g>
		<g>
			<g>
				<g>
					
						<ellipse transform="matrix(0.3839 -0.9234 0.9234 0.3839 -79.8037 208.6762)" class="st5" cx="116.47" cy="164.14" rx="9.34" ry="4.07"/>
				</g>
			</g>
			<g>
				<g>
					<ellipse transform="matrix(0.5 -0.866 0.866 0.5 -83.1325 191.8745)" class="st5" cx="124.6" cy="167.93" rx="9.34" ry="4.4"/>
				</g>
			</g>
			<g>
				<g>
					
						<ellipse transform="matrix(0.5 -0.866 0.866 0.5 -83.2437 200.9332)" class="st5" cx="132.39" cy="172.56" rx="9.34" ry="4.62"/>
				</g>
			</g>
			<g>
				<g>
					
						<ellipse transform="matrix(0.6853 -0.7282 0.7282 0.6853 -86.3225 157.2699)" class="st5" cx="138.82" cy="178.52" rx="7.09" ry="3.88"/>
				</g>
			</g>
			<g>
				<g>
					<path class="st3" d="M120.37,154.76c4.82,2.82,0.5,12.94-2.3,16.15c-3.83,4.76-8.24,3.04-7.35-3.12
						C111.22,163.73,115.08,153.39,120.37,154.76L120.37,154.76z M119.74,156.28c-2.81-0.48-5.57,4.25-6.55,6.49
						c-0.92,2.3-2.38,7.61-0.01,9.28C117.6,172.77,123.3,158.93,119.74,156.28L119.74,156.28z"/>
				</g>
			</g>
			<g>
				<g>
					<path class="st3" d="M129.77,159c4.65,3.51-1.24,12.96-4.34,16c-4.46,4.47-8.95,1.76-7.61-4.29
						C118.61,166.2,124.25,156.58,129.77,159L129.77,159z M128.79,160.69c-2.76-0.75-5.84,3.39-7.15,5.53
						c-1.21,2.2-3.26,6.94-1.22,8.96c2.73,1.01,6.28-3.16,7.52-5.33C129.2,167.65,131.01,162.63,128.79,160.69L128.79,160.69z"/>
				</g>
			</g>
			<g>
				<g>
					<path class="st3" d="M137.57,163.6c4.76,3.7-0.86,13.09-4.19,16.24c-4.57,4.42-9.3,1.58-8.05-4.54
						C126.1,170.57,131.88,161.14,137.57,163.6L137.57,163.6z M136.57,165.34c-4.61-1.58-11.82,11.13-8.3,14.37
						c2.76,1.04,6.3-2.92,7.59-5.15C137.16,172.29,139.01,167.26,136.57,165.34L136.57,165.34z"/>
				</g>
			</g>
			<g>
				<g>
					<path class="st3" d="M144.33,172.68c3.34,3.99-2.13,10.22-5.87,11.81c-4.17,1.96-7.26-0.95-5.56-5.23
						C134.24,175.41,140.14,169.59,144.33,172.68L144.33,172.68z M143.06,174.03c-3.37-2.22-11.07,5.79-8.55,9.09
						C137.92,185.45,145.52,177.25,143.06,174.03L143.06,174.03z"/>
				</g>
			</g>
		</g>
		<g>
			<g>
				<g>
					<path class="st5" d="M223.47,181.64c0,0,0.68,13.85-2.15,17.1c0,0-32.94-2.83-39.7-12.68c0,0-2.02-4.21,2.01-4.05h1.85
						c0,0-7.71-4.21-5.98-8.14c0,0,1.8-2.81,6.91,1.14c0,0,6.16,3.31,9.87,4.03c0,0-7.42-5.15-7.01-8.45c0,0,1.03-2.28,4.03-1.27
						l10.66,5.2c0,0-0.59-5.3,4.97-3.05l6.06,5.24L223.47,181.64z"/>
				</g>
			</g>
			<g>
				<g>
					<path class="st3" d="M223.4,181.84c-2.73-0.9-5.28-2.22-7.7-3.77c-2.16-0.98-9.16-8.63-10.9-5.19
						c-0.13,0.36-0.03,0.85,0.23,1.38c1.32,2.22,3.87,3.85,5.95,5.49c0.09,0.06,0.01,0.22-0.09,0.17c-2.76-1.07-5.45-2.29-7.25-4.86
						c-0.96-1.31-0.71-3.51,0.88-4.4c3.17-1.53,6.6,1.75,8.79,3.68c3.08,2.75,6.58,5.2,10.27,7.11
						C223.79,181.55,223.64,181.93,223.4,181.84L223.4,181.84z"/>
				</g>
			</g>
			<g>
				<g>
					<path class="st3" d="M203.58,175.17c-1.41-0.72-4.99-2.54-6.34-3.26c-0.27-0.13-1.16-0.62-1.42-0.74
						c-1.47-0.63-3.34-1.19-4.72-0.93c-2.44,0.42,1.81,4.75,2.68,5.51c3.4,3.21,7.77,5.13,11.81,7.46c0.14,0.07,0.2,0.24,0.12,0.38
						c-0.06,0.12-0.2,0.17-0.32,0.14c-1.56-0.44-3.04-1.03-4.52-1.63c-2.21-0.95-4.56-1.81-6.56-3.24c-2.45-1.72-8.34-6.8-5.17-9.93
						c0.45-0.44,1.16-0.68,1.6-0.73c2.08-0.3,3.95,0.34,5.77,1.16c0.39,0.17,1.22,0.7,1.6,0.9c1.33,0.74,4.84,2.8,6.19,3.59
						C205.12,174.34,204.43,175.61,203.58,175.17L203.58,175.17z"/>
				</g>
			</g>
			<g>
				<g>
					<path class="st3" d="M200.82,181.62c-4.33-1.11-8.56-2.54-12.64-4.47c-1.91-0.8-3.71-2.33-5.71-2.77
						c-0.93-0.23-1.92-0.15-2.08,0.14c-0.16,0.27,0.18,1.32,0.5,1.77c2.3,3.54,6.22,5.77,9.87,7.78c3.85,2.03,7.97,3.58,12.3,4.39
						c0.14,0.02,0.23,0.16,0.21,0.3c-0.02,0.13-0.14,0.22-0.27,0.21c-7.99-0.54-19.25-4.79-23.97-11.55
						c-1.5-2.23-1.23-5.18,1.96-5.39s5.5,1.96,8.13,3.26c3.86,2.04,7.94,3.77,11.98,5.47C201.62,180.94,201.37,181.77,200.82,181.62
						L200.82,181.62z"/>
				</g>
			</g>
			<g>
				<g>
					<path class="st3" d="M185.32,183.1c0.13,0.08,0.1,0.06,0.07,0.06c-0.78-0.08-1.69-0.04-2.42,0.15
						c-3.28,1.94,6.45,6.66,8.16,7.48c5.67,2.54,11.73,4.23,17.82,5.54c4.09,0.86,8.23,1.54,12.4,2.07
						c0.18,0.02,0.31,0.18,0.29,0.36c-0.02,0.17-0.17,0.29-0.34,0.29c-4.22-0.17-8.44-0.55-12.63-1.2
						c-9.42-1.62-19.38-3.76-27.08-9.79c-3.99-3.75-1.31-8.51,4.11-6.94c0.3,0.11,0.33,0.07,0.7,0.29
						C187.5,182.14,186.44,183.79,185.32,183.1L185.32,183.1z"/>
				</g>
			</g>
		</g>
		<g>
			<g>
				<path class="st0" d="M145.8,280.02c0,0,9.83-15.07,13.32-26.48c0,0,3.64,3.52,10.75-3.09c0,0,5.03,6.58,12.68,10.67
					c0,0,12.69,24.11,2.38,28.4C184.94,289.52,192.67,279.73,145.8,280.02z"/>
			</g>
		</g>
		<g>
			<g>
				<path class="st3" d="M145.8,280.02c0,0,35.62-2.59,41.6,7.86c0,0-2.8,8.35-16.1,5.86l-35.25,0.46L145.8,280.02z"/>
			</g>
		</g>
		<g>
			<g>
				<g>
					<path class="st5" d="M130.77,279.51c0,0,6.16,20.73,13.71,30.22c0,0,21.05,7.14,28.83-12.76c0,0-8.37-9.23-9.51-17.46H130.77z"
						/>
				</g>
			</g>
			<g>
				<g>
					<path class="st3" d="M132.22,279.14c2.39,7.79,5.32,15.63,9.38,22.71c1.36,2.3,2.85,4.52,4.57,6.35l-0.87-0.6
						c7.35,2.45,16.28,1.12,21.46-4.97c1.72-1.95,3.13-4.23,4.23-6.7l0.67,2.99c-0.14-0.13-0.29-0.29-0.41-0.44
						c-0.98-1.18-1.94-2.49-2.81-3.76c-2.79-4.24-5.53-8.83-5.6-14.11c0.04-1.86,2.8-1.98,2.99-0.13c0.12,1.35,0.6,2.72,1.21,4.06
						c1.91,3.97,4.88,7.48,8,10.59c-0.03-0.03-0.06-0.06-0.09-0.08l0.67,2.99c-1.31,2.83-3.01,5.55-5.19,7.93
						c-6.68,7.59-18.15,9.29-27.32,5.69c-5.78-6.87-8.74-15.27-11.49-23.61c-0.84-2.7-1.62-5.38-2.3-8.15
						c-0.2-0.8,0.3-1.62,1.1-1.81C131.21,277.88,132.01,278.36,132.22,279.14L132.22,279.14z"/>
				</g>
			</g>
		</g>
		<g>
			<g>
				<path class="st3" d="M181.84,259.68c5.59,6.3,10.74,16.07,9.48,24.72c-1.31,7.01-8.72,14.85-16.27,12.17
					c-2.15-0.98-3.64-2.28-5.56-3.42c-0.48-0.29-0.63-0.91-0.34-1.39c0.23-0.38,0.69-0.56,1.1-0.46c2.81,0.58,4.95,2.35,7.48,2.04
					c5.21-1.33,8.96-7.14,8.64-12.39c-0.57-7.06-3.45-13.59-6.19-20.15C179.69,259.79,181.08,258.84,181.84,259.68L181.84,259.68z"
					/>
			</g>
		</g>
		<g>
			<g>
				<path class="st3" d="M148.76,274.75c6.94,0.05,13.69,0.6,20.49,1.88c5.1,1.01,10.31,2.4,14.81,5.22
					c1.33,0.94,6.05,4.05,3.83,5.84c-0.65,0.49-1.57,0.36-2.07-0.27c-1.84-2.24-4.77-3.69-7.76-4.74
					c-9.27-3.03-19.47-3.38-29.16-3.1C145.64,279.69,145.46,274.84,148.76,274.75L148.76,274.75z"/>
			</g>
		</g>
		<g>
			<g>
				<g>
					<g>
						<path class="st0" d="M305.03,199.71c-15.19,4.85-37.63,4.65-37.63,4.65c-13.87,6.56-42.38,0.8-42.38,0.8
							c-38.58-20.78-63.88-20.71-63.88-20.71c-38.23-9.42-2.68,68.99-2.68,68.99c4.51,0.66,11.64-2.08,11.64-2.08l10.25,8.78
							c6.58,3.82,12.94,6.95,19.09,9.51l110.84-37.05C311.97,214.7,305.03,199.71,305.03,199.71z"/>
					</g>
				</g>
			</g>
			<g>
				<g>
					<path class="st0" d="M84.77,227.75c0,0-26.79-26.23-5.93-52.26c0,0,13.88-14.45,37.24-1.29l17.81,10.71
						C133.89,184.91,104.62,195.47,84.77,227.75z"/>
				</g>
			</g>
			<g>
				<g>
					<g>
						<path class="st3" d="M263.07,227.79c-19.47-18.29-44-31.45-69.36-39.57c-10.69-3.38-21.81-5.71-33-6.78
							c-3.15-0.33-11-0.91-17.18,0.83c-6.18,1.74-6.01,5.22-6.01,5.22c5.1-0.94,10.46-1.14,16.13-0.65
							c21.67,1.29,42.43,8.51,62.13,17.49c15.86,7.32,31.11,15.93,46.05,25.04c0.39,0.24,0.9,0.19,1.24-0.15
							C263.47,228.82,263.46,228.18,263.07,227.79z"/>
					</g>
				</g>
			</g>
			<g>
				<g>
					<path class="st3" d="M160.74,251.64c3.53,0.09,6.56-1.99,8.91-4.8c0.28-0.38,1.04-1.38,1.33-1.77l1.67-2.57
						c1.13-1.84,2.17-3.71,3.44-5.52c0.32-0.51,1.01-0.65,1.49-0.29c0.28,0.2,0.43,0.52,0.43,0.85c-0.01,1.17-0.11,2.34-0.26,3.49
						c-0.5,3.24-1.79,6.39-3.55,9.15c-3.15,4.86-9.08,8.64-15.02,6.94C155.6,256,157.1,250.71,160.74,251.64L160.74,251.64z"/>
				</g>
			</g>
			<g>
				<g>
					<g>
						<path class="st3" d="M193.91,264.15c-7.07-3.68-13.87-8.1-19.19-14.05c-1.31-1.7-3.79-2-5.46-0.63
							c-1.63,1.34-1.87,3.75-0.53,5.38c0.51,0.62,0.85,0.98,1.28,1.44c6.7,6.59,14.42,11.69,22.75,15.61l10.56-3.53
							C200.11,267.12,196.97,265.72,193.91,264.15z"/>
					</g>
				</g>
				<g>
					<g>
						<path class="st3" d="M307.52,199.37c-0.45-1.1-1.69-1.65-2.81-1.23c-1.14,0.43-1.71,1.7-1.28,2.84
							c3.84,10.22,5.88,21.48,4.75,32.34l5.29-1.77C314.05,220.53,311.61,209.44,307.52,199.37z"/>
					</g>
				</g>
			</g>
			<g>
				<g>
					<path class="st3" d="M83.43,228.42c-11.09-10.72-19.64-28.66-13.31-43.91c4.28-10.81,15.32-18.54,27-18.51
						c8.5,0.01,16.54,3.65,23.5,8.26c4.5,3.17,9,6.26,13.27,9.84c0.91,0.78-0.11,2.26-1.16,1.63c-4.19-2.34-8.51-4.61-12.76-6.91
						c-6-3.28-12.58-6.1-19.43-6.64c-10.23-1.01-20.38,5.48-24.26,14.89c-0.24,0.42-0.43,1.03-0.58,1.49
						c-0.29,0.89-0.75,2.16-0.87,3.08l-0.34,1.57l-0.15,1.61c-0.75,11.49,4.36,22.39,10.6,32.28
						C85.64,228.03,84.31,229.26,83.43,228.42L83.43,228.42z"/>
				</g>
			</g>
		</g>
		<g>
			<g>
				<path class="st3" d="M272.52,207.15c-3.5,0-6.26-0.2-8.08-0.38l-0.25-0.02c-1.04,0-1.83-0.84-1.83-1.88
					c0-1.04,0.89-1.88,1.93-1.88c0.06,0,0.24,0.01,0.54,0.04c5.7,0.58,20.95,1.27,39.33-4.85c0.99-0.33,2.05,0.21,2.38,1.19
					c0.33,0.99-0.2,2.05-1.19,2.38C292.12,206.14,280.43,207.15,272.52,207.15z"/>
			</g>
		</g>
		<g>
			<g>
				<g>
					<path class="st1" d="M227.47,79.11c0,0,10.37-1.25,12.44,10.75c0,0-6.73,13.91-14.39,22.34c0,0-1.02-5.31-8.46-10.11
						C217.05,102.1,232.14,92.67,227.47,79.11z"/>
				</g>
			</g>
			<g>
				<g>
					<path class="st1" d="M206.23,93.13c0,0,7.58,8.33,11.21,8.71c0,0-8.76,6.48-10.17,11.59
						C207.27,113.44,201.58,105.91,206.23,93.13z"/>
				</g>
			</g>
			<g>
				<g>
					<path class="st2" d="M221.16,104.72l-0.68-0.74c7.67-7.07,10.18-13.26,10.93-17.22c0.81-4.26-0.19-6.9-0.2-6.93l0.93-0.37
						C232.32,79.93,236.36,90.72,221.16,104.72z"/>
				</g>
			</g>
			<g>
				<g>
					<path class="st2" d="M224.02,107.43l-0.72-0.69c14.58-15.3,12.07-24.44,12.04-24.53l0.96-0.29
						C236.42,82.3,239.07,91.64,224.02,107.43z"/>
				</g>
			</g>
			<g>
				<g>
					<path class="st2" d="M214.34,105.18c-5.2-1.27-9.11-7.13-9.28-7.38l0.83-0.55c0.04,0.06,3.86,5.78,8.68,6.95L214.34,105.18z"/>
				</g>
			</g>
			<g>
				<g>
					<path class="st2" d="M211.77,107.39c-5.24-1.28-7.26-5.48-7.34-5.66l0.91-0.42c0.02,0.04,1.91,3.94,6.67,5.11L211.77,107.39z"
						/>
				</g>
			</g>
			<g>
				<g>
					<path class="st3" d="M227.71,77.84c6.81-0.69,12.28,4.83,13.87,11.05c0.03,0.15,0.09,0.1,0.15,0.74
						c0.01,0.46-0.07,0.76-0.11,0.91c-2.3,7.17-6.05,13.93-11.1,19.54c-1.04,1.05-2.14,2.12-3.38,2.94
						c-1.36,0.86-3.56,0.15-3.94-1.57c-0.78-3.05-2.9-6.07-5.73-7.7c-3.53,1.55-6.41,5.26-7.97,8.9c-0.75,1.85-3.53,2.05-4.52,0.32
						c-3.14-6.22-2.34-13.93,0.45-20.02c0.52-1.14,2.27-0.52,1.96,0.69c-1.38,5.81-1.9,11.87,0.54,17.34l0.07,0.14l0.03,0.06
						c-0.3-0.69-1.36-0.72-1.69-0.04c1.98-4.12,6.22-7.24,10.48-9.07c0.41-0.19,0.99-0.19,1.43,0.02c3.39,1.93,6.71,4.19,8.36,7.96
						l0.08,0.19c0.02,0.04,0.08,0.2,0.04,0.08c-0.2-0.62-1.1-0.96-1.55-0.6c0.05-0.05,0.52-0.48,0.58-0.54
						c5.36-4.88,9.31-11.28,11.72-18.1c0.19-0.53,0.34-1.06,0.51-1.59c0.02-0.07,0-0.01,0,0.21c-0.32-2.47-2.18-7.06-5.27-8.68
						c-1.46-0.89-3.28-1.45-4.95-1.47C226.68,79.54,226.64,77.94,227.71,77.84L227.71,77.84z"/>
				</g>
			</g>
		</g>
		<g>
			<g>
				<g>
					<path class="st5" d="M233.06,48.95c0,0,1.71,14.15-7.75,16.57c0,0-0.77,10.94,2.91,15.96c0,0,3.6,6.88-10.65,20.62
						c0,0-10.3-8.66-13.04-11.7c0,0-15.23,6.7-25.79-7.99C178.73,82.41,202.95,32.48,233.06,48.95z"/>
				</g>
			</g>
			<g>
				<g>
					<path class="st3" d="M225.25,66.02c0.16,0.04,0.4-0.1,0.45-0.21c0.02-0.04,0.01-0.02,0.02-0.03l-0.01,0.07
						c-0.07,2.57,0.33,5.17,0.84,7.68c0.56,2.61,1.33,5.2,2.63,7.41c0.32,0.71,0.37,1.31,0.45,1.92
						c0.37,8.18-5.71,14.85-11.29,20.09l-0.63,0.62l-0.77-0.48c-4.75-3.1-9.27-6.36-13-10.73c-0.42-0.5-0.35-1.25,0.15-1.67
						c0.51-0.43,1.28-0.35,1.69,0.18c1.66,2.02,3.68,3.83,5.78,5.53c2.1,1.68,4.34,3.29,6.6,4.73l-1.4,0.13
						c4.75-4.77,11.73-12.07,10.42-19.34c-1.75-3.25-2.68-8.18-2.75-12.26c0.01-1.39-0.04-2.82,0.31-4.18
						c0.02-0.05,0.02-0.07,0.07-0.15c0.02-0.03,0.03-0.06,0.11-0.14C225.71,64.54,226.28,65.99,225.25,66.02L225.25,66.02z"/>
				</g>
			</g>
		</g>
		<g>
			<g>
				<path class="st6" d="M143.51,308.15c0,0-8.15-5.67-11.74,3.72c0,0-0.88,5.17,1.76,7.36c0,0-2.35,0.05-3.14,6.78
					c0,0-4.53,0.17-3.96,5.95c0,0-8.16,1.13-6.04,8.29c0,0-15.22,4.24-17.96,19.86c0,0-0.72,4.6,5.43,5.1
					c0,0,29.08,5.99,51.27-13.32c0,0,4.82-6.12,10.38-11.99c0,0,8.22-10.33,14.76-12.24c0,0,9.56-5.12,9.05-11.6
					c0,0-5.08-15.05-12.38-20.76l-7.64,1.67c0,0-15.86,23-29.74,12.14"/>
			</g>
		</g>
		<g>
			<g>
				<path class="st1" d="M131.24,322.06c0,0,5.08-6.69,15.33,2.31c0,0,1.62,3.94-2.17,6.18c0,0-7.88-5.62-14-4.55L131.24,322.06z"/>
			</g>
		</g>
		<g>
			<g>
				<path class="st1" d="M126.44,331.97c0,0-1.83-8.99,9.61-5.3c0,0,12.9,3.42,3.77,10.49c0,0,1.6,8.24-7.14,4.39
					c0,0-7.81-3.19-12.28-1.29C120.39,340.25,114.72,333.7,126.44,331.97z"/>
			</g>
		</g>
		<g>
			<g>
				<path class="st1" d="M103.47,363.9c0,0,33.15,9.66,57.24-13.44l11.01-13.31c0,0,8.62-8.9,14.96-11.74c0,0,5.66-1.9,6.66-8.65
					c0,0,6.34,4.65,4.66,10.9c0,0-1.15,2.81-11.78,9.49c0,0-11.05,8.08-18.83,18.54c0,0-12.46,17.86-41.09,19.11
					c0,0-18.34,0.82-21.77-3.06C104.52,371.74,100.96,367.86,103.47,363.9z"/>
			</g>
		</g>
		<g>
			<g>
				<path class="st3" d="M132.68,320.47c-6.94-4.77-0.29-18.68,7.88-16.64c2.3,0.44,3.87,1.74,5.58,3.05
					c2.22,1.58,4.75,2.27,7.48,2.29c8.55,0.4,14.95-6.86,17.74-14.34c0.57-0.15,7.77-1.57,8.55-1.76l0.95-0.13
					c7.12,5.81,12.01,13.72,15.01,22.37c0.45,2.2-0.28,4.63-1.3,6.4c-2.55,4.51-7.08,6.55-11.13,9.27
					c-5.93,4.02-10.83,9.29-15.01,15.07c-13.92,19.46-40.06,25.19-62.67,21.82c-2.79-0.26-5.38-2.37-6-5.2
					c-0.4-1.89,0-3.81,0.35-5.66c2.04-9.99,11.36-16.76,21.04-18.23c1.87-0.25,2.39,2.44,0.61,2.94
					c-5.21,1.86-10.24,5.05-13.24,9.31c-2.1,3.02-3.27,6.64-3.21,10.3c0.18,0.55,0.68,0.76,1.26,0.79l0.53,0.07
					c2.5,0.32,5.02,0.52,7.53,0.62c14.14,0.55,28.9-2.57,40.26-11.32c3.38-2.59,6.31-5.46,8.81-8.91c2.74-3.77,5.83-7.21,9.21-10.44
					c2.3-2.16,4.78-4.1,7.38-5.83c3.75-2.73,10.07-4.79,10.37-10.07l0.11,0.6c-1.13-3.6-2.87-7.36-4.85-10.64
					c-2-3.34-4.43-6.43-7.3-9.03l1.73,0.55c0,0-7.69-0.1-7.7-0.11c0,0,1.26-0.94,1.25-0.93c-1.78,4.88-4.5,9.62-8.78,12.85
					c-6.58,5.02-16.66,5.38-23.07-0.15c-1.35-1.01-3-1.65-4.48-0.86c-2.02,1.1-3.68,4.73-3.68,7.27c0.02,1.17,0.22,1.9,0.73,2.6
					C135.46,319.64,133.96,321.2,132.68,320.47L132.68,320.47z"/>
			</g>
		</g>
		<g>
			<g>
				<path class="st3" d="M102.59,362.04c0.9,3.17,2.47,6.51,5.02,8.65l-1.44-0.95c2.69,0.8,5.63,1.34,8.45,1.69
					c13.15,1.63,26.89-0.67,38.49-7.18c6.39-3.72,12.01-8.85,17.07-14.27c4.48-5.66,11.14-12.16,18-16.16
					c3.84-1.9,8.91-4.84,9.13-9.59l0.11,0.49c-1.17-2.69-2.82-5.64-5.05-7.5c-0.64-0.53-0.73-1.47-0.2-2.11
					c2.46-2.82,7.33,6.67,8.04,8.5c0.96,6.25-6.24,11.19-10.33,13.22c-6.47,4.12-11.98,9.81-16.59,15.89
					c-4.91,5.64-10.45,10.85-16.7,15.05c-9.88,6.12-21.39,9.47-32.99,9.87c-6.77,0.22-13.57-0.31-20.13-2.18
					c-1.67-1.98-2.61-4.47-3.19-6.91c-0.48-2.11-0.69-4.09-0.65-6.26c0.02-0.83,0.7-1.49,1.53-1.48
					C101.87,360.82,102.44,361.35,102.59,362.04L102.59,362.04z"/>
			</g>
		</g>
		<g>
			<g>
				<path class="st3" d="M119.06,334.19c3.19-4.38,11.13-3.4,15.71-2.25c3.2,1.16,6.87,2.96,7.75,6.67
					c0.36,2.08-0.67,4.15-2.32,5.23c-1.63,1.2-4.2,1.08-5.78-0.13l0.3,0.18c-4.18-1.77-9.21-3.56-13.71-2.26l-1.18,0.31
					C117.71,339.83,117.58,336.66,119.06,334.19L119.06,334.19z M121.73,335.72c-0.65,1.06-0.91,2.51-0.21,3.54l-1.74-0.38
					c5.44-2.42,11.44-0.55,16.64,1.59l0.23,0.15c0.98,0.82,2.37-0.34,2.18-1.39c-0.75-2.13-3.35-3.24-5.4-4.04
					C129.74,334.37,124.79,333.33,121.73,335.72L121.73,335.72z"/>
			</g>
		</g>
		<g>
			<g>
				<path class="st3" d="M124.99,332.35c-1.68-9.07,8.27-9.06,14.28-6.49c1.93,0.76,3.89,1.9,5.44,3.63l0.13,0.27
					c1.56,3.82-0.61,7.74-4.5,8.8c-1.75,0.64-2.85-1.86-1.21-2.72c2.02-0.86,3.25-2.28,2.24-4.48l0.3,0.46
					c-0.92-1.08-2.27-1.97-3.78-2.63c-2.62-1.08-8.59-3.02-9.91,0.45c-0.2,0.61-0.18,1.48-0.05,2.08
					C128.24,333.62,125.46,334.2,124.99,332.35L124.99,332.35z"/>
			</g>
		</g>
		<g>
			<g>
				<path class="st3" d="M144,332.62c-0.3,0-0.61-0.09-0.87-0.28c-0.67-0.48-0.83-1.42-0.35-2.09l2.42-3.38
					c0.41-0.75,0.31-1.22,0.17-1.55c-0.75-1.74-4.44-3.22-6.59-3.74c-2.8-0.64-4.86-0.45-5.92,0.55c-1.34,1.27-0.98,3.61-0.97,3.63
					c0.14,0.82-0.41,1.59-1.22,1.73s-1.59-0.41-1.73-1.22c-0.03-0.16-0.65-3.94,1.87-6.32c1.86-1.76,4.77-2.19,8.67-1.3
					c0.73,0.18,7.07,1.79,8.66,5.47c0.41,0.96,0.69,2.48-0.35,4.29l-0.08,0.12l-2.46,3.45C144.93,332.4,144.46,332.62,144,332.62z"
					/>
			</g>
		</g>
		<g>
			<g>
				<path class="st3" d="M83.43,228.42c0,0,43.59,43.32,45.89,51.47s2.9-0.76,2.9-0.76s-11.31-17.8-23.23-30.53
					c-11.91-12.74-23.73-21.41-24.45-22.12C83.82,225.78,83.13,227.48,83.43,228.42z"/>
			</g>
		</g>
		<g>
			<g>
				<polygon class="st3" points="129.71,276.07 148.76,274.75 152.45,277.25 148.91,279.57 131.35,280.21 				"/>
			</g>
		</g>
	</g>
	<g>
		<g>
			<path class="st0" d="M184.05,154.04l21.42-4.18c0.82-0.16,1.13,1.08,0.31,1.31l-21.04,5.79
				C182.76,157.46,182.05,154.48,184.05,154.04L184.05,154.04z"/>
		</g>
	</g>
	<g>
		<g>
			<path class="st0" d="M185.58,157.85c7.27-0.6,14.45-2.22,21.28-4.77c0.66-0.27,1.42,0.05,1.69,0.71c0.34,0.79-0.24,1.73-1.1,1.78
				c-1.83,0.14-3.63,0.42-5.42,0.75c-5.37,1.03-10.68,2.36-15.75,4.45C184.05,161.59,183.21,158.1,185.58,157.85L185.58,157.85z"/>
		</g>
	</g>
	<g>
		<g>
			<path class="st0" d="M187.05,162.61c5.26-1.4,15.81-4.3,21.04-5.77c1.88-0.49,2.66,2.3,0.79,2.85
				c-0.11,0.04-10.71,2.06-10.83,2.09l-10.7,2.14C186.53,164.08,186.22,162.83,187.05,162.61L187.05,162.61z"/>
		</g>
	</g>
	<g>
		<g>
			<path class="st3" d="M108.44,135.04c15.4-3.48,32.13,0.42,44.95,9.46l2.57,1.82c0.23,0.16,0.28,0.47,0.12,0.7
				c-0.17,0.24-0.5,0.28-0.73,0.1l-2.55-1.77c-12.66-8.82-28.99-12.8-44.22-9.79c-0.15,0.04-0.31-0.05-0.34-0.2
				C108.21,135.22,108.3,135.08,108.44,135.04L108.44,135.04z"/>
		</g>
	</g>
	<g>
		<g>
			<path class="st3" d="M161.39,146.94c13.96-7.28,29.75-11.84,45.58-11.13l3.17,0.2c0.3,0.02,0.52,0.28,0.5,0.57
				c-0.02,0.31-0.3,0.54-0.62,0.5l-3.11-0.2c-11.45-0.61-22.92,1.86-33.63,5.82c-3.9,1.47-7.75,3.15-11.39,5.11
				C161.34,148.14,160.78,147.27,161.39,146.94L161.39,146.94z"/>
		</g>
	</g>
	<g>
		<g>
			<path class="st3" d="M203.31,268.36l104.87-35.05l5.29-1.77c0,0-0.84,4.12-1.69,4.95c-0.85,0.82-112.36,38.26-112.36,38.26
				l-6.67-2.86L203.31,268.36z"/>
		</g>
	</g>
</g>
<g id="cabeza">
	<g>
		<g>
			<g>
				<path class="st5" d="M165.45,63.9c-0.06-0.34,1.31-7.2-1.85-10.04c0,0,12.11-1.96,12-13.86c0,0,10.69,3.16,17.13-6
					c0,0,6,6.33,15.17,6.22c0,0,4.12,8.44,12.86,5.25c0,0,7.69-6.35,12.31,3.47c0,0,1.71,14.15-7.75,16.57
					c0,0-18.05,27.92-20.79,24.88c0,0-15.23,6.7-25.79-7.99C178.73,82.41,168.94,82.45,165.45,63.9z"/>
			</g>
		</g>
		<g>
			<g>
				<path class="st7" d="M176.22,58.45c0,0-5.95-3.71-9.36,2.64c0,0-2.74,5.48,2.12,13.78c0,0,5.72,10.66,11.39,6.6
					c0,0,2.58-1.48,2.32-6.77l-2.71-2.34l2.52-4.99C182.49,67.37,179.32,60.19,176.22,58.45z"/>
			</g>
		</g>
		<g>
			<g>
				<path class="st7" d="M188.62,56.6c0,0-0.25-7.44,6.52-7.54c0,0,6.11,0.1,8.97,9.97c0,0,4.77,11.73-1.17,15.71
					c0,0-8.03,2.76-12.43-9.8C190.51,64.93,188.04,59.44,188.62,56.6z"/>
			</g>
		</g>
		<g>
			<g>
				<path class="st3" d="M180.1,82.53c4.19,5.89,11.85,9.05,19.01,8.48c7.48-0.97,13.36-7.11,16.26-13.85
					c0.24-0.56,1.14-0.23,0.93,0.37c-4.25,12.79-16,19.66-28.93,14.15c-2.85-1.2-5.48-2.97-7.6-5.24c-0.82-1.07-3.34-3.05-1.58-4.38
					C178.84,81.64,179.71,81.87,180.1,82.53L180.1,82.53z"/>
			</g>
		</g>
		<g>
			<g>
				<path class="st3" d="M183.08,74.71c1.42,5.51-3.34,11.09-8.86,7.73c-6.06-3.73-13.06-18.3-6.17-24.26
					c3.09-2.41,7.52-1.72,10.23,1.15c1.67,1.64,2.66,3.84,3.38,6.02c0.09,0.26-0.04,0.55-0.3,0.64c-0.26,0.09-0.54-0.05-0.64-0.3
					c-1.48-3.62-4.57-7.97-8.95-7.32c-9.42,1.87-2.68,17.53,2.25,21.35c4.24,4.19,8.3,0.13,8.08-4.83
					C182.03,74.29,182.93,74.13,183.08,74.71L183.08,74.71z"/>
			</g>
		</g>
		<g>
			<g>
				<g>
					<path class="st8" d="M190.94,44.9c0.45,2.52,3.08,0.78,4.75,0.76c1.28-0.02,6.72,2.04,4.15-0.61
						C198.12,43.27,190.49,42.36,190.94,44.9z"/>
				</g>
			</g>
			<g>
				<g>
					<path class="st9" d="M165.75,56.59c-0.11,0.38-0.46,1.23-0.45,1.3c0.32,3.44,2.88-1.06,3.58-1.86c1-1.15,3.67-1.76,1.82-3.67
						C169.16,50.77,166.18,55.15,165.75,56.59z"/>
				</g>
			</g>
		</g>
		<g>
			<g>
				<path class="st10" d="M178.73,60.89"/>
			</g>
		</g>
		<g>
			<g>
				<path class="st3" d="M179.9,62.98c0.54-3.54,4.6-5.92,7.91-4.47c0.5,0.31,1.77,0.58,1.4,1.35c-0.12,0.19-0.33,0.26-0.54,0.23
					c-1.49-0.18-3.07-0.34-4.44,0.31c-1.37,0.58-2.44,1.76-3.39,2.93C180.56,63.8,179.8,63.52,179.9,62.98L179.9,62.98z"/>
			</g>
		</g>
		<g>
			<g>
				<path class="st3" d="M202.02,74.19c5.68-1.63,1.63-14.2-0.37-17.88c-1.55-3.07-4.78-7.22-8.44-6.01
					c-2.29,0.69-3.58,3.35-3.79,5.97C188.78,62.32,194.51,75.87,202.02,74.19L202.02,74.19z M202.24,75.57
					c-8.04,1.54-14.65-12.76-14.34-19.41c-0.03-5.07,4.29-9.87,9.54-7.51c4.21,2.07,6.57,6.44,7.94,10.7
					C206.7,63.99,208.74,74.1,202.24,75.57L202.24,75.57z"/>
			</g>
		</g>
		<g>
			<g>
				<path class="st3" d="M203.55,56.3c2.64-2.3,13.22-12.57,16.45-9.97c0.47,0.44-0.18,1.16-0.67,0.75
					c-1.04-0.49-2.69,0.76-3.65,1.38c-3.77,2.77-7.06,6.27-10.21,9.72C204.22,59.53,202.22,57.6,203.55,56.3L203.55,56.3z"/>
			</g>
		</g>
		<g>
			<g>
				<path class="st3" d="M184.25,62.36c0.72,1.89-0.23,3.66-1.01,5.23c-0.74,1.57-1.55,3.09-2.35,4.62c0,0.12,0.43,0.6,0.62,0.79
					c1.64,1.69,3.84,1.19,5.8-0.07c0.5-0.35,1.07,0.4,0.61,0.79c-2.53,2.54-6.33,2.66-8.51-0.42c-0.44-0.6-0.47-1.42-0.09-2.05
					c1.07-2.2,2.6-4.3,3.6-6.49c0.28-0.75,0.4-1.54,0.39-2.2C183.3,62.03,184.07,61.88,184.25,62.36L184.25,62.36z"/>
			</g>
		</g>
		<g>
			<g>
				<path class="st3" d="M191.62,81.89c2.47,0.08,3.87-1.8,3.95-4.13c0.07-1.29,2-1.07,1.77,0.2c-0.4,3-2.67,5.4-5.85,4.92
					C190.84,82.79,190.97,81.81,191.62,81.89L191.62,81.89z"/>
			</g>
		</g>
		<g>
			<g>
				<path class="st3" d="M174.07,67.08c-1.49,0-2.57-0.9-2.62-0.94c-0.21-0.18-0.24-0.49-0.06-0.7c0.18-0.21,0.49-0.24,0.7-0.06l0,0
					c0.01,0.01,0.98,0.81,2.22,0.69c0.84-0.08,1.63-0.57,2.35-1.45c0.17-0.21,0.49-0.25,0.7-0.07c0.21,0.17,0.25,0.49,0.07,0.7
					c-0.9,1.1-1.92,1.71-3.05,1.81C174.29,67.07,174.17,67.08,174.07,67.08z"/>
			</g>
		</g>
		<g>
			<g>
				<path class="st3" d="M195.93,61.13c-1.12,0-2.04-0.41-2.1-0.43c-0.25-0.11-0.36-0.41-0.25-0.66s0.41-0.36,0.66-0.25
					c0.02,0.01,1.59,0.69,2.86,0.11c0.69-0.32,1.18-0.97,1.47-1.93c0.08-0.26,0.36-0.42,0.62-0.34c0.26,0.08,0.42,0.36,0.34,0.62
					c-0.38,1.26-1.05,2.12-2.02,2.56C196.99,61.04,196.44,61.13,195.93,61.13z"/>
			</g>
		</g>
	</g>
	<g>
		<g>
			<g>
				<path class="st11" d="M145.02,45.85c0,0-5.46-12.7,3.09-21.72c0,0,9.99-15.57,23.62-6.95v-2.6c0,0,0.68-16.07,22.18-12.97
					c0,0,18.89-0.17,29.14,16.75c0,0,9.02-11.82,22.39,0.55c0,0,10.09,5.82,10.53,25.32c0,0,3.33,16.52,17.64,16.27
					c0,0-18.5,24.73-32.4,12.44c0,0-7.36,4.74-15.31-0.31V61.26c0,0-3.78-2.73-7.47-13.29c0,0-7.94,0.39-11.15-6.96
					c0,0-11.8,0.59-15.25-5.92c0,0-4.25,6.96-15.07,5.57c0,0-4.2,12.39-12.45,14.38c0,0,5.24,6.05-1.7,12.5c0,0-13.5,6.17-18.9-9.64
					l-0.47-5.62L145.02,45.85z"/>
			</g>
		</g>
		<g>
			<g>
				<path class="st3" d="M149.09,44.7c-8.54,4.1-4.52,17.1,1.97,21.26c1.72,1.11,3.72,1.79,5.75,1.98c7.8,0.22,9.01-7.13,7.53-13.32
					c-0.19-0.52,0.57-0.91,0.89-0.46c2.22,3.09,2.52,7.35,1.11,10.8c-1.6,4.13-6.4,6.26-10.64,5.58
					c-9.62-1.38-16.28-13.17-12.42-22.11c1.07-2.29,3.08-4.13,5.57-4.71C149.5,43.6,149.71,44.53,149.09,44.7L149.09,44.7z"/>
			</g>
		</g>
		<g>
			<g>
				<path class="st3" d="M144.14,46.29c-3.75-7.38-2.25-16.61,2.59-23.08c5.03-7.4,14.34-12.6,22.67-9.22
					c2.93,1.19,5.42,3.78,6.23,6.82c0.07,0.28-0.09,0.56-0.37,0.63c-0.18,0.05-0.37-0.01-0.5-0.13c-2.16-2-4.63-3.81-7.51-4.45
					c-6.96-2.08-13.79,2.84-17.83,8.28c-3.32,4.31-5.13,9.62-4.67,15.04c0.15,1.77,0.54,3.67,1.18,5.29
					C146.38,46.61,144.72,47.39,144.14,46.29L144.14,46.29z"/>
			</g>
		</g>
		<g>
			<g>
				<path class="st3" d="M171.62,17.05C168.5-2,192.71-1.88,205.18,2.5c9.8,3.34,20.78,12.12,22.05,23.01
					c0.45,3.88-1.4,7.98-4.56,10.17c-0.35,0.26-0.84,0.19-1.1-0.16c-0.23-0.31-0.19-0.74,0.07-1.02c5.08-5.04,2.57-12.48-1.45-17.25
					c-4.14-5.32-9.81-9.25-16.14-11.55c-10.61-3.97-32.35-5.61-30.86,11C173.37,17.73,171.86,18.05,171.62,17.05L171.62,17.05z"/>
			</g>
		</g>
		<g>
			<g>
				<path class="st3" d="M273.63,60.96c-7.4,1.87-14.7-3.12-17.87-9.67c-1.68-3.1-2.3-7.2-2.4-10.5
					c-0.59-6.14-2.03-12.55-6.08-17.37c-5.79-6.75-16.21-12.76-23.33-4.48c-0.36,0.52-1.1,0.64-1.59,0.23
					c-0.43-0.35-0.51-0.97-0.22-1.43c2.62-3.97,7.27-6.23,11.97-5.89c6.32,0.57,11.87,4.5,16.18,8.95
					c4.85,5.32,7.07,12.56,7.71,19.6c-0.16,9.34,5.64,18.67,15.57,19.55C274.12,59.99,274.18,60.86,273.63,60.96L273.63,60.96z"/>
			</g>
		</g>
		<g>
			<g>
				<path class="st3" d="M241.05,72.14c12.01,5.74,20.31,0.29,28.58-8.54c0.57-0.52,4.17-5.22,4.37-2.85
					c-1.12,3.29-3.65,5.69-5.86,8.26c-5.75,6.25-15.31,11.6-23.8,7.44c-1.64-0.82-3.1-1.94-4-3.6
					C240.1,72.41,240.61,71.91,241.05,72.14L241.05,72.14z"/>
			</g>
		</g>
		<g>
			<g>
				<path class="st3" d="M156.95,54.76c8.47-0.01,13.62-3.85,17.34-11.18c0.48-1.01,0.96-2.05,1.58-3.07
					c0.14-0.24,0.46-0.32,0.7-0.17c0.16,0.1,0.25,0.27,0.25,0.44c-0.02,1.18-0.14,2.37-0.32,3.57c-1.18,6.19-6.16,11.6-12.58,12.31
					c-2.48,0.32-4.95,0.03-7.21-0.92C156.18,55.51,156.39,54.71,156.95,54.76L156.95,54.76z"/>
			</g>
		</g>
		<g>
			<g>
				<path class="st3" d="M169.32,36.59c5.91,4.11,13.79,3.55,19.9,0.14c0.87-0.53,1.67-1.16,2.38-1.9c0.36-0.4,1.05,0.04,0.84,0.53
					c-1.12,2.78-3.72,4.55-6.41,5.66c-5.78,2.7-13.65,1.71-17.47-3.77C168.25,36.78,168.89,36.22,169.32,36.59L169.32,36.59z"/>
			</g>
		</g>
		<g>
			<g>
				<path class="st3" d="M191.48,30.69c0.78,6.36,7.84,8.14,13.16,9.27c0.89,0.16,1.78,0.34,2.68,0.57
					c0.54,0.12,0.47,0.95-0.07,0.99c-5.94,0.64-13.85-0.35-16.6-6.47c-0.54-1.47-0.7-3.06-0.15-4.56c0.1-0.26,0.39-0.39,0.64-0.29
					C191.36,30.27,191.47,30.47,191.48,30.69L191.48,30.69z"/>
			</g>
		</g>
		<g>
			<g>
				<path class="st3" d="M207.75,35.93c0.2,7.09,5.39,9.96,11.32,12.21c0.28,0.11,0.42,0.42,0.29,0.69
					c-0.09,0.18-0.27,0.29-0.46,0.29c-0.85-0.01-1.69-0.07-2.55-0.16c-4.4-0.62-8.97-3.36-10.03-7.95
					c-0.43-1.82-0.31-3.68,0.46-5.35c0.12-0.25,0.42-0.36,0.67-0.24C207.66,35.52,207.76,35.72,207.75,35.93L207.75,35.93z"/>
			</g>
		</g>
		<g>
			<g>
				<path class="st3" d="M218.63,49.06c1.45,4.61,4.6,8.6,8.19,11.77l0.01,0.44l0.26,8.67c0.04,0.38-0.04,1.39,0.15,1.71
					c0.32,0.72,0.85,0.85,1.64,1.04c0.98,0.25,1.99,0.42,2.99,0.52c5.74,0.62,10.07-1.93,12.78-7.07c0.13-0.26,0.45-0.36,0.7-0.22
					c0.19,0.11,0.29,0.33,0.24,0.54c-0.15,0.73-0.3,1.48-0.55,2.21c-1.99,5.84-7.69,8.33-13.52,7.37c-3.82-0.69-7.35-1.28-6.85-6.09
					l0.26-8.67l0.3,0.69c-2.65-2.67-4.88-5.76-6.41-9.2C218.52,52.03,216.49,47.34,218.63,49.06L218.63,49.06z"/>
			</g>
		</g>
	</g>
	<g>
		<g>
			<g>
				<g>
					<path class="st5" d="M217.56,51.83c0,0,1.4-7.8,6.96-8.17c0,0,6.66-0.79,8.12,6.03c0,0,2.62,14.3-7.33,15.82l-2.73-0.14
						L217.56,51.83z"/>
				</g>
			</g>
		</g>
		<g>
			<g>
				<g>
					<path class="st3" d="M217.07,51.76c0.38-3.98,2.68-8.2,6.96-8.98c1.26-0.24,2.52-0.19,3.77,0.06c2.83,0.93,5.01,3.48,5.79,6.28
						c2.03,7.16-2.1,18.78-11.11,16.73c-0.6-0.16-0.42-1.06,0.19-0.98c5.17,0.79,8.64-4.08,9.06-8.73c0.38-2.11,0.4-4.41-0.2-6.4
						c-0.65-2.19-2.25-4.05-4.37-4.85c-2.49-0.53-5.2,0.12-6.83,2.32c-1.07,1.31-1.83,3.01-2.29,4.71
						C217.91,52.52,217,52.35,217.07,51.76L217.07,51.76z"/>
				</g>
			</g>
			<g>
				<g>
					<path class="st3" d="M225.91,50.55c-0.96,0.34-1.78,0.99-2.15,1.81c-0.96,2.16-0.45,7.07,2.83,6.56
						c0.27-0.06,0.55,0.12,0.6,0.39c0.04,0.2-0.04,0.4-0.2,0.52c-0.56,0.41-1.36,0.63-2.16,0.49c-4.42-1.02-4.97-8.41-1.04-10.38
						c0.57-0.26,2.5-0.88,2.53,0.15C226.31,50.33,226.12,50.49,225.91,50.55L225.91,50.55z"/>
				</g>
			</g>
		</g>
	</g>
</g>
<g id="pie">
	<g>
		<g>
			<g>
				<g>
					<path class="st0" d="M138.46,184.49c-25.36,4.07-39.63,24.3-39.63,24.3c-24.02,27.36-40.82,63.39-40.82,63.39
						c18.3,22.35,65.97,34.9,65.97,34.9c19.14-14.77,34.47-53.64,34.47-53.64c4.51,0.66,9.47-24.31,9.47-24.31s0.21-19.8-6.2-30.92
						C155.1,186.74,141.81,183.95,138.46,184.49z"/>
				</g>
			</g>
		</g>
		<g>
			<g>
				<path class="st3" d="M58.67,272.28c0,0-8.43,9.3,26.84,24.99c0,0,18.69,18.79,39.13,9.91
					C124.65,307.18,105.62,271.99,58.67,272.28z"/>
			</g>
		</g>
		<g>
			<g>
				<path class="st3" d="M67.78,287.22c-0.15,0-0.3-0.03-0.45-0.11c-11.21-5.6-10.34-13.4-10.3-13.73c0.07-0.55,0.56-0.94,1.12-0.86
					c0.54,0.07,0.93,0.57,0.86,1.11c-0.03,0.27-0.66,6.76,9.21,11.69c0.49,0.25,0.69,0.85,0.45,1.34
					C68.51,287.01,68.15,287.22,67.78,287.22z"/>
			</g>
		</g>
		<g>
			<g>
				<path class="st3" d="M113.17,310.13c-4.05,0-8.56-0.47-12.45-2.03c-0.51-0.21-0.76-0.79-0.56-1.3s0.79-0.76,1.3-0.56
					c9.09,3.64,22.49,0.84,22.63,0.81c0.54-0.12,1.07,0.23,1.19,0.77c0.12,0.54-0.23,1.07-0.77,1.19
					C124.16,309.09,119.18,310.13,113.17,310.13z"/>
			</g>
		</g>
	</g>
	<g>
		<g>
			<g>
				<path class="st5" d="M73.59,275.48c0,0-3.9,11.97-11.33,18.72c0,0,18.06,27.09,40.4,11.17l7.06-12.92
					C109.71,292.45,100.35,279.05,73.59,275.48z"/>
			</g>
		</g>
		<g>
			<g>
				<path class="st3" d="M74.86,275.9c-1.63,7.17-4.85,14.16-10.13,19.41l-0.13,0.14c-0.04,0.04,0.01-0.01,0.01-0.01
					c0.25-0.25,0.28-0.71,0.07-1.02c1.58,1.76,4.02,4.17,6.16,5.85c8.76,7.31,19.99,10.81,30.03,3.81c0.61-0.37,1.14-0.78,1.61-1.39
					c3.13-4.15,5.26-9.3,7.48-14.08c0.64-1.52,2.98-0.7,2.52,0.9c-1.7,5.47-3.49,10.82-6.8,15.65c-0.61,0.86-1.48,1.75-2.41,2.34
					c-0.59,0.45-1.83,1.26-2.47,1.63c-10.93,6.73-24.01,3.03-33.29-4.72c-2.25-1.84-4.34-3.84-6.27-5.99l-0.48-0.55
					c-1.11-1.15-1.49-3.18-0.82-4.64c0.28-0.77,0.89-1.41,1.48-1.95c4.73-4.54,7.86-10.44,10.93-16.21
					C73,273.63,75.18,274.35,74.86,275.9L74.86,275.9z"/>
			</g>
		</g>
	</g>
	<g>
		<g>
			<g>
				<path class="st6" d="M60.05,295.31c21.93,25.77,40.56,11.49,40.56,11.49l2.86,19.22c-0.62,5.64-9.81,4.54-9.81,4.54
					c-13.52-1.34-24.46,3.77-24.46,3.77l-29.83,11.11C4.1,351.21,3.89,334.19,3.89,334.19c1.57-12.43,20.05-11.8,20.05-11.8
					c4.75-5.75,8.11-4.94,8.11-4.94c1.07-6.54,6.38-7.92,6.38-7.92c2.37-6.69,11.84-4.09,11.84-4.09s-1.31-6.33,3.82-8.72
					C54.09,296.72,56.21,294.29,60.05,295.31z"/>
			</g>
		</g>
		<g>
			<g>
				<path class="st1" d="M24.58,322.7c0,0,12.63,2.91,16.17,9.54c0,0,5.4-2.38,4.56-7.37c0,0,5.61-1.51,4.61-5.79
					c0,0,7.07-0.06,6.62-7.21c0,0-5.69-8.91-13.01-7.21c0,0-4.05,0.6-5.1,4.87c0,0-5.4,3.27-5.77,7.45
					C32.66,316.98,25.58,317.35,24.58,322.7z"/>
			</g>
		</g>
		<g>
			<g>
				<path class="st1" d="M4.71,336.01c0,0,1.83,18.43,41.18,7.11c0,0,23.93-12.1,45.33-12.56c0,0,9.69,2.04,12.26-4.55
					c0,0,2.57,13.37-5.72,13c0,0-19.04,0.01-36.41,6.93c0,0-21.56,12.88-36.76,9.03C24.58,354.97,0.12,355.89,4.71,336.01z"/>
			</g>
		</g>
		<g>
			<g>
				<path class="st3" d="M25.09,324.76c-4.94-0.49-11.06-0.24-14.99,2.9c-4.76,3.78-4.04,11.59,1.51,14.2
					c8.69,3.51,18.6,3.52,27.55,0.91c2.26-0.63,5.55-2.04,7.76-2.93c8.03-3.24,16.06-6.29,24.41-8.74c2.86-0.78,5.73-1.64,8.7-2
					c2.9-0.33,5.79-0.58,8.74-0.66c3.76-0.21,8.23,1.03,11.6-1.13c0.9-0.58,1.43-1.32,1.6-2.36l0.1,0.7
					c-0.8-1.65-1.36-3.28-1.87-4.98c-0.96-3.46-1.5-7.04-1.18-10.67c0.23-1.67,0.88-7.3,3.51-6.11c0.69,0.35,0.99,1.17,0.72,1.87
					c-0.97,2.91-0.87,6.14-0.46,9.22c0.48,3.35,1.31,6.76,2.19,10.02c-0.05,1-0.28,2.02-0.8,2.94c-3.27,5.25-9.93,4.35-15.22,4.67
					c-3.1,0.21-6.25,0.61-9.34,1.13c-2.28,0.56-4.61,1.26-6.87,2c-8.03,2.6-16,5.74-23.85,8.95c-8.14,3.69-17.19,5.77-26.17,4.83
					c-6.07-0.79-13.14-1.76-17.3-6.72c-3.36-3.99-3.84-10.07-1.16-14.51c4.31-7.33,13.93-7.82,21.36-6.48
					C27.56,322.22,27,325.06,25.09,324.76L25.09,324.76z"/>
			</g>
		</g>
		<g>
			<g>
				<path class="st3" d="M6.69,331.58c-2.67,6.52-1.25,14,5.14,17.59c6.31,3.39,15.34,3.96,21.52,3.36
					c9.09-1.61,17.93-4.78,25.74-8.48c7.79-3.12,16.03-5.09,24.36-5.98c3.37-0.38,6.75-0.51,10.13-0.57
					c0.95,0.1,2.19,0.03,3.17-0.15c3.07-0.46,5.64-2.49,6.3-5.59c0.01-0.04-0.01,0.5-0.01,0.49l-1.05-7.17
					c-0.12-0.82,0.45-1.58,1.27-1.7c0.82-0.12,1.58,0.45,1.7,1.27l1.05,7.17l0.04,0.27l-0.05,0.22v0.01
					c-0.84,6.13-6.88,9.33-12.66,9.03c-8.35,0.53-19.17,2.47-27.82,5.73c-2.94,1.06-6.05,2.39-8.73,3.85
					c-5.34,2.53-10.95,4.38-16.64,5.88c-1.97,0.5-3.91,1-5.99,1.37c-8.46,0.84-17.55,0.05-25.21-3.93
					c-8.74-4.87-11.04-16.49-4.78-24.28C5.31,328.58,7.43,329.98,6.69,331.58L6.69,331.58z"/>
			</g>
		</g>
		<g>
			<g>
				<path class="st3" d="M22.56,322.97c-0.2-0.42-0.11-1.12,0.2-1.51c0.04-0.06,0.17-0.25,0.21-0.31c2.14-2.93,5.43-5.89,9.29-5.55
					c3.73,0.28,7.21,1.61,10.28,3.73c4.26,3.17,6.89,6.06,3.1,10.93c-0.89,1.19-2,2.56-3.48,3.06c-1.2,0.4-2.59,0.15-3.58-0.63
					l-1.3-1.07c-0.83-0.66-1.68-1.29-2.54-1.91c-3.02-2.13-6.2-4.01-9.64-5.32C24.55,324.26,23.01,323.5,22.56,322.97L22.56,322.97z
					 M25.33,321.82c0.21-0.16,0.31-0.36,0.35-0.49c0.07-0.13-0.07-0.2,0.33-0.09c5.67,1.28,10.79,4.32,15.24,7.98
					c-0.15-0.13-0.4-0.14-0.56-0.01c0.56-0.41,0.98-0.91,1.42-1.51c0.35-0.52,0.94-1.26,1.04-1.87c0.01-0.17,0-0.12,0.05-0.06
					c-2.67-3.47-6.86-5.88-11.21-6.44c-2.69-0.35-4.99,1.94-6.69,3.77c-0.01,0.02-0.07,0.08-0.08,0.1
					C25.43,322.98,25.54,322.15,25.33,321.82L25.33,321.82z"/>
			</g>
		</g>
		<g>
			<g>
				<path class="st3" d="M46.79,326.37c-0.55,0-1.08-0.3-1.34-0.83c-0.37-0.74-0.07-1.64,0.67-2.01c2.98-1.49,2.75-3.33,2.59-3.91
					c-3.24-5.01-8.64-7.15-8.69-7.17l-0.12-0.05c-0.86-0.42-1.62-0.48-2.41-0.17c-2,0.78-3.53,3.71-3.95,4.78
					c-0.3,0.77-1.17,1.15-1.94,0.85c-0.77-0.3-1.15-1.17-0.85-1.94c0.2-0.52,2.07-5.08,5.65-6.48c1.54-0.6,3.18-0.51,4.76,0.24
					c0.72,0.29,6.57,2.76,10.18,8.5l0.12,0.24c0.67,1.67,0.69,5.45-4.01,7.8C47.24,326.32,47.01,326.37,46.79,326.37z"/>
			</g>
		</g>
		<g>
			<g>
				<path class="st3" d="M52.31,320.58c-0.52,0-1.03-0.27-1.3-0.76c-0.41-0.72-0.16-1.64,0.56-2.05c4.39-2.5,3.48-5.06,3.26-5.53
					c-3.17-4.61-8.61-5.93-9.16-6.05c-4.17-0.47-5.76,3.68-5.82,3.86c-0.29,0.78-1.15,1.17-1.93,0.89
					c-0.78-0.29-1.17-1.15-0.89-1.93c0.84-2.28,3.84-6.42,9.06-5.79l0.1,0.02c0.29,0.06,7.14,1.45,11.17,7.41l0.07,0.11
					c0.03,0.05,2.94,5.46-4.38,9.63C52.82,320.52,52.56,320.58,52.31,320.58z"/>
			</g>
		</g>
		<g>
			<g>
				<path class="st3" d="M51.54,308.91c-4.85-2.84-3.38-8.89-1.22-11.69c2.23-4.18,8.37-6.24,12.14-2.89
					c3.72,4.1,8.33,7.41,13.37,9.76c7.83,3.84,17.17,4.58,25.04,0.55c0.75-0.36,1.64-0.05,2.01,0.69c0.34,0.71,0.08,1.56-0.59,1.95
					c-4.18,2.46-9.1,3.81-14.02,3.79c-10.75-0.18-20.87-5.46-28.25-13.06c-1-1.35-3-1.15-4.31-0.37c-0.71,0.41-1.44,1.1-1.85,1.8
					c-0.95,1.22-1.66,2.53-1.84,3.73c-0.22,1.18,0.27,2.36,1.09,3.18l0.28,1.19C53.68,308.58,52.43,309.48,51.54,308.91
					L51.54,308.91z"/>
			</g>
		</g>
	</g>
	<g>
		<g>
			<g>
				<path class="st3" d="M165.96,228.73c-4.04,10.2-7.76,20.38-12.31,30.3c-7.31,15.85-16.59,31-28.59,43.74
					c0.26,0.38,0.53,0.76,0.78,1.15c-0.33-0.59-1.28-0.63-1.7-0.17c0.31-0.32,0.61-0.65,0.91-0.98c-2.64-3.92-5.57-7.65-8.87-11.05
					c-13.73-14.43-33.59-21.62-53.28-22.14c11.85-24.53,28.25-51.28,49.93-69.72c7.84-7.02,16.39-11.05,25.82-12.57l-1.18-5.69
					c-17.6,2.8-31.15,15.4-42.57,28.3c-15.83,17.9-28.05,38.62-38.19,60.16c-1.31,2.16,0.39,5.02,2.89,4.9h0.19h0.39
					c19.03,0.34,38.02,7.84,51.81,20.96c3.05,2.92,5.8,6.17,8.23,9.65l0.92,1.3c1.43,2.41,5.07,2.77,6.95,0.72
					c11.25-11.85,20.64-25.52,27.83-40.15c5.7-12.14,10.79-24.75,11.98-38.28C168.03,227.96,166.31,227.64,165.96,228.73z"/>
			</g>
		</g>
		<g>
			<g>
				<path class="st3" d="M125.86,303.92c-0.25-0.39-0.53-0.76-0.78-1.15c-0.31,0.32-0.6,0.65-0.91,0.98
					C124.58,303.29,125.52,303.33,125.86,303.92z"/>
			</g>
		</g>
	</g>
	<g>
		<g>
			<g>
				<path class="st3" d="M154.17,182.9c-6.86-1.07-9.92-2.08-16.68-1.3l1.18,5.69c5.92-0.47,9.59-2.1,15.36-2.39
					c0.46-0.02,0.85-0.36,0.94-0.82C155.08,183.52,154.72,183,154.17,182.9z"/>
			</g>
		</g>
	</g>
</g>
</svg>
