<?xml version="1.0" encoding="utf-8"?>
<!-- Generator: Adobe Illustrator 28.2.0, SVG Export Plug-In . SVG Version: 6.00 Build 0)  -->
<svg version="1.1" id="Capa_1" xmlns="http://www.w3.org/2000/svg" xmlns:xlink="http://www.w3.org/1999/xlink" x="0px" y="0px"
	 viewBox="0 0 277.3 406.6" style="enable-background:new 0 0 277.3 406.6;" xml:space="preserve">
<style type="text/css">
	.st0{fill:#124176;}
	.st1{fill:#FFFFFF;}
	.st2{fill:#002346;}
	.st3{fill:#F0D4B6;}
	.st4{fill:#E33D28;}
	.st5{fill:#133A64;}
	.st6{fill:#E9E8E7;}
	.st7{fill:#3B3926;}
	.st8{fill:#002447;}
	.st9{fill:#0D2548;}
</style>
<g id="cuerpo">
	<g>
		<g>
			<path class="st0" d="M182.7,83.2c0,0,12.2-1.5,17.8,14.8c0,0,40.6,25.3,59.3,59.3l-4.5,55.3c0,0,0.6,11.5-3.2,17.9
				c0,0-1.1,10,5,18.5c0,0,3.5,6.8-3.7,13.9c0,0-2.4,3.3-0.2,7.8c0,0-3.7,12.6-6.8,14.6c0,0-18.1-44.2-62.2-55.9
				c0,0-26.6-10.7-52.7,13.1l-11.3-64.8c0,0,8.7-34.8,18.1-55.3c0,0,0.6-2-3.1-2.8c0,0-13.7-6.3-2.2-17.6l5.9-2c0,0,10,1.5,13.9-0.2
				c0,0,0.6,4.1-2,12.6c0,0,10.7,12.8,22.4,0.9c0,0-9.4-6.5,2.4-16.5C175.7,96.7,184,89.5,182.7,83.2"/>
		</g>
		<g>
			<path class="st1" d="M252.7,261.1c-12.9-23.3-53.6-37-54-37.1l0.9-2.9c0.1,0,10.6,3.5,22.7,10c16.2,8.7,27.4,18.3,33,28.5
				L252.7,261.1z"/>
		</g>
		<g>
			<path class="st1" d="M250.3,270.9c-9.9-24.5-52.8-41.9-53.2-42.1l1.1-2.8c0.1,0,11.2,4.5,23.4,12.1
				c16.5,10.2,27.1,20.9,31.5,31.7L250.3,270.9z"/>
		</g>
		<g>
			<g>
				<path class="st2" d="M258.4,246.8c-0.9-1.7-2.2-3.1-3.2-4.5c-2.3-3.4-1.8-7.5-1.3-11.8c0.1-0.5-0.2-0.9-0.7-1.1
					c-0.5-0.1-1.1,0.2-1.2,0.7c-0.5,1.7-0.9,3.5-1.2,5.4c-0.7,3.8,0.4,8.1,2.9,11.1c2.7,3.6,2.5,8.8-0.5,12.2
					c-3.5,3.6-4.7,7-2.9,11.9c0.3,1.2,1,2.3,0.4,3.5c-1,2.2-3.2,3.8-4.6,6c-0.1,0.2-0.3,0.5-0.4,0.7c2.3,3.1,3.1,7.7,3.4,11.6
					c0.5-2.3,0.7-4.8,0.6-7.4c-0.1-1.6,1-2.8,2.1-4.1c3.5-3.8,5.3-6.5,3.2-11.8c-2.1-4.9,1.5-5.9,3.5-10.1
					C260.4,255.2,260.3,250.6,258.4,246.8z"/>
			</g>
		</g>
		<path class="st2" d="M250.8,235.5l1.2-5.4c0,0,3.5-55.6,2.4-62.2s2.3,0,2.3,0s2.2,50.6-2.8,62.6
			C249,242.5,250.8,235.5,250.8,235.5z"/>
	</g>
	<g>
		<g>
			<path class="st1" d="M151.8,113.6c0,0,9.6,10,21.4,0c0,0,3.9,5.5,8.6,4.8l6.1,44.4c0,0-13.7-8.4-38-2.1L151.8,113.6z"/>
		</g>
		<g>
			<path class="st3" d="M153.3,99c0,0,1.3,6.8-2.4,13c0,0,8.4,11.6,22.3,1.5c0,0-10.6-7.2,4.4-17.8c0,0,4.4-3.8,4.2-10.4l2.5-5.7
				c0,0-6.4-1.3-13.4-0.7C161.6,79.8,151.5,84,153.3,99z"/>
		</g>
		<g>
			<path class="st4" d="M160.6,122.5c-5.2,0-9.3-4.2-9.5-4.4l0.7-0.7c0.1,0.1,5.3,5.4,11,3.8l0.3,1
				C162.2,122.4,161.4,122.5,160.6,122.5z"/>
		</g>
		<g>
			<path class="st4" d="M159.8,125.9c-6.3,0-8.9-3.7-9.1-3.9l0.8-0.6c0.1,0.2,2.9,4.1,9.9,3.3l0.1,1
				C161,125.8,160.4,125.9,159.8,125.9z"/>
		</g>
		<g>
			<path class="st4" d="M159.6,129c-6.4,0-8.9-3.6-9-3.7l0.8-0.6c0.1,0.2,2.6,3.8,9.4,3.2l0.1,1C160.5,129,160,129,159.6,129z"/>
		</g>
		<g>
			<path class="st4" d="M168.1,121.9c-0.1,0-0.1,0-0.1,0c-0.4,0-0.6-0.2-0.8-0.4l0.8-0.6c0,0-0.1-0.1-0.1-0.1c0.6,0.3,5-1.3,8.3-4.8
				l0.7,0.7C173.9,120,169.8,121.9,168.1,121.9z"/>
		</g>
		<g>
			<path class="st4" d="M170,125.3l0-1c0,0,4.6-0.7,10-5.7l0.7,0.7C174.9,124.6,170,125.3,170,125.3z"/>
		</g>
		<g>
			<path class="st4" d="M170.8,128.3l0-1c0.1,0,5.8-0.6,11.2-6.2l0.7,0.7C176.9,127.8,170.8,128.3,170.8,128.3z"/>
		</g>
		<g>
			<path class="st4" d="M153.4,160.4c-0.6-7.1-0.1-29.4-0.1-29.6l1,0c0,0.2-0.4,22.5,0.1,29.6L153.4,160.4z"/>
		</g>
		<g>
			<path class="st4" d="M159.4,160.1c-0.6-7.1-0.4-27.9-0.4-28.1l1,0c0,0.2-0.2,20.9,0.3,28L159.4,160.1z"/>
		</g>
		<g>
			<path class="st4" d="M156.3,160c-0.6-7.1-0.2-28.1-0.2-28.3l1,0c0,0.2-0.3,21.1,0.2,28.2L156.3,160z"/>
		</g>
		<g>
			<path class="st4" d="M162.5,159.6c-0.1-6.3-0.6-34.3-0.6-34.5l1,0c0,0.3,0.5,28.2,0.6,34.6H162.5z"/>
		</g>
		<g>
			<path class="st4" d="M169.4,158.8c-0.6-7.1-1.7-35.5-1.7-35.8l1,0c0,0.3,1.2,28.7,1.7,35.7L169.4,158.8z"/>
		</g>
		<g>
			<path class="st4" d="M172.5,158.4c-0.6-7.1-1.4-27.2-1.4-27.4l1,0c0,0.2,0.8,20.3,1.4,27.3L172.5,158.4z"/>
		</g>
		<g>
			<path class="st4" d="M176.2,158.6c-0.6-7.1-1.4-27.2-1.4-27.4l1,0c0,0.2,0.8,20.3,1.4,27.3L176.2,158.6z"/>
		</g>
		<g>
			<path class="st4" d="M180.2,160.2c-0.5-7.1-2-30.6-2-30.8l1-0.1c0,0.2,1.4,23.8,2,30.8L180.2,160.2z"/>
		</g>
		<g>
			<path class="st4" d="M184.1,160.4l-0.2-2.1c-2.6-31.9-2.6-31.9-1.9-32c0.5-0.1,0.6,0.5,0.6,0.7l-0.1,0
				c-0.1,1.9,1.7,23.1,2.4,31.2l0.2,2.1L184.1,160.4z"/>
		</g>
		<g>
			<path class="st2" d="M187.6,165.6c-1.4-14.9-3.4-30-6.1-44.7l-0.1-0.4l-0.1-0.2c-0.6-0.9-2.2-1.1-3.6-1.6
				c-2.2-0.6-4.9-1.9-6.3-3.9c-2.8-3.7-4.3-8.8-2.4-13.2c1.6-3.6,5.9-5.7,8.2-8.2c1.7-1.7,2.5-4.7,2.6-7.2c-0.2-2,0.8-4,2.7-4.8
				c0.8-0.5,2.2-0.5,3-0.3c8,1.5,14.1,8.7,15.9,16.2c0.1,0.1-0.4-0.5-0.4-0.5c10.5,6.5,20.2,14.1,29.4,22.3
				c11.5,10.4,22.6,22.4,31,35.9c1.6,2.6,3.8,14.9,1.4,10c-11-22-29.1-40.4-48.1-55.8c-4.8-3.8-9.8-7.6-15-10.9
				c-2.9-6.3-7.9-12.2-15-13.5c-0.4-0.1-0.3-0.1-0.4-0.1c-0.3,0-0.6,0.3-0.6,0.7c0,3.7-1,7.8-3.7,10.5c-2,2-4.1,3.3-5.8,4.8
				c-4.1,3.2-2.4,9.7,1,12.8c2.7,2.4,8.4,1.7,9.4,6.2c1,5.4,1.7,10.8,2.4,16.2c1.1,9.9,2.3,19.7,2.6,29.6
				C189.6,166.8,187.6,166.9,187.6,165.6"/>
		</g>
		<g>
			<path class="st2" d="M140.6,101c-3.3,0.4-7,1.8-9.1,4.5c-3.2,4.6-0.6,10.3,4.1,12.7c1.5,0.8,3.9,1.7,3.7,3.9
				c-0.1,0.7-0.4,1.5-0.6,2.1c-4,11.2-8.5,22-12.2,33.3c-2.5,7.4-4.9,14.9-6.5,22.6c-0.1,0.5-0.7,0.9-1.2,0.8
				c-0.5-0.1-0.9-0.6-0.8-1.2c1.5-7.8,3.7-15.4,6-23c3.6-11.2,7.9-22.3,11.8-33.4c0.2-0.5,0.3-1,0.4-1.5c0,0.1,0,0.2,0,0.2
				c0,0.1,0,0,0,0.1c0,0,0,0,0,0c0,0,0,0,0,0c-0.3-0.3-1.7-1-2.2-1.2c-3.8-2-7.2-6.1-7.1-10.6c-0.2-7.3,6.8-12,13.7-11.2
				C141.9,99.2,141.8,100.9,140.6,101"/>
		</g>
		<g>
			<path class="st2" d="M153.8,99.6c1.7,3.9,0.7,8.3-0.6,12.2c-0.5,1.4-0.7,1.7-0.7,3c-0.3,15.4-1,30.7-1.9,46.1
				c-0.1,1.2-1.9,1.2-2,0c-0.1-2.6-0.1-5.1-0.1-7.7c-0.1-11.9,0.1-26.3,0.3-38.3c-0.1-0.9,0.1-2.6,0.6-3.5c0.6-1.4,1.1-2.9,1.5-4.3
				c0.7-2.3,1.2-4.7,1-6.9C151.8,99.1,153.3,98.6,153.8,99.6"/>
		</g>
		<g>
			<path class="st2" d="M152.7,113c4.9,3.9,11.2,4.5,16.8,1.7c0.8-0.4,1.6-0.9,2.5-1.3c1.1-0.5,2,1,1,1.7c-1.1,0.8-2.4,1.7-3.7,2.3
				l-0.7,0.3c-2,0.8-4.4,1.4-6.6,1.3c-4-0.1-7.9-1.7-10.8-4.6C150.4,113.4,151.7,112.1,152.7,113"/>
		</g>
		<g>
			<path class="st2" d="M160,133c-2.6,0-7.7-0.9-11.4-7.1c-0.3-0.5-0.1-1.1,0.4-1.4c0.5-0.3,1.1-0.1,1.4,0.3
				c3.5,5.9,8.3,6.3,10.2,6.1c-0.2-7.7,3.1-14,4.4-14.4c0.5-0.2,1.1,0.1,1.3,0.6c0.1,0.4,0,0.9-0.4,1.2c-0.7,0.8-3.6,6.4-3.2,13.4
				l0.1,0.9l-0.8,0.2C161.7,132.9,161,133,160,133z"/>
		</g>
		<g>
			<path class="st2" d="M166.7,159.4c-0.5,0-1-0.4-1-0.9c-0.6-7.1-1.7-39.3-1.7-39.6l0-0.7l0.6-0.3c0.3-0.1,0.7-0.2,1.3,0.2
				c1.7,1.2,5.8,7.4,6.2,12c2.1-0.2,7.4-1.2,10.3-6.2c0.3-0.5,0.9-0.6,1.4-0.4s0.6,0.9,0.4,1.4c-4.3,7.3-12.7,7.3-13,7.3l-1,0l0.1-1
				c0.1-3.1-2.4-7.5-4.1-9.9c0.3,7.7,1.2,31.2,1.6,37.1C167.7,158.9,167.3,159.3,166.7,159.4C166.7,159.4,166.7,159.4,166.7,159.4z"
				/>
		</g>
		<path class="st2" d="M151.2,88.9l0.7,11.2l2.8,3.5c0,0,0.6-12.7-0.3-15.1S151.2,88.9,151.2,88.9z"/>
		<path class="st2" d="M133.7,102.1c0,0,5.3-1.3,8.1-1.1c2.7,0.2,10.8,1.1,10.8,1.1l0.8-3.1c0,0-10.6-0.3-14.6-0.2
			C134.6,99,133.7,102.1,133.7,102.1z"/>
	</g>
</g>
<g id="libro">
	<g>
		<path class="st1" d="M47.9,170.7c0,0,46.4-0.2,63.8,21.4c0,0,4.1,2.1,12-2.4l64.2-27.2l10.7,64c0,0-10,3.3-16.2,2l-31,4.4
			l-19.5,7.2c0,0-8,1.8-11.7-4l-53.8-27.6L47.9,170.7z"/>
	</g>
	<g>
		<path class="st1" d="M48.5,168.1c0,0,11.4-5,14.5-12.3c0,0,47.5-3.4,52.4,25l4-0.5c0,0,36.3-36.2,69.3-16.6l-65,26
			c0,0-7.1,8.3-15.7-1.1c0,0-23.3-18.2-60.1-17.9L48.5,168.1z"/>
	</g>
	<g>
		<path class="st0" d="M151.2,200.2c-2.5,15,20.1,19.9,24.9,5.9c2.1-8.8-9.6-16.9-17.7-14.8c-2.7,0.8-4.8,2.8-6,5.3
			C151.9,197.7,151.5,199.1,151.2,200.2 M147.8,199.4c1.6-6.3,6.1-11.2,12.9-11.4c13-0.5,26.5,14.8,15.3,25.9
			C164.8,225.1,144.1,215.6,147.8,199.4"/>
	</g>
	<g>
		<path class="st3" d="M206.5,190.4c0,0-11.7-5.2-14.9-7.2c0,0-8-5.8-10.8-0.6l0.8,2.5l-10.6-3.5c0,0-8-2.2-7.5,2.5
			c0,0,1.1,3.9,8.8,7.8c0,0-9-1.4-13-3.1c0,0-7-1.7-7.2,1.5c0,0,0.9,4.8,8.7,7.4c0,0-3.7,1.2-3.7,3.3c0,0-0.9,5.8,15.6,7.7l27.5,1.5
			C200.2,210,213.2,207.1,206.5,190.4"/>
	</g>
	<g>
		<path class="st0" d="M176.9,218c-0.3,0-0.6-0.1-0.8-0.2c-2.9-1.9-6.1-3.6-9.3-4.9c-0.8-0.3-1.1-1.2-0.8-2c0.3-0.8,1.2-1.1,2-0.8
			c3.4,1.4,6.7,3.2,9.8,5.2c0.7,0.4,0.9,1.4,0.4,2.1C177.8,217.7,177.3,218,176.9,218z"/>
	</g>
	<g>
		<path class="st2" d="M190.7,189.9c-3.7-0.8-8.9-1.9-10.6-5.9c-0.9-3.5,2.6-5.4,5.5-4.4c2.6,0.7,5,2.2,7.2,3.5
			c4.4,2.4,9.2,4.5,14.1,5.9c0.7,0.2,1.1,0.9,0.9,1.6c-0.2,0.8-1.1,1.2-1.8,0.9c-5.7-2.4-11.1-5.1-16.3-8.2c-1.4-0.8-3-1.4-4.6-1.7
			c-1-0.1-1.9-0.2-2.6,0.4c-0.6,0.6-0.6,1.3,0,2.1c2,2.6,5.4,3.8,8.2,5.2C191.1,189.6,191,190,190.7,189.9"/>
	</g>
	<g>
		<path class="st2" d="M181.2,185.7c-1.8-0.5-6.4-1.9-8.1-2.5c-0.4-0.1-1.5-0.5-1.8-0.6c-1.9-0.4-4.2-0.7-5.8-0.1
			c-3.1,1.2,3,5.4,4.3,6.2c4.7,3,10.2,4.2,15.5,6c0.1,0,0.2,0.2,0.2,0.4c0,0.1-0.2,0.2-0.3,0.2c-1.9-0.2-3.8-0.6-5.6-1
			c-2.8-0.7-5.7-1.2-8.3-2.4c-3.3-1.5-12.2-6.9-7.4-10.9c2.4-1.3,5.2-0.9,7.7-0.3c0.2,0.1,0.5,0.2,0.7,0.2c2.4,0.8,6.9,2.4,9.4,3.2
			C182.6,184.6,182.2,186,181.2,185.7"/>
	</g>
	<g>
		<path class="st2" d="M179.4,193.9c-5.3-0.3-10.6-1.1-15.7-2.4c-2.4-0.5-4.8-2-7.3-2.1c-1.1-0.1-2.4,0.2-2.6,0.7
			c0,1.8,2.4,3.4,3.9,4.4c5.5,3.2,11.8,5.1,18,6.4c2.6,0.4,5.1,0.7,7.8,0.8c0.3,0,0.4,0.5,0,0.5c-5.3,0.8-10.7,0.3-15.9-0.9
			c-5.3-1.4-10.7-3.1-14.5-7.4c-3.2-3.6-1.3-6.9,3.4-6.7c2.9,0,5.2,1.4,7.9,2.1c4.9,1.5,10.1,2.6,15.2,3.8
			C180.1,193.1,180,193.9,179.4,193.9"/>
	</g>
	<g>
		<path class="st2" d="M202.5,210.6c-6.8,1.5-13.8,1.1-20.7,0.6c-4.3-0.5-8.6-1.1-12.9-2.1c-2.5-0.8-5-1.5-7.4-2.7
			c-1.6-0.8-3.4-1.8-4.4-3.5c-1.8-3.1,0.6-5.6,3.8-5.5c0.7,0,1.2-0.1,1.9,0.2c0.3,0.1,0.2,0.6-0.1,0.6c-1,0-2.2,0.3-3.2,0.7
			c-1.4,0.5-1.7,2-0.9,3c0.9,1.2,2.3,1.9,3.8,2.5c2.3,0.9,4.8,1.6,7.2,2.1c4.1,0.7,8.4,1.2,12.5,1.4c6.8,0.6,13.5,0.3,20.3,0.6
			C203.5,208.6,203.6,210.4,202.5,210.6"/>
	</g>
	<path class="st2" d="M203.7,212.2L203.7,212.2l0.3-0.3c0.2-0.1,0.3-0.3,0.5-0.4c-0.2-0.1-0.5-0.3-0.7-0.4
		C204,211.5,204,211.9,203.7,212.2z"/>
	<g>
		<path class="st0" d="M261.1,157.8c0,0,25.5,43.6,8,63.8c0,0-9.2,10.6-18.1,8.9c0,0-32.3-7.4-49.6-17.4c6.4-9.2,6.4-15.5,7.4-24.3
			c2.1-3.8,13.6,4.2,21.6-0.5c3.7-2.2,8-3.7,8.9-13.7C240.8,159.9,261.1,157.8,261.1,157.8z"/>
	</g>
	<path class="st2" d="M242.3,226.8c-13.2-2.1-26.7-9.1-37.9-15.3c5.3-4.9,7.9-12.8,5.5-19.8l-0.1-0.5c0,0,0-0.1,0-0.1
		c-0.1-0.2,0.1-0.6,0.2-0.6c0.1-0.1,0.2,0,0.4,0c3.3,0.4,6.6,0.7,10,0.7c10.3,0.1,21.2-3.8,19.6-16.1c-0.1-0.7-1.1-0.7-1.1,0.1
		c0,14.8-17,12.9-27.2,11.1c-3.5-0.9-6.6,1.7-6.5,5.3c0,0.6,0.2,1.1,0.3,1.6c0.9,3.1,0.7,6.6-0.7,9.5c-1,2.2-2.7,4.2-4.6,5.8
		c-0.4,0.4-0.8,0.9-1,1.4c-1.1,2.4,0.1,5.2,2.4,6.1l1,0.6l4,2.2c13.7,7.3,28.6,14.5,44.6,13.8c3.2-0.1,6.2-0.8,9-1.8
		c4.7-3.8,10-10.2,11.5-20.2C268,224.7,255.9,229.2,242.3,226.8z"/>
	<path class="st2" d="M258,156.4c4.5,7.4,8.2,15.3,10.8,23.7c2.2,7.1,3.4,14.5,3.6,21.9c0,2.5,0,6.1-0.7,8.5
		c-1.5,10-6.8,16.4-11.5,20.2c9.4-3.6,15.7-12.2,16.8-23.1c0.6-19.5-6-37.6-16.3-53.7c-0.5-0.8-1.2-1-2.1-0.5
		C257.7,153.8,257.1,154.4,258,156.4z"/>
	<g>
		<path class="st2" d="M47.1,169.3c22.1,0.4,47,5.2,63.9,19c2.9,1.8,6.7,1.6,9.4-0.6c16.8-6.6,33.7-13.1,50.7-19.5
			c2.5-1,14.1-5.4,16.6-6.3c0,0-0.3,0.1-0.6,0.4c-0.3,0.3-0.4,0.9-0.4,1.1c0.1,0.6,0.1,0.5,0.1,0.4c-0.1-0.1-0.1-0.2-0.3-0.3
			c-0.4-0.4-0.8-0.6-1.3-0.8c-9.5-3.1-19.8-3.4-29.6-1c-13.7,3.2-26.3,10.8-36.6,20.4c-1.6,1.7-4.7,0.7-5-1.6
			c-0.5-2.6-1.5-5-2.9-7.2c-9.3-13.6-32.2-15.8-47.5-15.5l1.5-0.8c-4.2,5.2-8.9,10.4-15.3,13c-0.4,0.1-0.7,0.4-0.7,0.8
			c-0.1,0.3,0.2,0.7,0.3,1l3.7,7.3c5,9.6,9.9,19.4,15.4,28.7l-0.8-0.7c8.9,3.5,17.6,7.4,26.2,11.6c10.5,5.2,21.1,10.5,30.1,18.2
			l0.1,0.1l0,0l0,0c-1.3-1.2-3.4,0.1-2.9,1.8l0-0.1l-0.1-0.2c-4.1-15.3-8.7-32.9-12.4-48.3c-0.3-1.2,1.5-1.7,1.9-0.5
			c1.4,4.5,2.8,9.1,4.2,13.6c2,6.8,6.1,20.5,8,27.4l2,6.9l0.1,0.2l0,0.1c0.5,1.7-1.5,3.3-3.1,2.3c-1.7-1.4-3.3-2.8-5.1-4
			c-15.7-10.5-33.5-18.3-50.8-26c-7.2-11.9-13.6-24.6-20.1-36.9c-1.4-2.9,0.2-5.9,3.2-6.9c2.9-1.3,5.3-3.4,7.6-5.6
			c2.1-2.1,4-4.3,5.8-6.7c9.6-0.4,19,0.3,28.3,2.6c11.3,2.7,23.6,9.1,26.8,21.2c0.2,0.7,0.3,1.3,0.5,2c-0.1-0.3-0.2-0.6-0.5-0.8
			c-0.4-0.4-1.3-0.2-1.6,0.1c0.2-0.2,0.7-0.7,0.9-0.9c10.7-9.7,23.4-17.3,37.5-20.7c10.4-2.6,21.7-2.3,32,1c1.1,0.3,2.2,1,3,1.8
			c1.8,1.5,2.5,4.6-0.3,5.8c-21.4,8.2-46.8,18.3-66.5,25.4c-4.1,2.9-10.2,3.1-14.4,0c-4.1-3.5-8.7-6.4-13.5-8.8
			c-14.9-7.1-31.5-10.5-47.8-11.6C45.9,171.3,45.7,169.4,47.1,169.3"/>
	</g>
	<g>
		<path class="st2" d="M122.5,189.6l14,47.7c0.3,1.2-0.3,2.4-1.5,2.8s-2.4-0.3-2.8-1.5c0,0-11.6-48.4-11.7-48.4
			C120.3,188.8,122.1,188.3,122.5,189.6"/>
	</g>
	<g>
		<path class="st2" d="M181.8,227.6c4.3-0.6,9.1-1.1,13.4-1.5c0.1,0,0.6-0.1,0.6-0.1c0.7-0.1,1.2-0.7,1.2-1.4l-0.3-1.9
			c-0.7-4.1-1.2-8.2-1.5-12.4c0-0.6,0.4-1,0.9-1.1c0.5,0,0.9,0.3,1,0.7c1.1,4,2,8.1,2.7,12.2l0.2,1c0.4,1.3,0.2,3.1-0.8,4.2
			c-0.8,1.1-2.1,1.7-3.4,1.7c-0.3,0-1.2,0.1-1.6,0.1l-4.2,0.2c-2.8,0.1-5.6,0.1-8.3,0.1C180.7,229.6,180.5,227.8,181.8,227.6"/>
	</g>
	<g>
		<path class="st2" d="M191.7,164.1c0,0,0.4,4.2,0.9,8.7c0.5,5.1,1,10.5,1,10.5c0.1,1.2-1.7,1.5-2,0.3l-4.1-18.8
			C187,161.9,191.3,161.2,191.7,164.1"/>
	</g>
	<g>
		<path class="st2" d="M110.5,185.1c-0.3,0-0.7-0.2-0.8-0.5c-12.9-20.2-46.1-19.2-46.4-19.2c-0.6,0-1-0.4-1-1s0.4-1,1-1
			c0.3,0,8.7-0.3,18.9,2c13.6,3.1,23.7,9.3,29.3,18.1c0.3,0.5,0.2,1.1-0.3,1.4C110.9,185,110.7,185.1,110.5,185.1z"/>
	</g>
	<g>
		<path class="st2" d="M122,186.1c-0.3,0-0.5-0.1-0.7-0.3c-0.4-0.4-0.4-1,0-1.4c16.9-16.4,50.7-22.7,52.1-23
			c0.5-0.1,1.1,0.3,1.2,0.8c0.1,0.5-0.3,1.1-0.8,1.2c-0.3,0.1-34.7,6.4-51.1,22.5C122.5,186,122.3,186.1,122,186.1z"/>
	</g>
	<g>
		<path class="st2" d="M124.6,236.9c2.3,2.5,6.9,2.8,9.8,0.7c0.4-0.3,1.1-0.2,1.4,0.2c0.3,0.4,0.2,0.9-0.1,1.3
			c-1.7,1.7-4.1,2.7-6.5,2.9c-2.5,0.2-5.1-0.4-7.3-2.1C119.6,238.1,122.5,234.9,124.6,236.9"/>
	</g>
	<g>
		<path class="st2" d="M159.9,228.6c13.2-2.5,29.4-1.4,29.4-1.4l1.7,1.4c-0.4,0-47.8,5.9-56,11.4l1-4.6
			C135.9,235.4,146.7,231.1,159.9,228.6z"/>
	</g>
</g>
<g id="piernas">
	<g>
		<path class="st5" d="M133.3,242c0,0-9.7-1.9-12.4-5.4c0,0-38.2-23.2-53.9-27.4c0,0-38.2-10.2-44.2,20.7c0,0-4.3,34.5,42.7,76.8
			c0,0-10.7,4.3,9.2,15.3l43.8,29.9c0,0,3.9,2.1,10-6.4c0,0,22.8-25.6,26.7-36.6c0,0,22.8,19.2,66.5,7.8c0,0,25.6-7.8,25.6-34.1
			c0,0-13.2-39.5-68.3-54.8C178.9,227.9,157.4,219.9,133.3,242"/>
	</g>
	<g>
		<path class="st3" d="M73,320.7c-0.9,0.5-6.7,5.2-6.7,5.2s11.7,8.1,2.4,16.7c0,0,5.9,0.2,8.3,5c0,0,7.4,4,16.2-10.5L73,320.7z"/>
	</g>
	<g>
		<path class="st6" d="M45.8,335.6c0,0,1.9-14,17.4-8.6c0,0,15.6,6.1,5.5,15.6c0,0,5.5,0.5,8.3,5c0,0,6.7,3.4,16.2-10.5l6.1,3.7
			l8.9,5.5c0,0,9.6,6.1,10.2,5.7c0.6-0.5,4.3,2.1,7.9-3l15.9-19.2c0,0,5.5,2.2,4.3,8l-9.8,14.5l-10.6,16.4c0,0-22.5,28.5-43.8,23.2
			l-5.1-0.7c0,0-0.3-7,6.9-15.4c0,0,3-7,5.1-7.9c0,0-1-5.8,0.4-7.6c0,0-41.7,15.8-51,15c0,0-33.2,0.5-35.9-8.2
			c0,0,0.6-6.4,25.3-13.6c0,0-2.2-4.5,5.4-6.4c0,0-0.7-5.2,6.4-6C39.8,341.3,36.6,336.8,45.8,335.6"/>
	</g>
	<g>
		<path class="st1" d="M38,339.8c0,0,3.8-7.4,15.4-2.5c0,0,13.1,6.2,9,13.7c0,0-1.9,1.6-4.5,1.2c0,0-0.8,6.5-4.9,6.1l-6,5.9
			c0,0-1.9,0.5-3.1-2.2c0,0-8.7-5.7-13.9-5.8c0,0-6.8-5.2,3-8.2c0,0,0.9-5.4,5.5-6.9L38,339.8z"/>
	</g>
	<g>
		<path class="st1" d="M90.5,357.1c0,0,5.6-9.4,17.8-10.8l8.2,4.8l-0.2,2.4c0,0,2,3.5-0.8,6.1c0,0,3.5,6.2-0.8,8.2
			c0,0-3.9,1.9-11.4,1.2c0,0-7.4,1.6-11.7,4.8c0,0-7.6,4-6.1-1.2c0,0,1.4-4.9,4.2-5.6c0,0-2.6-4.4,1.2-6.9L90.5,357.1z"/>
	</g>
	<g>
		<path class="st1" d="M3.6,369.6c0,0,18.2,9.4,44.9,3.5l41.1-12.8c0,0-2.5,3.5,0.1,6.7c0,0-4.4,1.2-3.6,7.2l-3,2.6
			c0,0-9.2,0.1-21.4,5.9c0,0-42.5,12.1-52.6,2C9.1,384.6,1,380.8,3.6,369.6"/>
	</g>
	<g>
		<path class="st1" d="M77.2,391.2c0,0,10.2,4.2,25.1-1.8l16.2-12.1l8.1-10.8l10-15.3c0,0,11.1-9.1,9.7-14.6c0,0,6.1,5.5,6.6,8.4
			c0,0,3.1,4.7-11.5,19c0,0-3.5,10.6-5.5,14.2c0,0-14.8,25.8-43.1,26.7H81.8C81.8,404.8,75.3,400.9,77.2,391.2"/>
	</g>
	<g>
		<path class="st2" d="M60.7,220.9c11.7,10.7,21.6,23.2,29.5,36.9c2.7,4.6,5,9.4,7.2,14.2c0.6,1.4,0,3-1.4,3.6
			c-1.4,0.6-3.1,0-3.7-1.5c-5.4-14.5-13.2-28-22.8-40.2c-3.2-4.1-6.6-8-10.2-11.6C58.5,221.5,59.7,220.1,60.7,220.9"/>
	</g>
	<g>
		<path class="st2" d="M246.2,288.7c-10.1-33.1-40.5-54.2-73.7-59.6c-1.4-0.3-3.1-0.4-4.6-0.6c-0.7-0.1-2,0.1-2.7,0.1
			c-28,3.4-82.2,58.5-99.7,81.7l-0.2,0.3c0,0.1-0.1,0.1-0.1,0.1c-0.2,0.2-0.2,0.6,0,0.8c0,0.1,0.1,0.1,0.2,0.2l0.6,0.5
			c8,6.7,16.6,12.9,25.2,19c8.6,6.1,17.1,12.3,26.3,17.3c2,1.3,4.6,1.1,6.3-0.6l2.2-2.3l4.3-4.5c11.2-12.5,21.2-26.2,28.8-41.1
			c3.8-7.4,7.3-15.3,9.4-23.3c0.1-0.5,0.7-0.9,1.2-0.7c0.5,0.1,0.8,0.7,0.7,1.2c-1,4.2-2.3,8.3-3.8,12.3
			c-7.5,20.1-19.4,38.2-33.4,54.3c-1.4,1.4-5.2,5.7-6.5,7.1c-2.3,2.5-6.3,3.5-9.5,2.3c-2.6-1.1-5-2.6-7.4-4
			c-16.5-10.4-32.3-21.7-47.4-34.1c-2-1.8-2.3-5.1-0.6-7.2l0.5-0.7c2.6-3.6,5.3-6.8,8.1-10c20.4-23.1,61.2-64.8,90.9-72.2
			c1.6-0.3,3.5-0.6,5.2-0.6c0.6,0,1.2-0.1,1.8,0c10.2,1.3,20.2,4.2,29.6,8.2c24.1,10.1,43.3,30.3,50.2,55.7
			C248.4,289.4,246.6,289.9,246.2,288.7"/>
	</g>
	<path class="st2" d="M69.1,209.7c-2.9-1.3-5.9-2.3-9-3c-9.5-2.2-20.2-2.1-28.7,3.5c-3.5,2.3-6.4,5.5-8.3,9.2
		c-6.3,14.8-2,31.7,5,45.3c8.7,16.7,21.9,30.6,36.2,42.6c0.4,0.3,1,0.3,1.3-0.1c0.4-0.4,0.4-1,0-1.4c-8.6-8.7-16.8-17.9-23.7-27.8
		c-6.8-9.8-12.5-20.7-14.9-32.4c-1.5-8-1.8-16.5,1.6-23.9c7.8-13.5,25.8-10.2,39.8-10c6,0.1,58.9,33.6,58.9,33.6l2.7-2.8
		C93.9,216.4,69.1,209.7,69.1,209.7z"/>
	<g>
		<path class="st2" d="M74,322c-2.7,2.1-5.4,4.1-8.3,5.9c-0.5,0.3-1.1,0.1-1.4-0.4c-0.2-0.4-0.2-0.9,0.2-1.2
			c1.2-1.1,2.3-2.3,3.3-3.5c1.1-1.2,2.1-2.5,3.1-3.7c0.7-0.9,2.1-1.1,3-0.4C75.1,319.5,75.1,321.1,74,322"/>
	</g>
	<g>
		<path class="st2" d="M45,335.2c-0.1-10.5,9.4-13.7,18.2-10.5c3.8,1.3,7.8,3.7,9.5,7.7c2,3.9,0.6,9.8-3.9,11.3
			c-1.1,0.4-1.8-1.2-0.8-1.8c2.7-1.6,3.2-5.3,1.7-7.9c-2.8-5-11.8-8-17.3-6c-3.1,1.2-4.7,4.3-5.3,7.5C46.8,336.6,45,336.4,45,335.2"
			/>
	</g>
	<g>
		<path class="st2" d="M68.2,342.3c2.9-1,6.3,0.6,8.3,2.5c1.9,1.6,3.5,2.2,5.8,1.5c4.4-1.7,7.3-6.6,10.3-10.3c0.7-1,2.2,0,1.7,1.1
			c-2.9,6.5-9.9,16.5-18.1,11.5c-2.5-1.9-4.3-4.6-7.6-4.2C67.4,344.3,67.1,342.6,68.2,342.3"/>
	</g>
	<g>
		<path class="st2" d="M62.3,348.2c0-2.1-1.4-3.8-2.8-5.2c-3.8-3.9-9.3-6-14.7-5.5c-1,0.1-1.9,0.2-2.8,0.7c-1,0.5-1.8,1.1-1.9,1.9
			c0,0.1,0,0,0,0c0,0,0-0.1,0,0c2.5,0.6,5,1.4,7.3,2.4c4.4,1.9,9.6,4.5,11.1,9.5l-0.8-0.7C59.8,351.5,62.4,350.9,62.3,348.2
			 M64.4,348.2c-0.1,4.3-4,5.6-7.7,4.8c-0.8-2.1-2.2-3.9-4.4-5.2c-3.8-2.4-8.2-3.8-12.5-4.9c-2.3-0.3-3.4-2.5-2.5-4.6
			c3.3-6.1,13-4.5,18.1-1.8c2.2,1.2,4.2,2.8,5.8,4.6C63.1,343.1,64.6,345.5,64.4,348.2"/>
	</g>
	<g>
		<path class="st2" d="M40.2,342.5c-1.6,0.5-3,1-4,1.8c-1.4,1.1-1.7,3.1,0,3.8c2.2,0.8,5.1,0.7,7.3,1.8c2.6,1,4.8,2.7,6.7,4.7
			c0.9,0.9,1.9,2.6,2.9,2.8c2-0.5,3.2-2.4,3.3-4.5c0.1-0.5,0.6-0.9,1.1-0.9c0.5,0.1,0.9,0.5,0.9,1c0,1.9-0.7,4.1-2.3,5.3
			c-0.9,0.7-1.6,1.3-2.9,1.5c-2.2,0.1-3.5-2.1-4.8-3.4c-1.7-1.6-3.7-3-5.8-3.9c-3.3-1.5-8.1-0.2-10-4.2c-0.9-2.3,0.1-4.8,1.9-6.2
			c1-1.1,6.6-2.7,6.5-0.3C40.9,342.1,40.6,342.4,40.2,342.5"/>
	</g>
	<g>
		<path class="st2" d="M33.3,349.5c-2,0-4.6,2.3-4,4.4c0.6,0.8,2.4,0.7,3.6,1c3.4,0.7,6.7,2.3,9.3,4.5c1.3,1,2.4,2.4,3.4,3.6
			c0.4,0.4,0.4,0.3,1,0.1c1.7-1.2,3.9-3,5.3-4.5c0.4-0.5,1-0.5,1.5-0.1c0.4,0.4,0.4,1,0.1,1.4c-1.2,1.4-2.5,2.4-3.7,3.5
			c-0.7,0.5-1.3,1.2-2.1,1.6c-2.5,1.4-3.7-0.6-5.2-2.2c-2.7-2.7-6.2-4.6-10-5.2c-1.4-0.2-2.6-0.2-4-0.8c-1.8-0.7-2.5-3-2-4.8
			c0.8-3.1,3.5-5.3,6.7-5.6C35.3,346.2,35.5,349.4,33.3,349.5"/>
	</g>
	<g>
		<path class="st2" d="M27.2,354.9c-5.5,3-11.1,5.6-16.8,8.2c-12.1,5,0.7,8.5,6.8,9.5c14.4,2.5,29.2,0.4,43.1-3.9
			c9.4-3.3,19.2-5.6,28.4-8.8c1.1-0.4,1.9,1.3,0.7,1.9c-4.6,2-9.3,3.6-14,5.2c-4.2,1.4-9.9,3.5-14,5c-16.7,5.8-35.3,8.3-52.5,3.1
			c-6.1-2-11.1-6.8-5.6-12.7c2.6-2.4,5.9-3.1,9-4.4c4.6-1.8,9.3-3.4,14.1-4.9C27.6,352.7,28.2,354.4,27.2,354.9"/>
	</g>
	<g>
		<path class="st2" d="M4.1,366.7c0.3,3.7-0.7,7.5,1,10.9c1.6,3.6,4.8,6.4,8.6,7.5c7.2,1.5,14.8,1.6,22.1,1.4
			c8-0.4,15.9-1.8,23.4-4.5c3.7-1.6,7.7-2.9,11.6-4.1c3.9-1.2,7.9-2.3,12.1-2.8c0.6-0.1,1,0.3,1.1,0.9c0.1,0.5-0.3,1-0.8,1.1
			c-3.9,0.7-7.8,2-11.6,3.4c-3.7,1.3-7.7,2.8-11.3,4.5c-7.8,3.1-16,4.9-24.3,5.5c-6.2,0.5-12.5,0.4-18.7-0.2
			c-7-0.2-13.8-4.2-16.2-10.9c-1.2-3.2-1.3-6.9-0.4-10.1c0.4-1,1.1-4.2,2.8-3.3C3.9,366.1,4,366.4,4.1,366.7"/>
	</g>
	<g>
		<path class="st2" d="M94.7,352.7c-0.2,0-0.4-0.1-0.6-0.2c-1-0.8-2.6-2.2-2.8-4.2c-0.1-1.7,0.8-3.4,3-5c1.9-1.4,3.9-2.7,6.1-3.7
			c0.5-0.2,1.1,0,1.3,0.5s0,1.1-0.5,1.3c-2,0.9-4,2.1-5.8,3.4c-1.6,1.2-2.3,2.2-2.2,3.2c0.1,1,1.1,2,2.1,2.8c0.4,0.4,0.5,1,0.1,1.4
			C95.2,352.6,94.9,352.7,94.7,352.7z"/>
	</g>
	<g>
		<path class="st2" d="M91.9,361.5c-0.1,0-0.2,0-0.3,0c-0.7-0.1-1.4-0.5-1.8-1.1c-0.6-0.7-0.8-1.7-0.7-2.6c0.2-1.4,1.1-2.5,2-3.4
			c4.2-4.4,9.7-7.7,15.6-9.2c0.5-0.1,1.1,0.2,1.2,0.7c0.1,0.5-0.2,1.1-0.7,1.2c-5.5,1.4-10.7,4.5-14.6,8.7c-0.7,0.7-1.3,1.5-1.4,2.4
			c-0.1,0.4,0.1,0.8,0.3,1.1c0.1,0.1,0.3,0.3,0.5,0.3c0.4,0,0.9-0.3,1.4-0.6c5.4-3.4,11.7-5.2,18-5.4l0.3,0c1.1,0,2.1,0,2.9-0.5
			c0.4-0.2,0.8-0.7,0.9-1.1c0.1-0.3,0-0.5-0.1-0.6c-0.3-0.5-0.2-1.1,0.3-1.4c0.5-0.3,1.1-0.2,1.4,0.3c0.4,0.6,0.5,1.4,0.3,2.2
			c-0.2,1-0.9,1.9-1.8,2.4c-1.2,0.7-2.6,0.7-3.8,0.7l-0.3,0c-6,0.2-11.9,1.9-17,5.1C93.6,361,92.8,361.5,91.9,361.5z"/>
	</g>
	<g>
		<path class="st2" d="M91.1,368.2c-0.2,0-0.3,0-0.5,0c-2.1-0.3-3.3-2.6-3-4.5c0.2-1.7,1.2-3.1,2.3-4.4c0.3-0.4,1-0.5,1.4-0.2
			c0.4,0.3,0.5,1,0.2,1.4c-0.9,1.1-1.7,2.2-1.8,3.4c-0.1,1,0.4,2.2,1.3,2.3c0.5,0.1,1.1-0.2,1.8-0.5c1-0.5,2-1,3.1-1.5
			c3.8-2,7.7-4,12.1-4.3c0.6,0,1.3,0,1.9,0c1.1,0,2.2,0,3.2-0.2c1.2-0.2,2.7-1,3.1-2.4c0.3-1.1-0.2-2.3-0.8-3.5
			c-0.2-0.5-0.1-1.1,0.4-1.3c0.5-0.2,1.1-0.1,1.3,0.4c0.7,1.5,1.4,3.2,1,4.9c-0.6,2.2-2.8,3.5-4.6,3.8c-1.2,0.2-2.4,0.3-3.6,0.3
			c-0.6,0-1.2,0-1.8,0c-4,0.3-7.7,2.2-11.3,4c-1,0.5-2.1,1.1-3.1,1.6C92.8,367.9,92,368.2,91.1,368.2z"/>
	</g>
	<g>
		<path class="st2" d="M87.3,376c-0.9,0-1.6-0.3-2.1-0.8c-0.6-0.7-0.8-1.6-0.5-2.8c0.6-2.4,2-4.6,4-6c0.4-0.3,1.1-0.2,1.4,0.2
			c0.3,0.5,0.2,1.1-0.2,1.4c-1.6,1.1-2.8,2.9-3.2,4.8c-0.1,0.6-0.1,0.9,0,1c0.1,0.1,0.4,0.2,0.9,0.1c1.8-0.1,3.3-1.1,5-2.1
			c0.7-0.4,1.5-0.9,2.3-1.3c3.8-1.9,8.1-2.2,12.3-2.5c1.4-0.1,2.9-0.2,4.3-0.4c1.3-0.1,2.6-0.4,3.3-1.2c1.3-1.4,0.8-3.9,0.2-5.7
			c-0.2-0.5,0.1-1.1,0.6-1.3s1.1,0.1,1.3,0.6c1.2,3.5,1,6.2-0.6,7.8c-1.2,1.2-2.9,1.6-4.5,1.8c-1.5,0.2-2.9,0.3-4.4,0.4
			c-4.1,0.3-8.1,0.6-11.6,2.3c-0.7,0.4-1.4,0.8-2.2,1.2c-1.8,1-3.7,2.1-5.9,2.3C87.6,376,87.4,376,87.3,376z"/>
	</g>
	<g>
		<path class="st2" d="M86.4,376.7c-4.4,3.2-8,8.4-8.4,14l-0.5-0.9c8.8,3.5,18.9,1,26.8-3.8c8-5,15.1-11.7,20.2-19.7
			c2.6-4.1,4.3-8.8,7.1-12.9c0.8-1.2,2.6-3.4,3.6-4c3.4-3.1,6.6-6.8,8.7-10.9c0.9-1.6,1-3.4-0.1-4.8l-0.4-0.7
			c-0.6-0.9-1.1-1.9-1.6-3c-0.2-0.5,0-1.1,0.5-1.4c0.4-0.2,0.7-0.1,1,0.1c0.9,0.7,1.8,1.4,2.6,2.1c3.8,3.2,3.3,7.2,0.9,11
			c-2.5,4.1-5.5,7.5-9,10.7c-4.6,4-6.6,10.7-9.9,15.8c-9.6,14.3-28,28.8-46.3,24.8c-1.9-0.4-3.7-1-5.5-2c-0.1-5,1.7-10,4.9-13.9
			c1-1.3,2-2.4,3.4-3.5c0.8-0.6,1.9-0.5,2.5,0.2C87.5,374.9,87.3,376.1,86.4,376.7"/>
	</g>
	<g>
		<path class="st2" d="M78,390.8c-0.2,3.5,0.3,7.4,2.4,10.3c0.7,0.8,1.5,1.5,2.5,1.9l-0.4-0.1c13,1.3,27.1-2,37.3-10.3l1.7-1.4
			l1.6-1.5c6.2-6,11.7-13.8,13.8-22.1c1.2-3,3.6-7,5.7-8.2c3.6-3,7.1-6.8,8.4-11.4c0.4-1.5,0.4-3,0.2-4.5l0.1,0.2l-5.8-8.2
			c-0.8-1,0.9-2.2,1.6-1.1l5.8,8.2l0.1,0.1c3.1,7.5-2.6,15-8.1,19.7c-0.4,0.3-0.9,0.6-1.3,1.2c-1.2,1.5-2.2,3.4-3.1,5.2l0.1-0.3
			c-0.8,3.2-2,6.2-3.5,9c-3.4,6.3-7.8,11.9-13.1,16.7c-1.8,1.4-3.8,3.1-5.8,4.3c-10.8,6.9-23.8,9.4-36.5,7.6l-0.3,0l-0.2-0.1
			c-2.7-1.5-4.5-4.2-5.2-7.1c-0.7-2.8-0.7-5.5-0.3-8.2c0.1-0.5,0.6-0.9,1.1-0.8C77.7,389.8,78.1,390.3,78,390.8"/>
	</g>
	<g>
		<path class="st2" d="M244.7,285.2c1,15.6-13.6,25.5-26.9,30.1c-1.6,0.5-3.2,1.1-4.9,1.4c-11,2.4-22.5,3-33.6,1.1
			c-4.2-0.8-8.6-1.9-12.5-3.6c-3.1-1.3-6.4-2.9-9-5c-1-0.9-2.3,0.6-1.3,1.5c2.1,1.9,4.4,3.3,6.8,4.6c3.5,1.9,7.5,3.4,11.4,4.6
			c0.7,0.2,3.3,0.8,4,1c1.5,0.4,3.9,0.7,5.4,1c2.5,0.3,5.6,0.6,8.1,0.7l2.7,0.1l2.7-0.1c5.2,0,11-0.8,16.2-1.7
			c1.9-0.3,3.7-0.8,5.4-1.4c13.2-4.1,26.9-13.3,29.9-27.1c-0.2-3.9-1-8.6-3.4-11.6C245,282.1,244.6,283.6,244.7,285.2z"/>
	</g>
</g>
<g id="cabeza">
	<g>
		<path class="st3" d="M114.4,56.8c0,0,6.6,30.5,23.8,41.3c0,0,7.1,5.1,16.8,0.9c0,0,27.7-23.7,28.3-16.4
			c-0.6-3.8,3.3-12.5,7.2-16.5c0,0,0.9-9.5-2.9-12.6c0,0-5.3-8.4-11.5-0.4c0,0,0.9,6.6-5.5,2.7c0,0-9.5-0.9-15.7-11.2l-2.6,4.6
			c0,0-1.1-6.8-8.6-7.1c0,0-6.8,0.7-8.6-2.7c0,0-2.2,14.7-16.7,13.3L114.4,56.8z"/>
	</g>
	<g>
		<path class="st7" d="M110.4,21.9c0,0,17.8-38.5,63.4-10.7c0,0,15.3,0.9,15.6,8.4c0,0-6.2-0.5,0.6,5.5c0,0,17.8,15,0.6,41l-4-2.8
			c0,0,7.4-8.4-3.3-13.5c0,0-6.5-1.3-8.2,7.1c0,0-10.4-0.4-18.5-11.6l-1.5-0.8c0,0-1.2,5.5-2.8,3.2c0,0-5.1-7.5-14.5-6l-2.5-2.2
			c0,0-0.8,14.8-14.4,13.5l-4.2,1.5c0,0-5.4,0.2-2.4,13.8c0,0-7.1,2.5-8.2-10.4c0,0-4.2,2.9-4.5-10.2l-0.2-4.4L97,44.8
			c0,0-5.4-0.2-0.2-6.4l4-7.8C100.8,30.6,108.6,21.8,110.4,21.9"/>
	</g>
	<g>
		<path class="st2" d="M115.7,56.3c4.6,17.9,16.5,50.1,40.3,40.5c6.3-2.8,12.3-8.3,14.7-14.8c0.4-1.2,2.2-0.7,1.9,0.5
			c-2.4,10.5-13.4,19.4-24.1,19.6c-18.3,0.4-27.4-19.3-32.1-34.2c-1.1-3.7-2.1-7.4-2.7-11.2c-0.1-0.5,0.3-1.1,0.8-1.2
			C115.1,55.5,115.6,55.8,115.7,56.3"/>
	</g>
	<g>
		<path class="st2" d="M124.5,36.4c2.6,5.9,0.3,13.5-4.7,17.6c-2.1,1.8-4.4,3.1-5.2,5.7c-0.7,2.3-0.1,5.2,0.4,8.1
			c0.1,0.6-0.3,1.1-0.8,1.2c-0.5,0.1-0.9-0.2-1.1-0.6c-1.3-2.9-2.4-6.1-1.7-9.5c0.6-3.4,3.7-5.8,6.1-7.6c4.3-3.5,6.4-9.1,5.9-14.6
			C123.3,36.1,124.2,35.8,124.5,36.4"/>
	</g>
	<g>
		<path class="st2" d="M135.6,31c-1.2,2.3-0.3,4.7,0,7.2c1.3,8.7-6.6,17.9-15.6,16.1c-1.1-0.2-1.1-1.8,0-2c6.9-1.4,13-6.7,13.1-14
			c0.1-1.2,0-2.6,0.2-4c0.2-1.4,0.7-2.9,1.8-3.8C135.4,30.4,135.8,30.7,135.6,31"/>
	</g>
	<g>
		<path class="st2" d="M135.3,37.4c1.8,3.7,5.5,3,9.1,3.4c4.3,0.2,9.6,3.3,9.6,8.3c-0.1,2.4-3.6,2.4-3.7,0c0.3-3.2-3.3-5.1-6.3-5.5
			c-1.9-0.4-3.8-0.3-5.8-1c-2.1-0.8-3.9-2.3-4.7-4.4C133,37.1,134.7,36.3,135.3,37.4"/>
	</g>
	<g>
		<path class="st2" d="M151.3,48.2c2.5-2.2,2.8-6.6,0.8-9.3c-0.4-0.5,0.3-1,0.7-0.7c3.3,3.1,3.8,8.5,1.1,12.3
			C152.3,52.6,149.4,50,151.3,48.2"/>
	</g>
	<g>
		<path class="st2" d="M174.4,59.1c-0.6-3.7,0.3-8.5,4.2-10.1c3.9-1.7,8.5,0.1,10.6,3.6c1.1,1.7,1.4,4,1,5.9
			c-1.2,5.2-7.3,10.5-12.9,8.9c-1.2-0.4-0.7-2.1,0.4-1.9c3.7,0.6,7.1-2.5,8.8-5.6c2.8-4.6-1.9-10.2-6.9-8.4
			c-2.5,0.8-3.4,4.3-3.2,7.3C176.4,60.2,174.6,60.3,174.4,59.1"/>
	</g>
	<g>
		<path class="st2" d="M113.4,70.5c-2.7-0.2-4.7-2.1-6-4.2c-3.3-5.5-3.4-12.7-0.2-18.2c0.3-0.5,1.1-0.1,0.9,0.4
			c-2.2,5.2-1.6,11.6,1.8,16c0.9,1.1,2.2,2.3,3.6,2.2C116.3,66.7,116.2,70.8,113.4,70.5"/>
	</g>
	<g>
		<path class="st2" d="M105.6,61.8c-6.6-4.1-7.9-18.7-2.1-23.8c0.4-0.4,1,0.2,0.7,0.6c-3,4.8-2.1,11.7-0.3,16.7
			c0.7,1.7,1.7,3.2,3.1,4.4C108.3,60.8,106.9,62.6,105.6,61.8"/>
	</g>
	<g>
		<path class="st2" d="M101.8,42.7c-1.1,1.2-2.6,2-4.2,2.6c-0.5,0.2-1.2,0.3-1.7,0.1c-1.9-0.5-2.7-3-1.4-4.5
			c1.9-2.2,2.5-5.1,3.7-8.3c1.2-3,2.9-6,5.6-8.3c1.3-1.1,2.9-2,4.5-2.5c1-0.4,5.8-1.1,5.5,0.5c-0.1,0.2-0.3,0.4-0.5,0.5
			c-5.9,1.1-9.5,5.8-11.9,11.1c-1.2,2.9-2.3,6.3-4.9,8.7c-0.3,0.1-0.2,0.6,0.1,0.7c0.1,0.1,0.2,0.1,0.3,0.1c1.5-0.2,3-0.7,4.4-1.4
			C101.7,41.8,102.1,42.4,101.8,42.7"/>
	</g>
	<g>
		<path class="st2" d="M110,21.5c1.4-6.4,6.4-11.4,11.8-14.7c10.9-6.6,24.6-8.7,36.8-5.2c6.1,1.8,11.9,4.9,16.4,9.2
			c0.4,0.4,0.4,1,0.1,1.4c-0.3,0.4-0.9,0.4-1.2,0.2c-5.2-3-10.6-5.3-16.3-6.6c-8.5-2-17.5-1.8-25.8,0.8c-8,2.6-16.6,7.1-19.8,15.4
			C111.5,23.2,109.7,22.7,110,21.5"/>
	</g>
	<g>
		<path class="st2" d="M174.4,10.5c6.4-1.5,13.2,2.2,16.6,7.6c0.1,0.1,0.2,0.4,0.3,0.5c0.4,0.6,0.4,1.6-0.2,2
			c-0.4,0.5-1.1,0.5-1.7,0.4c-0.5,0-1.1,0-1.6,0.1c-0.1,0-0.1,0-0.1,0c0.1,0,0.1-0.1,0.1-0.1c0,0,0-0.1,0-0.2l1,0.7
			c12.9,10.2,12.6,27.8,5.4,41.3c-1.8,3.5-4,6.8-6.4,9.8c-2,2.5-3.8,6.3-2.4,9.4c0.3,0.5,0.1,1.1-0.4,1.4c-1.7,0.7-2.1-2.5-2.3-3.6
			c-0.1-3.2,1.1-6.3,2.9-8.8c2.2-3.1,4.1-6.3,5.8-9.7c3.3-6.5,5.2-14,4.3-21.2c-0.7-5.8-3.4-11.4-7.7-15.4c-0.8-0.8-1.3-1.1-2.3-1.9
			c-0.7-0.7-1-1.9-0.7-2.8c0.6-2.2,3.3-2.3,5.2-2c-1.3-0.2-1.7,1.2-1.4,1.8c-2.8-4.9-8.4-8.5-14.1-7.6
			C173.5,12.6,173.2,10.8,174.4,10.5"/>
	</g>
	<g>
		<path class="st2" d="M155.7,43.8c3.9,3.6,7.9,8.5,13.2,10c1.6,0.4,3.3,0.4,5.1,0.3c2.9-0.2,3.2,4,0.3,4.3
			c-6.7,0.3-12.3-3.7-16.3-8.8l-3.8-4.5C153.5,44.2,154.8,42.9,155.7,43.8"/>
	</g>
	<g>
		<path class="st8" d="M140.4,57.2c0.6,3.2,4,1,6.1,1c1.6,0,8.6,2.6,5.3-0.8C149.6,55.1,139.8,53.9,140.4,57.2"/>
	</g>
	<g>
		<path class="st9" d="M118.2,65.2c-0.2,0.5-0.9,1.6-0.9,1.7c-0.3,4.8,4.2-0.8,5.3-1.7c1.6-1.3,5.4-1.6,3.3-4.6
			C124.1,58.1,119.1,63.4,118.2,65.2"/>
	</g>
	<g>
		<path class="st2" d="M137,68.6c0.7,1.9-0.2,3.7-0.9,5.3c-0.6,1.5-1.5,3.5-2.2,4.6c0-0.1,0-0.1-0.1-0.2c0.1,0.1,0.2,0.2,0.3,0.3
			c1.5,2,3.9,1.6,5.9,0.5c0.5-0.3,1,0.4,0.6,0.8c-2.4,2.9-6.5,2.9-8.8-0.2c-0.6-0.7-0.5-1.8,0-2.5c1.1-2.2,2.7-4.1,3.8-6.2
			c0.3-0.7,0.5-1.5,0.4-2.2C136,68.3,136.8,68.1,137,68.6"/>
	</g>
	<g>
		<path class="st2" d="M142.8,87.5c3.9,0,6-2.8,6.1-6.5c0-0.8,0.7-1.4,1.4-1.3c1.7,0.3,1.1,2,0.8,3.1c-0.7,2.6-2.7,5-5.3,5.6
			c-1,0.3-2,0.3-3.1,0.1c-0.3,0-0.5-0.3-0.4-0.6C142.3,87.6,142.5,87.4,142.8,87.5"/>
	</g>
	<g>
		<path class="st2" d="M123.6,72.7c1.4,0.4,2.8,0.5,4.1-0.2c0.5-0.2,0.9-0.5,1.5-0.7c0.3-0.2,0.6,0,0.8,0.3
			c-0.1,2.3-3.3,3.7-5.3,2.7c-0.6-0.3-2.3-1.3-1.5-2C123.2,72.7,123.4,72.7,123.6,72.7"/>
	</g>
	<g>
		<path class="st2" d="M145,67c1,0.1,2.2,0.2,3.1-0.2c1-0.4,1.5-1.1,2.1-2c0.2-0.3,0.5-0.3,0.8-0.1c0.1,0.1,0.2,0.3,0.2,0.4
			c0,0.7-0.2,1.4-0.6,2c-0.8,1.3-2.6,1.9-4.1,1.6c-0.6-0.2-2.5-0.6-2-1.5C144.6,67,144.8,67,145,67"/>
	</g>
</g>
</svg>
