<?xml version="1.0" encoding="utf-8"?>
<!-- Generator: Adobe Illustrator 28.2.0, SVG Export Plug-In . SVG Version: 6.00 Build 0)  -->
<svg version="1.1" id="Capa_1" xmlns="http://www.w3.org/2000/svg" xmlns:xlink="http://www.w3.org/1999/xlink" x="0px" y="0px"
	 viewBox="0 0 271.78 387.7" style="enable-background:new 0 0 271.78 387.7;" xml:space="preserve">
<style type="text/css">
	.st0{fill:#3B3926;}
	.st1{fill:#002346;}
	.st2{fill:#D39354;}
	.st3{fill:#F0D4B6;}
	.st4{fill:#2B4469;}
	.st5{fill:#285AA3;}
</style>
<g id="cabello">
	<path class="st0" d="M88.27,84.91c0,0-8.81,36.65-14.06,44.15c0,0-9.15,10.59,2.36,21.38c0,0,5.55,4.62,9.04,4.42
		c0,0,11.06,3.11,20.41-1.11c7.64-1.36,14.57-4.89,18.2-14.39c3.63-9.5-6.32-42.65-6.32-42.65s-18.85,11.43-28.2-10.36L88.27,84.91z
		"/>
	<path class="st1" d="M120.19,136.03c0,0-5.47,14.02-16.3,15.13c-10.84,1.12-18.43,0.72-21.63-0.49c-2.35-1.44-4.7-2.78-6.15-5.34
		c-4.5-6.73,0.01-13.96,3.36-20.25c2.96-5.63,12.46-35.6,8.47-41.38c-0.82-1.15-2.63-0.17-2.14,1.14
		c1.35,4.11-7.28,30.66-9.43,34.54c-3.4,5.87-9.61,13.3-8.44,21.41c0.65,5.14,3.83,9.79,8.43,12.12c1.15,0.56,4.43,2.6,9.18,3.48
		c6.39,1.19,14.78,1.15,18.03,0.69c6.9-0.99,20.96-12.02,21.88-16.82C126.35,135.47,121.45,134.24,120.19,136.03z"/>
</g>
<g id="cuerpo">
	<path class="st2" d="M120.88,140.37c0,0-19-1.45-33.79,13.35c0,0-13.36,8.63-18.91,43.78c0,0,1.03,1.64,4.11,1.85
		c0,0,16.24,0.41,21.17,9.66c0,0-6.17,16.85,5.75,28.77l17.47,19.94c0,0-4.11,9.04,0,15.83c0,0-8.84,8.22-2.88,18.09
		c0,0,44.6,5.76,87.76-2.47c0,0,28.77-7.81,31.65-7.4l-1.44-17.06c0,0-2.16-49.9-10.38-72.59c0,0-4.11-20.94-8.78-36.32
		c-3.48-3.89-7.61-7.62-12.49-10.89c0,0-16.18-9.45-33.16-8.85c0,0-0.75,19.51-18.83,29.99
		C148.13,166.05,113.77,181.48,120.88,140.37"/>
	<path class="st3" d="M75.04,198.95c0,0-2.43,49.52-13.59,81.08c0,0,18.21,4.13,25,10.68c0,0,12.87-6.8,17.48-47.58
		c0,0-11.41-15.05-10.92-21.12l0.73-15.78C93.73,206.24,80.62,197.74,75.04,198.95"/>
	<path class="st3" d="M107.98,334.58c0.08-0.53-24.06,7.54-40.4,5.21c0,0-9.88,3.77-10.42,12.75c0,0-1.97,14.72,14.55,14.54
		l41.84-9.34C113.55,357.75,106.19,346.97,107.98,334.58"/>
	<path class="st3" d="M165.73,363.65l26.21,8.92c0,0,11.85,2.51,15.06-5.3c0,0,3.9-10.88-1.25-16.45L165.73,363.65z"/>
	<path class="st4" d="M97.86,296.11c0,0,7.51-5.73,15.94-4.48c0,0,59.66,4.98,90.25-3.23l2.98,1.24c0,0,36.31-24.37,55.95,6.96
		c0,0,22.88,48.99-23.62,63.91c0,0-1.74-12.93-16.91-16.66c0,0-74.11,26.11-96.49,28.85c0,0-19.65-15.92-14.18-42.03l-8.21,5.22
		c0,0-20.64,7.21-30.84,1l-50.24-12.19c0,0-30.84-13.93-12.44-39.29C10.08,285.42,45.64,261.3,97.86,296.11"/>
	<path class="st5" d="M65.53,340.04c0.51-0.25-30.81-3.96-37.48,12.25c0,0-6.49,16.4,17.66,24.5c0,0,29.37,5.4,71.17-12.79
		l-3.33-6.25l-32.89,8.41c0,0-21.98,7.75-24.14-11.53C56.52,354.63,59.94,342.74,65.53,340.04"/>
	<path class="st5" d="M165.73,363.65l26.21,8.92c0,0,12.51,0.93,15.06-5.3c0,0,3.11-7.66-1.25-16.45l19.62-6.84
		c0,0,16.35,8.88,12.62,25.94c0,0-1.95,13.86-13.86,15.64c0,0-28.07-0.89-71.79-18.3L165.73,363.65z"/>
	<path class="st1" d="M120.89,141.84c-29.74,1.1-46.21,24.51-50.55,51.94l-0.3,1.72c-0.15,0.5,0.11,1.07,0.71,1.08
		c8.44,0.42,19.09,2.47,22.89,11.07c0.53,1.36-1.41,2.34-2.17,1.07c-3.59-5.54-11.13-6.97-17.43-7.51c-2.12-0.26-4.44,0.25-6.3-1.09
		c-1.62-1.1-2.5-3.14-2.21-5.08l0.04-0.24l0.32-1.79c3.63-23.09,16.72-45.65,40.6-51.92c4.74-1.27,9.56-1.96,14.57-1.67
		c0.67,0.04,1.18,0.61,1.14,1.28C122.15,141.39,121.56,141.89,120.89,141.84"/>
	<path class="st1" d="M93.35,190.2c1.09,9.34,1.56,18.62,1.83,27.96c-0.14,5.07,1,10.22,4.26,14.22
		c9.16,11.81,17.9,23.9,26.24,36.33c0.21,0.29-0.21,0.7-0.49,0.42c-5.6-5.07-10.61-10.65-15.54-16.28
		c-4.91-5.65-9.67-11.42-14.27-17.3c-3.22-4.06-5.06-9.31-4.96-14.51c0.24-10.3,0.69-20.6,1.87-30.85
		C92.36,189.59,93.29,189.55,93.35,190.2"/>
	<path class="st1" d="M233.37,264.22c0.45,5.5,0.13,11.26,2.34,16.36c0.29,0.61,0.02,1.34-0.6,1.63c-1.71,0.74-3.56-3.09-4.18-4.25
		c-1.97-4.26-2.71-9.03-2.67-13.63c0.03-1.41,1.19-2.53,2.6-2.51C232.21,261.84,233.29,262.9,233.37,264.22z"/>
	<path class="st1" d="M239.13,359.72c14.95-5.47,26.19-16.18,26.87-32.72c0.36-14.27-4.08-30.91-16.71-39.05
		c-8.35-5.31-19.69-5.04-28.74-1.4c-0.83,0.31-2.47,0.94-3.29,1.28c-24.98,10.2-53.36,22.39-78.27,33.14
		c-9.03,3.96-18.08,7.87-27.08,11.9l1.4-1.63c-0.26,7.14-0.1,14.43,2.13,21.29c0.7,2.55,2,5.19,3.13,7.59
		c1.24,2.38,2.9,4.86,4.46,7.05c0.4,0.67,1.27,1.58,1.76,2.2c0.61,0.72,1.2,1.47,1.8,2.21c0.5,0.51,0.46,1.35-0.1,1.79
		c-0.46,0.37-1.1,0.36-1.54-0.01c-1.52-1.26-3.1-2.5-4.53-3.9c-5.14-4.94-9-11.15-11.27-17.94c-2.33-7.31-3.04-15.48-0.12-22.73
		c0,0,0.97-0.4,0.97-0.4l27.34-11.3c25.76-10.69,54.51-23.14,80.16-33.69c20.49-8.81,42.28-4.1,50.7,19.32
		c6.66,18.84,4.95,41.32-13.3,52.88c-4.69,2.99-9.81,5.06-15.04,6.43c-0.65,0.17-1.31-0.22-1.48-0.87
		C238.23,360.55,238.56,359.93,239.13,359.72"/>
	<path class="st1" d="M125.89,371.42c23.42-6.19,46.78-12.83,69.73-20.56c11.42-3.86,22.8-7.99,33.81-12.84
		c5.49-2.36,10.68-5.28,16.09-7.78c2.7-1.23,5.31-2.63,7.68-4.35c2.31-1.69,4.6-3.64,5.73-6.32c0.1-0.27,0.41-0.4,0.68-0.3
		c0.23,0.09,0.36,0.33,0.33,0.57c-0.54,3.22-2.63,5.94-4.81,8.24c-2.21,2.29-4.63,4.32-7.12,6.25c-4.98,3.78-10.77,6.11-16.4,8.65
		c-22.54,9.6-46.02,16.29-69.62,22.5c-11.79,3.04-23.62,5.83-35.55,8.3c-0.66,0.13-1.29-0.29-1.43-0.95
		C124.88,372.2,125.27,371.58,125.89,371.42"/>
	<path class="st1" d="M117.63,258.57c0.36,1.96,0.09,4.1-0.01,5.99c-0.05,1.65-0.19,3.7-0.07,5.29c0.32,3.68,3,6.21,4.13,9.8
		c0.1,0.23-0.16,0.48-0.38,0.36c-3.77-2.01-7.74-5.07-8.26-9.64c-0.54-4.21,0.68-8.18,2.19-12
		C115.62,257.19,117.43,257.34,117.63,258.57"/>
	<path class="st1" d="M220.13,285.19c-15.35,5.05-32.65,8.33-48.2,8.68c-12.83,1.35-25.63,2.16-38.55,1.95
		c-5.7-0.14-11.54-0.41-17.14-1.61l-1.24-0.27c-5.1-1-6.72-7.35-5.65-11.63c0.78-3.6,2.9-6.94,6.01-8.84
		c0.66-0.4,1.52-0.19,1.92,0.46c0.34,0.56,0.24,1.25-0.19,1.7c-2.91,3.36-4.68,8.72-2.33,12.65c0.48,0.71,0.8,0.83,1.45,0.95
		c1.1,0.23,2.19,0.57,3.31,0.72c2.94,0.51,6.27,0.88,9.27,1.06c14.22,0.88,28.59,0.27,42.81-0.63c12.18,0.14,24.35-1.34,36.31-3.64
		c3.98-0.8,7.96-1.66,11.87-2.69c0.32-0.09,0.65,0.1,0.74,0.42C220.6,284.79,220.43,285.1,220.13,285.19"/>
	<path class="st1" d="M129.33,323.07c-26.66-23.49-71.23-53.03-107.96-40.33c-14.12,5.69-20.51,19.55-8.85,31.48
		c3.41,3.31,7.93,5.2,12.36,7.02c19,7.36,39.15,12.33,58.97,17.32c1.45,0.36,1.07,2.59-0.48,2.37c-15.33-2.45-30.59-5.55-45.59-9.67
		c-5.02-1.37-10-2.9-14.96-4.71c-5.11-1.91-10.41-3.99-14.53-7.86c-4.87-4.47-8.03-10.86-8.29-17.52
		c-0.48-14.51,13.82-24.79,26.86-26.99c29.39-5.4,58.12,9.09,81,26.29c8.28,6.36,16.12,13.2,23.2,20.9
		C132.03,322.5,130.51,324.14,129.33,323.07"/>
	<path class="st1" d="M77.89,201.37c-2.66,25.97-6.22,51.87-12.58,77.22c-0.34,1.32-1.68,2.11-2.99,1.77
		c-1.33-0.34-2.12-1.7-1.77-3.03c4.87-18.74,8-37.93,10.58-57.12c0.85-6.42,1.62-12.87,2.27-19.29
		C73.76,198.02,78.09,198.39,77.89,201.37"/>
	<path class="st1" d="M105.04,243c-1,8.02-2.34,15.93-4.14,23.81c-2.08,8.22-3.81,16.09-8.85,23.4c-2.53,3.29-7.47-0.28-5.1-3.71
		c2.31-2.61,4.14-6.15,5.7-9.82c3.08-7.19,5.33-14.85,7.31-22.45c0.98-3.85,1.9-7.74,2.69-11.62
		C102.96,241.12,105.2,241.46,105.04,243"/>
	<path class="st1" d="M97.6,294.35c1.96-3.53,6.2-4.97,10.03-5.02c1.98-0.04,4.14,0.68,5.86,0.37c0.67-0.1,1.29,0.36,1.39,1.03
		c0.01,2.57-5.3,2.38-7.01,2.67c-3.11,0.38-5.65,1.76-8.66,2.76C98.14,296.62,97.02,295.36,97.6,294.35"/>
	<path class="st1" d="M150.08,365.57c12.92,4.17,25.9,8.58,38.93,12.24c11.01,3.72,31.47,9.76,41.58,2.35
		c4.75-4,6.67-12.83,5.78-18.76c-1.01-7.1-6.15-12.67-12.04-16.56c-1.34-0.83-0.14-2.85,1.23-2.09
		c11.63,5.89,17.76,17.2,13.92,30.05c-3.68,14.77-16.68,16-29.6,14.31c-11.35-1.48-21.26-5.65-31.81-8.91
		c-9.68-3.23-19.26-6.73-28.8-10.36C147.87,367.29,148.56,365.11,150.08,365.57"/>
	<path class="st1" d="M164.47,361.9c3.92,1.19,9.69,3.01,13.66,4.27c0.02-0.02,14.05,4.58,13.47,4.38
		c6.09,1.36,14.18,0.47,14.77-6.96c0.18-2.94,0.23-6.08-0.36-8.93c-0.29-1.29-0.76-2.42-1.5-3.01c-1.24-0.8-0.28-2.7,1.08-2.17
		c4.79,2.34,4.76,9.81,4.61,14.37c-0.29,3.36-1.98,6.7-4.85,8.58c-4.43,2.84-9.78,2.67-14.72,1.6c-0.07-0.01-13.46-4.86-13.53-4.87
		c-3.9-1.47-9.57-3.49-13.42-4.99C162.27,363.63,162.97,361.48,164.47,361.9"/>
	<path class="st1" d="M109.98,334.72c-15.69,8.15-31.38,7.51-48.26,7.23c-7.75,0.07-15.67,0.73-22.64,4.11
		c-6.01,2.64-11.82,9.18-8.73,15.57c5.65,8.89,18.47,14,28.79,13.83c3.74,0,7.55-0.62,11.42-1.47c15.62-3.29,31.02-8.65,47.17-11.51
		c1.42-0.26,2.03,1.88,0.58,2.35c-7.67,2.55-15.26,5.27-22.95,7.92c-5.78,1.95-11.64,3.86-17.56,5.44
		c-6.11,1.63-12.1,3.17-18.62,3.24c-8.73,0.05-17.39-2.64-24.59-7.56c-4.63-3.27-9.53-7.36-10.57-13.39
		c-1.47-8.68,5.49-16.26,12.79-19.27c15.48-7.01,33-2.47,49.08-3.33c7.88-0.44,15.71-2.3,23.06-5.37
		C110.35,331.95,111.37,333.99,109.98,334.72"/>
	<path class="st1" d="M69.25,341.36c-4.97,0.14-8.89,4.39-10.28,8.93c-1.48,4.6,0.41,9.92,4.15,12.81
		c5.51,4.16,13.04,2.21,19.37,0.6c10.14-2.54,21.32-5.3,31.48-7.52c0.65-0.14,1.3,0.27,1.44,0.92c0.14,0.63-0.24,1.25-0.85,1.43
		c-6.91,1.99-13.86,3.87-20.81,5.7c-6.42,1.48-14.74,4.36-21.39,4.61c-13.65,1.04-22.02-13.66-13.4-24.6
		c2.45-3.1,6.22-5.35,10.27-5.31c0.67,0,1.21,0.54,1.21,1.21C70.44,340.81,69.9,341.35,69.25,341.36"/>
	<path class="st1" d="M228.27,264.32l5.1-0.11c0,0,0.67-27.31-3.76-54.9c-4.27-26.61-10.78-26.14-5.95,2.11
		C227.67,234.85,227.06,258.15,228.27,264.32z"/>
	<g>
		<path class="st3" d="M119.65,132.52c0,0,0,7.09,1.88,10.84c0,0-9.38,24.38,15.42,25.22c0,0,21.88,0.42,28.35-23.14l1.67-9.38
			c0,0-13.13-6.25-10.21-27.1c0,0,1.04,1.49,1.04-11.46S110.74,96.15,119.65,132.52z"/>
		<path class="st1" d="M158.61,98.06c-0.49,12.09-1.41,29.32,9.64,37.07c1.21,0.78,0.26,2.67-1.09,2.16
			c-11.15-4.45-13.37-18.41-12.69-28.99c0.24-3.62,0.76-7.17,1.76-10.69c0.18-0.65,0.86-1.02,1.5-0.84
			C158.31,96.92,158.67,97.48,158.61,98.06"/>
		<path class="st1" d="M122.2,133.15c0.2,8.51,3.16,17.31,9.32,23.38c0.23,0.21,0.24,0.57,0.02,0.78c-0.19,0.19-0.49,0.2-0.7,0.05
			c-1.84-1.38-3.61-2.93-5.11-4.73c-4.57-5.52-7.57-12.37-8.62-19.47l-0.05-0.68c-0.1-1.46,1-2.72,2.45-2.82
			C121.36,129.48,122.11,131.23,122.2,133.15z"/>
		<path class="st1" d="M121.79,141.48c-1.97,13.43,0.6,27.18,17.26,25.13c15.66-2.74,24.41-15.93,27.12-30.79
			c0.11-0.7,0.79-1.18,1.49-1.01c0.61,0.15,0.99,0.73,0.91,1.33c-0.25,1.84-0.5,3.68-0.79,5.53c-0.45,1.81-0.9,3.64-1.42,5.45
			c-0.34,0.92-1.2,3.1-1.54,3.97c-0.37,0.84-1.54,2.95-1.98,3.81c-0.7,1.18-1.66,2.41-2.43,3.57c-5.24,6.66-13.02,11.4-21.47,12.57
			c-16.13,1.47-22.75-9.93-20.64-24.61c0.25-1.88,0.59-3.68,1.14-5.54c0.19-0.64,0.86-1.01,1.51-0.82
			C121.55,140.25,121.91,140.87,121.79,141.48"/>
		<g>
			<path class="st1" d="M167.5,134.99c-1.59,0.08-1.47,2.41,0.02,2.42c3.55,0.06,7.25,0.51,10.8,1.25
				c7.07,1.39,13.91,3.99,20.12,7.62c3.96,2.35,7.63,5.18,10.94,8.37c0,0,1.03,0.67,2.2-0.2c1.17-0.88,1.01-1.55,1.01-1.55
				C200.9,141.15,184.2,134.39,167.5,134.99z"/>
		</g>
		<path class="st1" d="M122.19,113.9l0,19.25h-5.09c0,0-1.74-15.23,0.81-19.25C120.47,109.87,122.19,113.9,122.19,113.9z"/>
	</g>
</g>
<g id="braso_00000050626065677288208920000001666953981883581882_">
	<path class="st2" d="M210.88,153.75c0,0,9.11,9.4,11.91,18.01c2.8,8.61,6.07,16.41,6.07,16.41s-12.9-0.54-17.98,1.61
		c-5.08,2.16-21.45,12.46-21.45,12.46L210.88,153.75z"/>
	<path class="st3" d="M143.81,179.98c0,0-1.51-10.8,7.96-13.55c0,0,11.21-3.72,9.02,5.59c0,0-6.58,7.97-3.62,16.42
		c0,0,5.17,8.53,4.23,11.06c0,0,21,19.64,37.63,22.24l-6.02-23.91c0,0,8.99-13.85,35.63-9.55c0,0,11.01,27.66,8.89,60.34
		c0,0-10.02,24.05-25.82,17.04c0,0-42.31-9.78-65.14-51.31c0,0-11.97,0.96-19.06-6.44c0,0-9,3.79-13.26-1.3c0,0-4.78-5.11,0.2-11.08
		c0,0-5.62-5.31,0.19-10.57c0,0-5.23-11.94,9.78-11.95C124.43,173.02,136.03,172.9,143.81,179.98"/>
	<path class="st1" d="M161.89,199.17c16.26,11.11,33.87,22.58,54.02,24c0.57,0,0.68,0.9,0.11,1.02
		c-15.67,3.56-31.37-4.4-43.93-13.12c-4.21-3.04-8.2-6.31-11.81-10.1c-0.46-0.49-0.44-1.25,0.04-1.72
		C160.76,198.85,161.43,198.82,161.89,199.17"/>
	<path class="st1" d="M194.13,197.51l7.96,23.58c0.91,2.93-3.35,4.37-4.41,1.49c-0.11-0.29-5.79-24.11-5.88-24.39
		C191.46,196.7,193.62,196.07,194.13,197.51"/>
	<path class="st1" d="M228.1,190.47c-12.16-2.95-24.66,2.57-34.71,9.21c-1.51,0.9-2.12,1.83-3.97,2.56
		c-2.73,0.97-5.85-1.1-6.16-3.92c0,0-0.14-0.7-0.14-0.7c-2.61-13.29-1.44-27.57,4.07-39.93c0.19-0.4,0.84-0.22,0.73,0.25
		c-3.21,13.01-3.6,26.47-0.58,39.47c0.09,0.54,0.22,0.93,0.77,0.81c2.4-1.75,5.04-3.62,7.69-5.04c9.82-5.46,22.06-9.19,33.04-5
		C230.24,188.74,229.57,190.85,228.1,190.47"/>
	<path class="st1" d="M145.44,182.42c-3.66-1.96-7.16-3.89-10.99-4.96c-3.81-1.08-7.71-1.5-11.6-1.48c-2.72,0.1-5.29,0.06-6.86,2.08
		c-1.3,1.95-0.85,4.83,1.46,5.91c1.57,0.85,3.66,1.33,5.39,0.68c0.24-0.09,0.52,0.03,0.61,0.27c0.08,0.21,0.01,0.43-0.16,0.56
		c-0.97,0.7-2.15,0.99-3.29,1.04c-5.75,0.42-9.77-4.89-7.06-10.24c1.88-3.55,6.21-4.36,9.79-4.5c8.63-0.35,17.78,3.22,23.49,9.71
		C146.62,181.99,146,182.74,145.44,182.42"/>
	<path class="st1" d="M116.83,185.95c-4.48,2.81-3.49,8.32,1.85,9.06c1.67,0.35,3.48,0.5,5.04-0.01c0.32-0.1,0.66,0.08,0.77,0.4
		c0.08,0.25-0.01,0.52-0.21,0.67c-0.87,0.66-1.88,1-2.87,1.2c-6,1.24-12.26-2.26-10.29-9.07c0.8-2.25,2.68-3.94,4.85-4.5
		c0.65-0.17,1.32,0.22,1.49,0.87C117.59,185.13,117.32,185.69,116.83,185.95"/>
	<path class="st1" d="M115.94,196.25c-1.71,2.19-2.37,5.43-1.43,8.09c1.14,2.57,4.15,3.27,6.88,3.42c1.8,0.2,3.65-0.52,5.33-0.41
		l0.93,0.14c0.6,0.09,1.01,0.65,0.92,1.25c-1.09,2.98-4.84,2.95-7.43,2.84c-3.71-0.29-8.21-2.22-9.55-6.16
		c-1.12-3.68-0.05-7.92,2.52-10.77C115.18,193.54,116.9,195.04,115.94,196.25"/>
	<path class="st1" d="M124.71,205.05c4.77,3.13,8.98,6.86,14.9,7.2c1.9,0.25,3.89,0.49,5.83,0.95c0.66,0.15,1.06,0.81,0.91,1.47
		c-0.13,0.56-0.64,0.94-1.2,0.94c-4.05-0.11-8.16,0.03-12.04-1.73c-1.98-0.92-3.62-2.27-5.08-3.68
		C127.61,209.79,122.72,204.54,124.71,205.05"/>
	<path class="st1" d="M143.58,180.78c-1.44-5.34,1.3-11.26,6.05-13.99c3.26-1.87,9.91-3.81,12.27,0.38
		c1.61,3.58-0.37,7.42-2.52,10.23c-3.05,4.48-2.29,9.96,0.3,14.49c0.63,1.29,4.11,8.82,1.04,9c-0.63,0-1.14-0.49-1.2-1.1
		c-0.43-3.47-2.98-6.63-4.4-10.01c-2.29-5.24-1.1-11.54,2.73-15.75c1.5-1.93,3.23-6.53-0.48-6.71c-7.14-0.62-14.07,5.79-12.57,13.17
		C144.98,181.28,143.79,181.55,143.58,180.78"/>
	<g>
		<path class="st1" d="M236.12,211.25c-1.78-7.38-3.83-14.63-6.42-21.79c-1.21-6.25-3.7-14.73-6.85-21.22
			c-2.53-5.68-6.01-10.82-10.2-15.31c-1.31-1.37-4.41,0.16-3.28,1.65c4.3,4.43,7.95,9.51,10.78,15c3.33,6.45,5.66,13.46,6.96,20.66
			c5.7,18.47,12.36,46.46,4.39,64.53c-2.89,6.12-8.75,9.57-15.35,9.57c-2.47-0.1-5.1-0.65-7.47-1.38c-3.37-0.94-6.74-2.39-9.92-3.88
			c-1.19-0.63-3.58-1.93-4.78-2.54c-5.42-3.18-10.82-6.98-15.72-10.97c-11.51-9.22-21.61-20.25-31.39-31.58
			c-0.4-0.48-1.1-0.59-1.63-0.22c-0.55,0.38-0.69,1.14-0.3,1.69c5.34,7.71,11.12,15.44,17.48,22.36l3.85,4.21
			c2.48,2.3,5.7,5.8,8.32,7.88c5.69,5.02,12.11,9.84,18.77,13.48c7.99,4.19,17.8,8.59,27.57,6.57
			C246.19,263.89,240.53,230.16,236.12,211.25z"/>
	</g>
</g>
<g id="cabeza">
	<path class="st3" d="M97.55,31.44c0,0-6.67,11.05-12.71,14.8c0,0-18.76,23.97-2.5,66.07c0,0,7.29,22.3,37.31,20.22
		c0,0,9.11-1.93,15.94-9.34c6.83-7.41,22.21-17.08,22.21-25.68c-0.35-1.51,11.46,1.25,13.13-5.42c0,0,7.92-14.17-7.09-20.22
		c0,0-13.13,1.25-22.09-11.67c0,0-24.8,3.96-32.31-15.42C109.43,44.77,104.22,32.27,97.55,31.44"/>
	<path class="st0" d="M76.88,70.25c0.11,0.67-19.09-11.76-10.57-33.58c0,0,7.5-22.84,29.32-26.25c0,0,48.75-24.38,79.61,10.06
		c0,0,20.63,35.97,24.04,59.15c0,0,6.14,15.51,11.59,20.8c0,0,16.71,26.08-3.75,40.74l-6.99,3.75c0,0-15.36-9.35-33.16-8.85
		c0,0-19.12-11.13-9.17-38.56c0,0,11.48,2.58,13.53-6.63c0,0,6.48-10.74-5.63-18.75c0,0-16.36-2.22-22.67-10.4
		c0,0-29.66-0.34-36.82-20.8c0,0-3.75-8.35-7.5-9.89c0,0-10.23,12.79-13.13,13.64C85.57,44.68,75.17,59.85,76.88,70.25"/>
	<path class="st1" d="M75.79,70.51c-1.36-4.37-0.58-9.21,0.59-13.46c1.08-4.41,3.68-8.67,6.68-12.01
		c5.7-6.52,12.84-11.27,16.47-19.21c0.34-0.83,1.65-0.43,1.43,0.47c-2.08,8.68-9.39,14.88-14.6,21.49
		c-1.19,1.57-2.42,3.28-3.34,5.02c-1.87,3.49-2.62,7.71-3.71,11.48c-0.49,1.98-0.84,3.94-1.1,6.02
		C78.05,71.59,76.15,71.75,75.79,70.51"/>
	<path class="st1" d="M75.33,71c-19.86-12.99-14.2-42.68,3.04-55.42c5.75-4.3,12.71-6.87,19.63-7.17c1.34-0.06,1.77,1.86,0.51,2.35
		c-6.05,2.08-11.94,4.77-16.79,9c-9.37,7.99-15.42,20.66-13.68,33.06c0.81,6.11,4.04,12.06,8.63,16.16
		C77.9,69.88,76.66,71.8,75.33,71"/>
	<path class="st1" d="M98.51,30.39c4.15,1.64,7.5,4.94,9.46,8.93l0.81,1.49c7.19,12.77,18.85,18.13,33.16,19.05
		c0.84,0.03,1,1.3,0.17,1.52c-17.07,4.9-32.63-5.99-37.96-22.18c-1.3-3.06-3.52-5.7-6.17-7.75C97.4,31.08,97.85,30.13,98.51,30.39"
		/>
	<path class="st1" d="M137.34,52.85c7.43,8.88,17.18,16.11,29.12,16.46c-1.24,0.06-1.96,1.8-0.72,2.65c-1.42-1-2.81-2.1-4.05-3.3
		c-3.69-3.5-6.55-7.84-8.17-12.54c-0.33-0.92,0.99-1.54,1.49-0.7c3.33,5.41,7.73,9.83,13.06,13.06c1.63,1.01,1.69,3.63-0.04,4.7
		c-0.44,0.3-1.06,0.45-1.56,0.44c-5.32,0.1-10.69-1.04-15.45-3.44c-6.74-3.43-13-9.26-14.59-16.89
		C136.32,52.78,137.01,52.44,137.34,52.85"/>
	<path class="st1" d="M89.75,17.21C95.9,4.3,117.04,0.67,129.98,0.09c15.36-0.79,31.39,3.58,43.06,13.96
		c8.03,6.65,12.33,16.61,16.08,26c3.66,9.24,6.88,18.56,9.87,27.95c3.07,9.1,4.98,18.66,10.4,26.63c2.73,4.14,6.14,8.21,7.91,12.91
		c3.99,9.64,3.56,21.77-3.5,29.88c-3.4,4.04-7.94,6.75-12.57,8.68c-1.44,0.55-2.37-1.5-1-2.21c4.28-2.1,8.19-4.93,10.96-8.58
		c5.7-7.35,5.52-17.74,1.78-25.92c-1.29-3.07-3.58-6.18-5.65-8.8c-3.93-4.96-7.18-10.75-9.17-16.76
		c-4.82-13.91-9.26-27.89-14.83-41.43c-2.85-6.52-5.3-13.14-9.7-18.68c-10.48-12.81-27.45-18.08-43.6-18.24
		c-12.08-0.23-32.12,1.5-39.57,12.12C90.24,18,89.54,17.65,89.75,17.21"/>
	<path class="st1" d="M158.61,98.06c-0.49,12.09-1.41,29.32,9.64,37.07c1.21,0.78,0.26,2.67-1.09,2.16
		c-11.15-4.45-13.37-18.41-12.69-28.99c0.24-3.62,0.76-7.17,1.76-10.69c0.18-0.65,0.86-1.02,1.5-0.84
		C158.31,96.92,158.67,97.48,158.61,98.06"/>
	<path class="st1" d="M77.99,70.95c-2.24,22.14,2.41,54.94,29.12,58.77c9.49,1.2,18.75-1.94,26.51-7.44
		c3.95-2.76,7.51-6.15,10.89-9.88c0.16-0.18,0.44-0.2,0.62-0.03c0.15,0.13,0.18,0.35,0.11,0.52c-4.35,9.24-12.56,17.06-22.87,20.37
		c-9.66,3.01-20.5,1.18-28.89-4.35c-14.01-9.33-18.16-27.2-18.62-43.02c-0.12-5.1,0.07-10.15,0.74-15.26
		c0.09-0.66,0.7-1.13,1.36-1.04C77.62,69.66,78.09,70.29,77.99,70.95"/>
	<path class="st1" d="M150.76,76.18c4.35-4.54,12.49-8.24,18.29-3.92c3.29,2.57,5.66,6.23,6.21,10.5
		c0.51,5.65-1.85,11.53-6.59,14.71c-4.53,3.22-11.8,2.21-14.79-2.48c-0.15-0.22,0.13-0.49,0.35-0.36c1.05,0.63,3.22,1.37,3.22,1.37
		s2.2,0.38,3.27,0.34c6.47-0.24,10.74-7.16,10.29-13.12c-0.22-3.07-2.01-6.06-4.29-8.19c-2.38-2.12-5.78-1.75-8.88-0.95
		c-2.21,0.63-4.38,1.61-6.32,2.96C150.99,77.44,150.29,76.66,150.76,76.18"/>
	<path class="st1" d="M162.4,81.62c-1.55,0.49-2.64,2.42-2.18,3.92c0.33,1.28,1.98,2.34,3.21,1.99c2.14-0.54,3,2.62,0.88,3.24
		c-1.64,0.3-3.36-0.38-4.47-1.37c-3.33-2.7-1.89-8.27,2.29-8.97C162.86,80.32,163.1,81.4,162.4,81.62"/>
	<g>
		<path class="st1" d="M167.5,134.99c-1.59,0.08-1.47,2.41,0.02,2.42c3.55,0.06,7.25,0.51,10.8,1.25
			c7.07,1.39,13.91,3.99,20.12,7.62c1,0.51,4.08-0.4,4.52-1.22C192.55,138.23,180.03,134.54,167.5,134.99z"/>
	</g>
	<g>
		<path class="st1" d="M122.16,81.59c-1.98-1.4-5.15-4.55-7.41-2.44c-0.62,0.6-1.19,1.52-1.74,2.51c-0.33,0.63-1.11,0.86-1.73,0.52
			c-0.5-0.28-0.74-0.84-0.62-1.37c0.41-2.02,1.71-4.42,3.95-5.22c2.29-0.86,4.91,0.48,6.37,1.94c0.66,0.7,3.41,3.43,2.05,4.17
			C122.73,81.86,122.39,81.8,122.16,81.59"/>
		<path class="st1" d="M90.56,80.6c-1.32-0.88-2.91-2.08-4.48-1.26c-0.64,0.26-1.19,0.84-1.82,1.2c-0.58,0.37-1.35,0.19-1.72-0.39
			c-0.24-0.39-0.25-0.86-0.05-1.24c0.68-1.42,1.84-2.58,3.41-3.05c1.6-0.47,3.52,0.09,4.71,1.04c1.02,0.83,3.11,2.69,1.46,3.87
			C91.57,81.07,90.98,80.94,90.56,80.6"/>
		<path class="st1" d="M128.01,76.68c-1.85-3.64-4.85-6.49-8.69-7.87c-0.57-0.23-1.18-0.4-1.78-0.68c-0.24-0.11-0.34-0.39-0.23-0.63
			c0.07-0.16,0.22-0.26,0.38-0.27c0.65-0.07,1.32-0.1,1.99-0.06c4.79,0.28,9.29,4.41,9.25,9.36
			C128.93,77.03,128.19,77.15,128.01,76.68"/>
		<path class="st1" d="M77.68,74.79c-0.04-5.68,5.78-10.11,11.24-9.29c0.26,0.03,0.45,0.26,0.43,0.52c-0.02,0.2-0.16,0.35-0.33,0.41
			c-1.66,0.66-3.32,1.22-4.81,2.19c-2.46,1.49-4.22,3.8-5.6,6.33C78.42,75.42,77.68,75.29,77.68,74.79"/>
		<path class="st1" d="M102.68,82.61c-1.01,4.34-3.36,8.36-6.56,11.46c-0.76,0.71-1.38,1.39-1.46,1.75c-0.04,0.17-0.03,0.21,0,0.35
			c0.96,1.5,3.13,2.16,5.06,2.11c1.44-0.14,1.87,1.91,0.52,2.37c-3.59,1.43-10.18-1.12-8.84-5.87c0.49-1.42,1.45-2.27,2.39-3.15
			c1.43-1.32,2.72-2.82,3.83-4.45c1.09-1.64,2.02-3.41,2.74-5.27C100.91,80.51,103.01,81.16,102.68,82.61"/>
		<path class="st1" d="M107.56,104.6c2.39,0.23,4.69-0.4,6.13-2.45c0.93-0.93,1.52-3.76,3.28-2.75c0.96,0.69,0.33,1.91,0.18,2.85
			c-0.86,3-3.67,5.68-6.95,5.58c-1.35-0.02-4.99-0.65-3.99-2.67C106.5,104.67,107.04,104.54,107.56,104.6"/>
	</g>
</g>
</svg>
