<?xml version="1.0" encoding="utf-8"?>
<!-- Generator: Adobe Illustrator 28.2.0, SVG Export Plug-In . SVG Version: 6.00 Build 0)  -->
<svg version="1.1" id="capa1" xmlns="http://www.w3.org/2000/svg" xmlns:xlink="http://www.w3.org/1999/xlink" x="0px" y="0px"
	 viewBox="0 0 273.5 345.1" style="enable-background:new 0 0 273.5 345.1;" xml:space="preserve">
<style type="text/css">
	.st0{fill:#EFEFEE;}
	.st1{fill:#4D678E;}
	.st2{fill:#F0D4B6;}
	.st3{fill:#010001;}
	.st4{fill:#FFFFFF;}
	.st5{fill:#D3D3D3;}
	.st6{fill:#CCCBCD;}
	.st7{fill:#002346;}
	.st8{fill:#FCFDFE;}
	.st9{fill:#060405;}
	.st10{fill:#FCFDFD;}
	.st11{fill:#CDCBCD;}
	.st12{fill:#CDCACD;}
	.st13{fill:#CBC9CA;}
	.st14{fill:#D4D3D5;}
	.st15{fill:#D2D2D3;}
	.st16{fill:#F7F5F6;}
	.st17{fill:#1E1E1D;}
	.st18{fill:#252524;}
	.st19{fill:#1D1D1C;}
	.st20{fill:#1F1F1F;}
	.st21{fill:#1E1D1C;}
	.st22{fill:#1F1E1E;}
	.st23{fill:#8C5D14;}
</style>
<g id="cuerpo">
	<g>
		<g>
			<g>
				<g>
					<path class="st0" d="M153.2,93.5c0,0-11-1.9-31,1.4c-8.6,1.4-9,33.6-1.8,34c0,0-6.8,57.8-23.7,75c0,0,50.3,37.4,93.9,3.2
						c0,0,2.3-35.7,7.5-41.9c0,0,14-14.9,31.8-9.8c0,0,4.2-37-21.1-54.2c0,0-3.9,5-18.9,5c0,0,0,2.1-3,5.3c0,0,4.8,9.2-6.2,13.8
						C180.7,125.4,154.2,129.3,153.2,93.5z"/>
				</g>
				<g>
					<path class="st1" d="M97.7,204.2c0,0-14.8,21.4-8.3,76.9c0,0,27.4,7.2,51.2,5.1c0,0,12.3,3.3,11.9-6.1c0,0,0.4-23.4,1.7-26.8
						c0,0,17.6-0.2,22.8,2.5c0,0,9.8-18,14.2-23.2c0,0,13.6-20.1,25.1-21.9l-24.7-3.3C191.6,207.4,152.4,242.2,97.7,204.2"/>
				</g>
				<g>
					<path class="st2" d="M169.9,77.6c0,0-8.9,13.7-15.7,16.2c0,0-2.5,35.9,27.6,32c0,0,10.6-4.9,6-13.6l10.1-11.8
						c0,0-3.2-3.9-9.1-9.9C182.2,83.8,169.4,75.7,169.9,77.6z"/>
				</g>
				<g>
					<path class="st3" d="M48,268.6c0,0-12.4-5.3-22.2-2.1c0,0-16.2,16.1-12.8,43.5c0,0,4.1,28.6,34.4,26.2c0,0,7.7-8.5,0-17.8
						c0,0,5.1-2.6,2.8-6.7c0,0,4.9-0.4,3.5-5.9C53.8,305.8,33.6,296,48,268.6z"/>
				</g>
				<g>
					<path class="st4" d="M53.8,305.8c0,0-12.3-5.9-12.3-15.2c0,0-6.4-2.6-7,5.9c0,0-8.4,5-4.1,11.4c0,0-5,4.2-0.4,9l16.6,1.4
						c0,0,4.4-2.3,4-6.3C50.7,312,54.7,312.7,53.8,305.8z"/>
				</g>
				<g>
					<path class="st5" d="M25.1,264.5c0,0-12.7-2.9-18,16c0,0-5.7,29.4-0.7,42.5c0,0,12.7,21.7,30.4,20c0,0,9.3,1.8,11.6-6.8
						c0,0-18.9,4.1-31.5-13.1C17,323.1,4.7,294.6,25.1,264.5z"/>
				</g>
				<g>
					<path class="st5" d="M139,317.8c0,0,33.9,19,71.4,17.3c0,0,11.7-1.7,13.2-6.6c0,0,6.8,6.8-6.4,13.9c0,0-27.1,9-58.6-6.4
						c0,0-24.5-8.7-24.9-14.1L139,317.8z"/>
				</g>
				<g>
					<path class="st3" d="M156.9,291.8c0,0-11.5-4-20,19.6l0.4,5.5c0,0,45.4,23.1,73,16.9c0,0,16.4-0.7,11.6-11.6
						c0,0-11.6-6.5-14.6-6.8c0,0-12.9,4.7-13.3,5.1c-0.4,0.4-7.1-3.8-4.8-7.1c0,0-7.7,0.3-7.1-6.1c0,0-6.7-0.4-5.8-7.7
						C176.4,299.5,155.5,301.1,156.9,291.8z"/>
				</g>
				<g>
					<path class="st4" d="M187.1,294.3l-11.1,5c0,0,0.2,7.9,5.5,8.3c0,0,3.4,6.6,7.2,6.6c0,0,1.9,5.8,5.6,5.1l13.2-3.6
						c0,0,1.2-2.2-1-3.5l-4.4-2.8c0,0-0.6-2.9-6.4-5.8C195.8,303.7,199.7,299.4,187.1,294.3z"/>
				</g>
				<g>
					<path class="st2" d="M88.3,283.2c0,0-21-8.2-28.1-6.9c0,0-7.1,8.6-1.1,25.5c0,0,29.7,23,57.6,24.6c0,0,18.8,2,21-15.7
						c0,0,3.5-21.2-3.3-24.1l-45-5.4L88.3,283.2z"/>
				</g>
				<g>
					<path class="st2" d="M218.1,210.1c0,0-22.7,0.3-38.7,46.6c0,0-11.6,9.5-13.5,22.7c0,0,14.1,15.4,27.1,12.5
						c0,0,22.2-11.4,34.1-31.4c0,0,33.8-36.3-2.4-48.2L218.1,210.1z"/>
				</g>
				<g>
					<path class="st2" d="M230.9,155.8c0,0,0.7,37.7-3,56.9l-27.8-5.4l-2-40.5C198.1,166.9,212.6,149.9,230.9,155.8z"/>
				</g>
				<g>
					<path class="st2" d="M234.1,249.4c0,0,38.5,0.6,31.8,15c0,0,4.8,9.4-5.2,7.2c0,0,5.2,5.2-2.4,7c0,0-2.6,1.3-9.4-5.9l-3.5-1.5
						c0,0,5.9,9.2,0.7,14c0,0-1.1,5-9.6-6.6c0,0-3.5-5.2-7.4-4.1c0,0-9.6-0.2-10-4.2C219.2,270.2,234.1,251.9,234.1,249.4z"/>
				</g>
				<g>
					<path class="st6" d="M61.4,275.2c0,0-9.2,2-3,25.1l-4.6,5.6c0,0-17.5-3.9-11.2-27.1C42.6,278.7,47.8,260.8,61.4,275.2z"/>
				</g>
				<g>
					<path class="st6" d="M165.9,277c0,0-3.2,10.1-9.3,13.8c0,0,4.2,11.9,19.9,8.7c0,0,14.2-7,15.4-8.3
						C191.8,291.2,170.1,290.9,165.9,277z"/>
				</g>
			</g>
			<g>
				<g>
					<path class="st7" d="M192.1,206c0.5,0.1,1.6,0.1,2.1,0.2c7.2,0.2,14.4,0.6,21.5,1.9c13.5,2.7,28.6,8.3,27.5,24.8
						c-0.2,3.4-1.5,6.7-3.1,9.7c-6.6,12.8-15.1,24.7-25.5,34.7c-7,6.5-14.9,12.5-23.6,16.6c-1.2,0.6-3.1,1.6-4.4,2
						c-1.5,0.6-3,1.1-4.5,1.7c-0.6,0.2-1.4-0.1-1.6-0.8c-0.2-0.6,0.1-1.3,0.7-1.6c25.7-11,44.6-31.4,56.7-56.4
						c2.1-4.5,2-9.9-0.4-14.2c-6.5-12-31.1-13.8-43.4-14.8c-0.7-0.1-1.8-0.2-2.6-0.3C189.1,209.1,189.7,205.6,192.1,206L192.1,206z"
						/>
				</g>
				<g>
					<path class="st7" d="M206.1,235.6c-8.5,4.5-15.6,11.4-21.9,18.6c-4.6,5.2-9.3,11.5-13.3,17.3c-1.4,2-2.7,4-4.2,6
						c-0.4,0.6-1.2,0.7-1.8,0.3c-0.5-0.4-0.6-1-0.4-1.5c1.1-2.3,2.2-4.5,3.4-6.7c6.8-11.9,15.8-23,27.5-30.4c3.3-2,6.6-3.8,10.4-4.7
						C206.4,234.3,206.8,235.4,206.1,235.6L206.1,235.6z"/>
				</g>
				<g>
					<path class="st7" d="M221.1,213.2c-2.9-0.9-6-0.1-8.8,0.9c-0.6,0.3-2,1-2.5,1.3s-1.9,1.2-2.4,1.6c-9.4,7.1-15.6,17.7-21,28.1
						c-1.3,2.4-3.9,8.3-5.1,10.8c-1.2,2.9-5.6,1.1-4.4-1.9c0.7-1.5,3.9-7.9,4.6-9.2c6.3-11.3,13.2-22.8,24.1-30.4
						c1-0.6,2.6-1.7,3.7-2.1c3.2-1.6,6.9-2.5,10.5-2.1c1.1,0.2,3.6,0.5,3,2.2C222.6,213.2,221.8,213.5,221.1,213.2L221.1,213.2z"/>
				</g>
				<g>
					<path class="st7" d="M168.1,277.1c-1.4,2.8-2.9,5.5-4.5,8.2c-1.9,2.9-3.6,5.9-6.8,7.6c-2.2,1.1-4.1-2-2.1-3.5
						c1.3-0.8,2.1-1.5,3.1-2.8c2.7-3.5,5-7.4,7.1-11.3C165.9,273.3,169.1,274.9,168.1,277.1L168.1,277.1z"/>
				</g>
				<g>
					<path class="st7" d="M181.5,298c-6.6,3.4-15,5.6-21.7,1.3c-2.4-1.5-4.1-3.8-5.3-6.2c-0.7-1.3-0.1-2.9,1.2-3.6
						c1.4-0.7,3.2,0,3.7,1.4c3,8.9,14,7.8,21,4.8C181.9,295.1,182.8,297.2,181.5,298L181.5,298z"/>
				</g>
				<g>
					<path class="st7" d="M156.3,293c-8.5,1.4-16.2,14.4-16.7,22.6l-0.4-1.6c0-0.1-0.1-0.1-0.1-0.2c-0.1-0.1,0,0,0,0
						c3.3,2.5,7.5,4.2,11.4,5.9c6.5,2.7,13.2,5,19.9,7.2c10.9,3.7,22.5,6.5,34.1,5.5c5.1-0.4,10.1-1.3,14.6-3.4l0.7-0.4
						c2.8-1.3,1.9-3.9-0.2-5.6c-3.2-3-7.5-4.9-11.7-6.4c-0.7-0.2-1-1-0.8-1.6s0.8-0.9,1.4-0.8c5,0.8,9.8,2.4,13.9,5.6
						c4.8,3.3,5.4,10.2-0.3,13.1c-5.3,2.9-11.4,3.8-17.3,4c-9.8,0.2-19.5-0.9-28.8-3.6c-4.6-1.4-9.1-2.8-13.6-4.3s-9-3.1-13.5-4.8
						c-4.5-1.8-9.2-3.5-13.1-6.5c-0.5-0.4-0.9-1-1.3-1.6c0.5-6.9,3.7-13,7.8-18.4c3.8-4.3,8.8-9.1,14.9-9
						C159.7,289.2,159.1,293.3,156.3,293L156.3,293z"/>
				</g>
				<g>
					<path class="st7" d="M178.6,300C178.8,299.9,178.6,300,178.6,300c-1.1,0.9-0.7,1.5,0,2.3c0.6,0.9,1.7,2,2.5,2.4
						c0.9,0.3,0.5,0.3,2.4-0.3c3.2-1,6.6-1.4,10-1.6h1c0.3,0,0.6-0.4,0.5-0.8c-0.4-0.7-1.1-1.3-1.7-1.9c-2-1.6-4.6-3.3-7.1-3.6
						l0.6-0.1C184.2,297.5,181.4,298.8,178.6,300L178.6,300z M177.4,297.2c3-1.1,6-2.1,9-3.3h0.3l0,0c3.2,0.7,5.7,2.3,8.2,4.2
						c1.4,1.1,3.2,2.7,2.7,4.7c-0.2,1.2-1.2,2.2-2.5,2.4c-0.6,0.1-1.6,0.2-2.2,0.3c-3,0.7-5.9,2.1-8.9,3.2c-1.5,0.7-3.6,0.5-4.9-0.3
						c-1.7-1-2.7-2.3-3.6-4l0.2,0.2C173.6,302,174.3,298.6,177.4,297.2L177.4,297.2z"/>
				</g>
				<g>
					<path class="st7" d="M195,302.6c0.7-0.1,0.9,0,1.3,0.2c2.3,1.3,4.6,2.8,5.9,5.1c0.4,0.7,0.9,1.7,0.3,2.5
						c-0.6,0.6-0.9,0.5-1.5,0.7c-3.2,0.8-6.4,2.1-9.4,3.4c-1.2,0.6-2.3,1.3-3.7,1.1c-3-0.5-5.7-2.8-6.6-5.7c-0.3-1.2-0.8-3.6,1-3.7
						c0.6,0,1.1,0.5,1.2,1c0.6,2.3,2.1,3.7,4.2,4.6c0.5,0.2,0.6,0.2,1,0c3.7-1.9,7.9-2.2,12-2.8l0.5-0.1c0.1,0,0.1-0.1-0.1,0.1
						c-0.1,0.1-0.1,0.2-0.1,0.3c0,0.1,0,0.1,0,0c0,0-0.1-0.2-0.1-0.3c-0.9-2.2-3.3-3.7-5.6-4.2c-0.2,0,0.4,0.1,0.6,0
						C194.2,305.5,193.5,303.1,195,302.6L195,302.6z"/>
				</g>
				<g>
					<path class="st7" d="M191.4,314.1c-0.2,0.3-0.5,1-0.4,1.4c0.1,0.3,0.3,0.6,0.6,0.8c0.1,0.1,0.4,0.3,0.5,0.5
						c0.6,0.4,1.5,0.7,2.2,0.5l-0.6,0.1c4.2-0.7,8.3-1.7,12.5-2.4h0.3c0.6,0,0.9-0.7,0.7-1.2c-0.1-0.2-0.5-0.6-0.8-0.9
						c-1.4-1.2-3.2-2.1-4.8-1.8c-1.7,0.3-2.2-2.1-0.5-2.5c0.2,0,0.5,0,0.7,0c2.3,0.6,4.1,1.8,5.7,3.1c1.9,1.2,2.3,3.8,0.1,5
						c-2.4,0.8-4.7,1.5-7,2.6c-1.9,0.8-3.7,1.7-5.5,2.7h-0.4c-3.6,0-6.7-3.1-6.6-6.5c0-1.5,2.1-4.8,3.6-3.1
						C192,313,191.8,313.7,191.4,314.1L191.4,314.1z"/>
				</g>
				<g>
					<path class="st7" d="M137.8,315.8c-1.4,1.9-2.1,4.4-1.7,6.7c0.1,0.3,0.2,0.5,0.6,0.9c0.3,0.3,0.6,0.6,1,0.8
						c4.7,2.6,9.4,5.1,14.2,7.2c18.6,7.9,41.9,14,61.8,8.8c3.7-1.2,8.7-2,9.4-6.4c0.5-2,0.4-4.1,0-6.4c-0.1-0.7,0.3-1.4,1-1.5
						c0.6-0.1,1.1,0.2,1.3,0.7c1.2,2.3,1.8,5.1,1.4,7.9c-0.5,6.3-7.1,8.4-12.1,9.9c-25.2,6.9-55.6-3.3-77.6-15.8
						c-1.2-0.7-2.5-1.4-3.4-2.5c-3.1-3.4-1-9.5,2.3-12C137.4,313,138.9,314.6,137.8,315.8L137.8,315.8z"/>
				</g>
				<g>
					<path class="st7" d="M155.1,252.1c0.9-0.1,2.1,0.3,2.9,0.2c2.8-0.2,5.8-0.4,8.6-0.4c4.2,0,8.6-0.2,12.5,1.4
						c3.4,1.6,0.7,6.6-2.5,4.5c-3-1.5-6.8-1.7-10.1-2.1c-2.6-0.2-5.2-0.4-7.8-0.5c-1.3,0.1-2.5-0.5-3.6-0.6
						C153.5,254.5,153.6,252.2,155.1,252.1L155.1,252.1z"/>
				</g>
				<g>
					<path class="st7" d="M191.8,292.5c-8-0.1-16.3-1.8-22.7-7c-2.2-1.9-4.5-4.4-4.5-7.6c-0.1-2.3,2.9-3.5,4.3-1.8
						c1.6,1.6,2.4,3.5,4,5.1c1.5,1.5,3.4,2.8,5.4,3.9c4.2,2.2,9,3.7,13.6,4.7C193.4,290.3,193.3,292.5,191.8,292.5L191.8,292.5z"/>
				</g>
				<g>
					<g>
						<path class="st7" d="M101.4,203.7c-1.2,0.5-2.2,1.5-3,2.6c-1.3,1.8-2.4,4.2-3.2,6.3c-3.4,10.1-3.9,21-4.2,31.7
							c-0.1,11.6,0.5,23.4,1.4,35c0.2,4.4-6.2,4.9-6.7,0.5c-0.1-6.8-0.3-13.6-0.2-20.4c0.2-14.3,1.1-29,5-42.9
							c0.8-2.3,1.7-5.1,2.8-7.3c1.6-3,3.5-6.3,6.8-7.6c0.3-0.1,0.5-0.2,0.9-0.2C102.8,201.1,103,203.5,101.4,203.7L101.4,203.7z"/>
					</g>
					<g>
						<path class="st7" d="M159.9,236c-2.1,3.8-2.6,8.4-3.4,12.6c-1.2,9.2-1.5,18.5-1.6,27.8c0,0.9,0,4,0,4.8c0.1,2.8-2,5.6-4.5,6.6
							c-1.3,0.6-2.9,0.8-4.2,0.9c-9.4,1-19.2,0.9-28.6-0.6c-9.3-1.4-18.4-3.4-27.7-4.8c-1.5-0.2-2.5-1.6-2.3-3.1s1.6-2.5,3.1-2.3
							c4.7,0.8,9.3,1.6,13.9,2.5c13.6,2.9,27.2,4.9,41.1,3.4c2.3-0.1,4.4-0.8,4.4-3.1v-0.9c0.5-10.6,1.2-21.2,3.1-31.7
							c0.7-3.5,1.4-7.1,2.8-10.4c0.6-1.3,1-2.4,2-3.6C159.5,233.1,161.1,234.9,159.9,236L159.9,236z"/>
					</g>
					<g>
						<path class="st7" d="M140.2,287.7c3.2,14,3.2,37-14.9,40c-16.1,2.1-32.4-2.3-46.1-10.6c-2.9-1.8-6.2-3.9-9.1-5.8
							c-4-2.7-7.9-5.5-11.6-8.5c-1.2-1,0.1-2.9,1.5-2c7.4,4.8,15.1,9.2,22.9,13.4c12.7,6.4,27.4,9.3,41.4,7.2
							c13.2-2.4,11.9-22.3,10.5-32.6C134.4,285.3,139.4,284.3,140.2,287.7L140.2,287.7z"/>
					</g>
					<g>
						<path class="st7" d="M62,272.8c15.4,3.2,34.2,9.1,44.4,21.9c0.9,1.4-1.1,2.8-2.1,1.4c-2.5-2.9-6-5.1-9.2-7.1
							c-8.7-4.9-18.4-7.5-28.2-9.2L61,279h-0.1C56.6,278.3,57.7,272,62,272.8L62,272.8z"/>
					</g>
					<g>
						<path class="st7" d="M57.5,301.6c-3.4-8.3-6-19.2,0.2-26.8c2.5-2.2,5.9,1.4,3.5,3.7c-0.1,0.1-0.5,0.5-0.7,0.8
							c-4.2,6.2-2.7,14.7-0.7,21.5C60.3,302.3,58.1,303.1,57.5,301.6L57.5,301.6z"/>
					</g>
					<g>
						<path class="st7" d="M59.3,274.8c-2.4-1.6-5.5-2.9-8.4-2.5c-0.9,0.1-1.7,0.5-2.5,1c-2.5,1.4-4.4-2.3-1.9-3.6
							c4.9-2.5,10.5-0.2,14.4,3.1C62.1,274,60.6,275.8,59.3,274.8L59.3,274.8z"/>
					</g>
					<g>
						<path class="st7" d="M49.4,271.8c-6.8,7.5-7.4,18.4-2.4,27c1.6,2.8,4,5.4,7.1,5.6l-0.6,0.3l3.9-4.5c1.2-1.3,3.1,0.5,1.8,1.8
							l-4.4,4l-0.3,0.3c-4.2,0.4-7.7-2.5-9.9-5.8c-6.4-9.6-6.2-23,1.6-31.8C48.3,266.4,51.6,269.6,49.4,271.8L49.4,271.8z"/>
					</g>
					<g>
						<path class="st7" d="M48.3,318.3c5.6,5.9,5,13.4-1,18.8l-0.3,0.2c-3.9,0.3-7.9,0.1-11.8-0.6c-12-2.1-21.4-11.1-24.2-23
							c-1-3.8-1-7.7-0.9-11.6c0.3-11.5,2.3-23.5,9.3-33l1.3-1.5c2-2.6,5.1-4.4,8.4-4.4c7.1,0,16.1,0.2,21.7,5.5
							c1,1.1-0.4,2.7-1.6,1.9c-1-0.7-2-1.1-3.2-1.5c-4.7-1.4-9.8-1.4-14.8-1.3c-0.5,0-2.2,0.1-2.7,0.2c-1.1,0.2-2.2,0.7-3,1.5
							c-7.6,8.1-10,21.1-10.5,32.7c-1,10.4,2.5,20.9,11.4,27c5.7,3.9,12.9,5.4,20,5.5l-0.8,0.3c4.9-4.5,5.4-10.3,0.8-15.2
							C45.3,318.8,47.2,317,48.3,318.3L48.3,318.3z"/>
					</g>
					<g>
						<path class="st7" d="M54.8,305.5c0.8,3.2,0,7.9-4.2,7.9c-3.1-0.6-5.9-2-8.5-3.7c-3.7-2.5-6.8-6.2-8.3-10.5
							c-0.8-2.5-1.3-5-0.3-7.5c0.7-1.9,3.2-3.2,5.1-2.9c1.3,0.2,3.7,0.7,2.9,2.4c-0.2,0.5-0.7,0.7-1.1,0.7c-1,0.1-2.2,0.1-2.9,0.6
							c-2,1.9,0.2,6.8,1.4,8.8c1.3,2.1,3.1,4,5.2,5.5c2,1.5,4.5,2.8,6.9,3.5h-0.3c2,0.1,1.8-3.1,1.7-4.5
							C52.2,304.3,54.5,303.9,54.8,305.5L54.8,305.5z"/>
					</g>
					<g>
						<path class="st7" d="M35.3,300.3c-0.5-0.1-1.2-0.3-1.7-0.2c-0.8,0.1-1.4,0.7-1.9,1.3c-0.5,0.6-0.6,1.5-0.6,2.4
							c0.1,1.5,1.3,3.1,2.6,4.2c0.6,0.5,2.4,1.8,3,2.3c2.1,1.5,5.4,4,7.5,5.3c3,1.7,5.2-0.2,5-3.8c0-1.6,2.3-1.7,2.5-0.1
							c0.9,5.6-4.1,9.4-9.1,6.6c-2.7-1.6-5.3-3.4-7.9-5.2c-1.3-1-3.2-2.2-4.3-3.3c-3.1-2.9-4.3-8.6-0.4-11.6
							c1.3-1.1,3.5-1.5,5.1-0.8c1,0.4,2.6,1.5,1.6,2.6C36.5,300.5,35.9,300.5,35.3,300.3L35.3,300.3z"/>
					</g>
					<g>
						<path class="st7" d="M32.9,311.2c-0.9-0.2-2.2-0.5-3.1-0.4c0,0,0,0,0.1,0c-0.1,1.8,0,3.9,1.9,4.3h-0.3
							c3.9,0.2,7.8,0.5,11.6,1.1c1.3,0.2,2.6,0.5,3.9,0.9c0.7,0.2,1,0.9,0.8,1.6c-0.2,0.6-0.8,1-1.5,0.8c-4.8-1-10-1-14.9-1.2
							c-1.7-0.2-3.4-1.4-4.1-2.9c-0.8-1.6-0.9-3.1-0.8-4.7c0.4-4.2,5.1-3.5,7.7-1.7C35.3,310,34.2,311.8,32.9,311.2L32.9,311.2z"/>
					</g>
					<g>
						<path class="st7" d="M27.7,266.5c-5.3-0.1-10.9-0.1-13.9,5c-5.9,9.7-7.5,21.7-7.2,33c0,5.2,1.1,13.2,1.8,16.9
							c1.3,3.4,3.5,6.6,5.8,9.3c3.2,3.6,7.1,6.7,11.6,8.7l3.1,1.2c1.3,0.4,2.7,0.8,4,1.1c0.6,0.1,1.9,0.3,2.5,0.4
							c3.9,0.9,8.9,0.4,10.5-3.8c0.4-0.8,0.5-2.1,0.6-3c0.2-1.6,2.6-1.3,2.5,0.3c-0.4,5.5-4.8,9.4-10.4,9.4
							c-13.6-0.2-26.4-6.4-33.3-18.4c-0.7-1.3-1.4-2.4-1.8-3.8c-1.8-8.9-2.7-18.2-1.9-27.3c0.9-9.3,3.3-18.5,8.5-26.4
							c2.5-3.7,6.7-6,11.1-5.9c2.4,0.1,4.6,0.4,6.9,1c0.7,0.2,1.1,0.9,0.9,1.5C28.8,266.1,28.3,266.5,27.7,266.5L27.7,266.5z"/>
					</g>
				</g>
				<g>
					<path class="st7" d="M203.8,96.1c5.8-0.3,14.7,9.5,17.9,13.7c13.6,19.8,12.9,50.5,11.4,73.6c-0.8,9.9-2,19.8-3.5,29.6
						c-0.1,0.7-0.8,1.1-1.4,1c-0.7-0.1-1.1-0.7-1.1-1.4c1.1-9.8,2.1-19.7,2.5-29.5c0.9-19.4,0.9-39.5-5.1-58.1
						c-3.1-9.3-12.5-21.8-21-26.5C202.3,98.1,202.4,96.3,203.8,96.1L203.8,96.1z"/>
				</g>
				<g>
					<path class="st7" d="M171.4,78.1c-2.2,4.1-9.5,13.3-13.6,15.5c-1.3,0.8-2.8,1.3-4.2,1.7c-0.7,0.2-1.4-0.2-1.6-0.8
						c-0.2-0.6,0.1-1.3,0.8-1.6c1.3-0.5,2.6-1,3.7-1.7c3.4-2,10.4-11,12.2-14.5C169.6,75,172.3,76.3,171.4,78.1L171.4,78.1z"/>
				</g>
				<g>
					<path class="st7" d="M192.3,109.8c-3.6,3.8-7.2,6.4-12.2,8.2c-0.4,0.1-0.8-0.1-0.9-0.5c-0.1-0.3,0.1-0.7,0.4-0.9
						c4.3-2.1,13.7-12.8,16.5-16.7c1.4-1.9,4.1,0.3,2.6,2.1L192.3,109.8z"/>
				</g>
				<g>
					<path class="st7" d="M229.7,156.8c-5.9-0.5-12,0.4-17.5,2.5c-4.5,1.7-8.5,4.4-12.1,7.7c-1.1,1-2.8-0.6-1.8-1.8
						c0.9-1,2-2.4,3-3.3c6.4-6.4,15.4-10.2,24.4-10.4c2.4,0.1,7.2-0.6,6.9,3.1C232.4,156,231.1,157,229.7,156.8L229.7,156.8z"/>
				</g>
				<g>
					<path class="st7" d="M200.2,166.6c0.7,12.1,1.9,28.9,2.3,40.9c0,0.9-0.7,1.7-1.6,1.7c-0.9,0-1.7-0.7-1.7-1.6
						c-0.3-11.8-1.5-28.9-2.1-40.8C196.9,164.7,200,164.5,200.2,166.6L200.2,166.6z"/>
				</g>
				<g>
					<path class="st7" d="M218.8,270.2c3.3,2.9,8.1,1.9,12.3,2.6c3.8,0.9,5.8,4.5,8.2,7c1.7,1.9,3.5,4.4,4.8,4.7
						c0.6,0.2,1,0.1,1.6-0.5c1.9-2.6,0.9-6.5-0.6-9.3c-2.3-4.4-6.8-7.2-11.4-8.9c-0.9-0.3-0.5-1.7,0.4-1.5c8,1.8,16,8.2,15.8,17.2
						c0,3.5-2.8,7.7-6.9,6.5c-3.3-1.1-4.5-3.5-6.7-5.7c-0.9-1-1.7-1.9-2.6-2.9c-1.7-2-2.5-3-5.1-3.1c-4.1-0.1-9.1-0.8-11.7-4.4
						C216.1,270.6,217.7,269.1,218.8,270.2L218.8,270.2z"/>
				</g>
				<g>
					<path class="st7" d="M242.9,268c3.6,1.7,6.4,4.2,9.1,6.7c1.3,1.2,2.8,2.2,4.1,2.5c3.1,0.7,4.8-1.3,3.6-4.2
						c-0.5-1.4-1.7-2.8-2.8-4.1c-2.3-2.7-5-5-8-6.9c-0.7-0.4-0.1-1.5,0.6-1.2c4.6,2.3,13.7,8.6,13.7,14.2c0.1,4.2-4.4,6.2-8,4.8
						c-3.9-1.6-5.4-5.1-8.7-7.2c-1.4-1-3-1.8-4.6-2.2c-0.7-0.1-1.1-0.8-1-1.5C241.3,268.1,242.2,267.6,242.9,268L242.9,268z"/>
				</g>
				<g>
					<path class="st7" d="M256.5,257.3c4,1.5,7.5,4.4,10,7.9c0.6,0.9,1.3,2,1.4,3.5s-0.7,3.2-2.2,3.8c-2.5,1-4.9-0.2-6.7-1.8
						c-0.8-0.6-0.1-2,0.9-1.6c1.8,0.6,3.1,1.6,4.9,1c2.5-1.5-2.5-6.7-3.9-8c-1.4-1.4-3-2.6-4.8-3.5C255.4,258,255.9,257,256.5,257.3
						L256.5,257.3z"/>
				</g>
				<g>
					<path class="st7" d="M234.6,248.4c6.9,0.1,13.6,0.7,20.4,1.9c4.2,0.8,9,2.5,12,6c0.7,0.8,1.3,1.6,1.7,2.5
						c0.9,2.2-0.2,5.1-2.5,5.7c-0.8,0.2-1.3-0.8-0.8-1.3c1.3-1.9,0.5-3.5-0.7-4.9c-2.6-3-6.3-4.3-10.3-5.2
						c-6.5-1.4-13.3-2.3-19.9-3.1C233.5,249.9,233.5,248.4,234.6,248.4L234.6,248.4z"/>
				</g>
				<g>
					<path class="st7" d="M193,207.9c-9.4,8.9-21.9,14.4-34.7,15.8c-12.8,0.7-25.7-1.2-38-4.8c-8.1-2.6-16.2-6.2-22.5-12.2
						c-1.1-1.1,0.3-2.9,1.6-1.9c13.3,9.5,30.2,12.2,46.3,13.4c8,0.7,16,0.1,23.8-2.2c3.9-1.1,7.6-2.5,11.3-4.2s7.2-3.8,10.6-6
						C192.7,205.2,194.1,206.9,193,207.9L193,207.9z"/>
				</g>
				<g>
					<path class="st7" d="M206,144c-3.6,10.1-6.8,20.4-8.4,31.1c-1.8,10.3-2.7,21.8-3.1,32.2c0,1.2-1.1,2.2-2.3,2.1
						c-1.2-0.1-2.1-1.1-2.1-2.2c0.1-2.8,0.2-5.5,0.3-8.2c0.6-8.2,1.5-16.6,3.1-24.6c1.7-8.1,3.7-16.2,7-23.8c1.1-2.5,2.4-5,4.2-7.2
						c0.2-0.3,0.7-0.4,1-0.1C206,143.4,206.1,143.7,206,144L206,144z"/>
				</g>
				<g>
					<path class="st7" d="M111.1,174.4c2.6-8.7,4.5-17.6,6.2-26.6c1.9-9,2.5-18.1,4.5-27.1c0.2-0.8,1.3-0.7,1.4,0.1
						c0.9,9.3-0.6,18.5-1.9,27.7c-1.1,6.9-2.5,13.7-4.2,20.4c-0.6,2.3-1.2,4.5-2,6.7c-0.4,1.1-1.6,1.7-2.7,1.3
						C111.3,176.7,110.7,175.5,111.1,174.4L111.1,174.4z"/>
				</g>
				<g>
					<path class="st7" d="M156.7,95.4c-0.1,9.6,3.4,20.4,11.5,26.2c5.6,4.3,15.3,4.6,18.9-2.3c1-2,1-4.7-0.3-6.2
						c-1.1-1.2,0.8-2.9,1.9-1.7c1.1,1.3,1.6,2.9,1.7,4.5c0.2,4.6-3.3,8.7-7.3,10.4c-5.4,2.5-11.7,1.1-16.6-1.9
						c-9.9-5.9-14.7-17.8-15.1-29.1C151.4,91.7,156.7,91.8,156.7,95.4L156.7,95.4z"/>
				</g>
			</g>
		</g>
		<path class="st7" d="M154.7,91.4c-3.8-0.5-7.5-0.7-11.2-0.9c-4.5-0.1-9.1,0-13.7,0.3c0,0-2.1,0.4-2.1,2.5s3.4,2,3.4,2
			c4.1-0.2,8.2-0.2,12.2-0.1c3.6,0.1,7.3,0.4,10.7,0.9c1.3,0.2,2.5-0.7,2.6-2C156.9,92.8,156,91.6,154.7,91.4z"/>
	</g>
</g>
<g id="brazo">
	<g>
		<g>
			<path class="st0" d="M89.6,103c0,0,12.7,8.1,9.9,28.2l22.6-2.4c0,0,7-25.9,4.5-29.7C121.3,90.9,100.1,96,89.6,103z"/>
		</g>
		<g>
			<g>
				<g>
					<path class="st8" d="M159.4,190.7c0.2,2.1,0.9,4.7,1.2,6.8c0.5,3.4,0.4,6.2,2.1,9.1c0.9,1.5,3.1,3.3,4.5,4.3
						c0.1,0.1,0.3,0.2,0.4,0.2c0.3,0,0.6-1.4,0.7-1.7c3.1-8.3,5-17.6,3-26.2c-0.5-2.1-4.8-12.8-7.2-7.6
						C162.4,179.2,159.1,186.6,159.4,190.7z"/>
				</g>
				<g>
					<path class="st9" d="M127.4,236.3c-26.1,0.2-46.3-19.6-46.5-45.6c-0.2-24.3,20.7-45.1,45.4-45.3c25.5-0.2,46.5,20.1,46.7,45
						C173.3,216.3,153.5,236.2,127.4,236.3z M109.8,150.6L109.8,150.6c-0.3,0.1-0.5,0.2-0.8,0.4l0,0c-5.3,2.1-9.8,5.3-13.9,9.3
						c-1.3,1.3-1.8,2.3-0.3,3.7c0.2,0.2,0.5,0.4,0.8,0.6c-0.6,0.7-1.3,1.4-1.8,2.2c-2.8,4.8-4.7,10-6.3,15.3
						c-0.2,0.5-0.5,1.1-0.7,1.6c-1.7,1.2-4.1,2.3-4.2,4.2c-0.8,10.1,1.9,19.4,7.4,27.9c1.3-0.9,2.5-1.6,3.4-2.5
						c0.8-0.7,2.8-0.8,1.8-2.7c-0.6-5.3-1.2-10.7-1.8-16c0.2-0.2,0.4-0.4,0.5-0.6c4.7-1.8,9.5-3.6,14.2-5.4c0.2,0.3,0.5,0.5,0.8,0.8
						c3.6,4.8,7.3,9.5,10.9,14.3c0.5,0.2,1,0.4,1.5,0.7c-0.9,0.2-1.7,0.2-2.2,1.2c-1.9,3.4-3.9,6.7-5.8,10.1c-0.5,1.2-2.5,2-1.1,3.8
						c-0.1,0.1-0.3,0.3-0.4,0.4c-3.1-2.9-7.8-2.8-10.9-5.4c-4.5-3.6-7.3-0.7-10.3,2.1c4,5.6,9.2,9.9,15.2,13.1
						c4.8,2.6,9.5,4.7,14.1-0.3c0.3-0.3,0.6-0.5,0.9-0.8c5.9,0.1,11.9,0.3,17.7-1.2c0.3,0.3,0.5,0.5,0.8,0.8
						c0.7,0.4,1.6,0.7,2.1,1.2c2.2,2.4,4.4,1.8,7,0.4c6.5-3.6,11.7-8.3,16.1-14.3c2.7-3.6,3-6.2-1.3-8.4c-0.4-0.6-0.9-1.3-1.1-1.7
						c-3.2,2.1-6,3.9-8.7,5.8c-2.4,1.7-5.6,2.4-7.1,5.3c-0.1-0.2-0.3-0.3-0.4-0.5c0.9-1.4,0.6-2.5-0.5-3.8c-2.6-3.1-5.1-6.4-7.6-9.6
						c-0.2-0.1-0.4-0.2-0.5-0.3h-0.1c-0.6-0.1-1.1-0.3-1.7-0.4c0.8-0.3,1.7-0.1,2.2-1.2c2.2-4.9,4.6-9.8,6.9-14.7
						c0.3-0.7,0.5-1.2-0.1-1.9c-3.4-4.2-6.7-8.5-10.1-12.7c-0.3-0.3-0.7-0.8-1-0.8c-5.8,0.7-11.6,1.5-17.4,2.3
						c-0.3,0-0.5,0.5-0.8,0.8c-0.1-0.2-0.2-0.5-0.4-0.8c0.4-0.9-0.2-1.5-0.6-2.1c-2-3.3-4.1-6.6-6.1-9.8c-0.4-0.2-0.8-0.5-1.2-0.8
						c0.7-0.4,1.6-0.6,2.2-1.1c3.8-2.9,7.7-5.6,12-7.7c2-1,2.2-2.3,2-4.2c-4.3,0.3-8.4,1.3-12.3,3
						C110.4,150.3,110.1,150.4,109.8,150.6z M162.3,203.6c0.1,3.4,3.4,4,5.1,6.3c2.5-5.5,3.9-10.8,4.1-16.4
						c-0.4-6.6,1.5-14.1-6.6-18c-1.4,4.1-3.9,8.2-3.9,12.2C160.9,192.9,162.2,198.3,162.3,203.6z M139.4,157.1
						c-0.7-0.2-1.6,0.7-1.9,2.4c-0.2,1.1-0.5,2.3-1.1,3.3c-2.8,5-1.4,8.9,2.3,13.1c4.2,4.7,7.3,10.2,14.9,9.5
						c1.7-0.1,3.4,0.5,5.1,0.8c0.8,0.2,1.2-0.1,1.6-0.9c4.4-7.4,4.2-14.2-2.2-20.4c-1.6-1.6-3-3.4-4.4-5.1c-0.6-0.7-1.3-1.2-2.3-1.3
						C147.8,158.2,144.2,157.7,139.4,157.1z M127.3,147c-0.9,0.5-2.6-0.9-3.3,0.7c-0.4,0.8-0.8,2.4,0.2,2.8c4.6,2.1,9.1,4.8,14,5.8
						c4.2,0.9,8.8,0.7,13.2,1.4c1,0.1,1.4,0,1.9-0.9c0.5-1.1-0.1-1.5-0.8-1.9C144.9,149.9,136.6,147.2,127.3,147z"/>
				</g>
				<g>
					<path class="st10" d="M119.8,203.5c-3.6-4.8-7.3-9.5-10.9-14.3c1.4-5.4,4.1-10.3,6.1-15.5c0.2-0.3,0.5-0.8,0.8-0.8
						c5.8-0.8,11.6-1.6,17.4-2.3c0.3,0,0.8,0.4,1,0.8c3.4,4.2,6.7,8.5,10.1,12.7c0.6,0.7,0.4,1.3,0.1,1.9c-2.3,4.9-4.6,9.8-6.9,14.7
						c-0.5,1.1-1.4,0.9-2.2,1.2C130.1,202.4,124.9,202.9,119.8,203.5z"/>
				</g>
				<g>
					<path class="st8" d="M139.4,157.1c4.8,0.6,8.4,1,12.1,1.5c0.9,0.1,1.7,0.5,2.3,1.3c1.4,1.7,2.8,3.6,4.4,5.1
						c6.4,6.2,6.6,13,2.2,20.4c-0.4,0.8-0.8,1-1.6,0.9c-1.7-0.3-3.5-0.9-5.1-0.8c-7.5,0.6-10.7-4.8-14.9-9.5
						c-3.7-4.2-5.1-8.1-2.3-13.1c0.6-1,0.8-2.2,1.1-3.3C137.9,157.8,138.7,156.9,139.4,157.1z"/>
				</g>
				<g>
					<path class="st10" d="M136.9,202.3h0.1c0.2,0.1,0.4,0.2,0.5,0.3c2.5,3.2,5,6.5,7.6,9.6c1,1.2,1.4,2.4,0.5,3.8
						c-1.3,2.1-2.6,4.2-3.9,6.3c-8.2,0.7-16.2-0.2-23.9-3.4c-1.7-0.7-3.9-1.1-4.6-3.4c1.9-3.4,3.9-6.7,5.8-10.1
						c0.5-0.9,1.4-1,2.2-1.2C126.5,203.5,131.7,202.9,136.9,202.3z"/>
				</g>
				<g>
					<path class="st10" d="M107.9,161c2,3.3,4.1,6.6,6.1,9.8c0.4,0.6,0.9,1.3,0.6,2.1c-2.7,4.9-4.8,10.1-6.5,15.5
						c-4.7,1.8-9.5,3.6-14.2,5.4c0-0.1,0-0.2-0.1-0.4c1.3-0.5,0.8-1.5,0.6-2.4c-0.3-1.9-0.9-3.9-1.1-5.8c-0.8-7.6,1.8-14.6,4.5-21.4
						C101.1,162.4,104.4,161.4,107.9,161z"/>
				</g>
				<g>
					<path class="st11" d="M119.8,229.3c-4.6,5-9.3,2.9-14.1,0.3c-6.1-3.2-11.2-7.5-15.2-13.1c3-2.8,5.8-5.7,10.3-2.1
						c3.2,2.5,7.8,2.5,10.9,5.4c0.7,0.8,1.4,1.7,2,2.5C115.5,224.8,118.3,226.5,119.8,229.3z"/>
				</g>
				<g>
					<path class="st12" d="M95.1,210.4c1.1,1.9-1,2-1.8,2.7c-0.9,0.9-2.2,1.6-3.4,2.5c-5.6-8.6-8.2-17.9-7.4-27.9
						c0.1-1.9,2.6-3,4.2-4.2c1.4,2.7,2.9,5.4,4.3,8.1c-1.2,4.4,0.5,8.6,1.4,12.7C92.9,206.5,93.1,208.9,95.1,210.4z"/>
				</g>
				<g>
					<path class="st13" d="M163.1,207.1c4.3,2.2,4,4.8,1.3,8.4c-4.4,6-9.7,10.7-16.1,14.3c-2.5,1.4-4.7,2-7-0.4
						c-0.5-0.6-1.4-0.8-2.1-1.2c1.3-2.1,2.6-4.1,3.9-6.2c0.4,1.3,1.4,0.4,1.9,0.3C153.2,219.8,158.9,214.3,163.1,207.1z"/>
				</g>
				<g>
					<path class="st6" d="M113.2,215.4c0.7,2.3,2.9,2.6,4.6,3.4c7.7,3.2,15.7,4.1,23.9,3.4c-1.1,1.7-2.3,3.4-3.4,5
						c-5.8,1.5-11.8,1.3-17.7,1.2c-2.9-3.1-5.7-6.2-8.6-9.2C110.8,217.5,112.7,216.7,113.2,215.4z"/>
				</g>
				<g>
					<path class="st8" d="M152.4,154.9c0.7,0.5,1.3,0.8,0.8,1.9c-0.4,1-0.9,1.1-1.9,0.9c-4.4-0.7-8.9-0.5-13.2-1.4
						c-4.9-1-9.4-3.7-14-5.8c-1-0.5-0.6-2-0.2-2.8c0.8-1.6,2.4-0.2,3.3-0.7C136.6,147.2,144.9,149.9,152.4,154.9"/>
				</g>
				<g>
					<path class="st10" d="M110.6,150.2c3.9-1.7,8-2.6,12.3-3c0.3,1.9,0,3.2-2,4.2c-4.3,2.1-8.2,4.9-12,7.7
						c-0.6,0.5-1.5,0.7-2.2,1.1c-2.9,0.8-5.9,1.6-8.8,2.4c0.6-3.2,3.3-4.6,5.3-6.6c1.8-1.9,4.6-2.6,5.8-5.1l0,0
						c0.3-0.1,0.5-0.2,0.8-0.4l0,0C110.1,150.4,110.4,150.3,110.6,150.2z"/>
				</g>
				<g>
					<path class="st14" d="M97.9,163.8c-2.7,6.9-5.3,13.8-4.5,21.4c0.2,2,0.7,3.9,1.1,5.8c0.2,0.9,0.6,1.9-0.6,2.4
						c-3-3.4-5.5-7-6.3-11.5c1.6-5.3,3.5-10.5,6.3-15.3c0.5-0.8,1.2-1.5,1.8-2.2C96.4,164.3,97.2,164,97.9,163.8z"/>
				</g>
				<g>
					<path class="st10" d="M163.1,207.1c-4.2,7.3-9.9,12.7-18.1,15.1c-0.5,0.1-1.5,1-1.9-0.3c1-1.8,2-3.6,3-5.5
						c1.5-2.9,4.7-3.6,7.1-5.3c2.7-1.9,5.4-3.6,8.7-5.8C162.2,205.8,162.6,206.4,163.1,207.1z"/>
				</g>
				<g>
					<path class="st15" d="M109.1,150.9c-1.2,2.5-4,3.2-5.8,5.1c-1.9,2.1-4.7,3.5-5.3,6.6c-1.1,0.4-2.1,0.8-3.2,1.3
						c-1.5-1.4-1-2.4,0.3-3.7C99.2,156.2,103.8,153,109.1,150.9z"/>
				</g>
				<g>
					<path class="st16" d="M95.1,210.4c-2.1-1.5-2.2-4-2.7-6.1c-0.9-4.2-2.5-8.3-1.4-12.7c0.8,0.9,1.5,1.9,2.3,2.8
						C93.9,199.8,94.5,205.1,95.1,210.4z"/>
				</g>
				<g>
					<path class="st17" d="M108.1,188.4c1.7-5.3,3.8-10.6,6.5-15.5c0.1,0.2,0.2,0.5,0.4,0.8c-2.1,5.1-4.7,10.1-6.1,15.5
						C108.6,188.9,108.3,188.7,108.1,188.4z"/>
				</g>
				<g>
					<path class="st18" d="M136.9,202.3c-5.2,0.6-10.4,1.3-15.6,1.9c-0.5-0.2-1-0.4-1.5-0.7c5.2-0.6,10.3-1.1,15.4-1.7
						C135.8,202,136.4,202.1,136.9,202.3z"/>
				</g>
				<g>
					<path class="st19" d="M146.1,216.4c-1,1.8-2,3.6-3,5.5c-1.3,2.1-2.6,4.1-3.9,6.2c-0.3-0.3-0.5-0.5-0.8-0.8
						c1.1-1.7,2.3-3.4,3.4-5c1.3-2.1,2.6-4.2,3.9-6.3C145.8,216.1,145.9,216.3,146.1,216.4z"/>
				</g>
				<g>
					<path class="st20" d="M93.4,194.4c-0.8-0.9-1.5-1.9-2.3-2.8c-1.4-2.7-2.9-5.4-4.3-8.1c0.2-0.5,0.5-1.1,0.7-1.6
						c0.8,4.6,3.4,8.1,6.3,11.5c0,0.1,0.1,0.2,0.1,0.4C93.7,194.1,93.5,194.2,93.4,194.4z"/>
				</g>
				<g>
					<path class="st21" d="M94.8,163.9c1.1-0.4,2.1-0.8,3.2-1.3c2.9-0.8,5.9-1.6,8.8-2.4c0.4,0.2,0.8,0.5,1.2,0.8
						c-3.5,0.4-6.8,1.4-10,2.8c-0.8,0.2-1.6,0.5-2.3,0.7C95.3,164.3,95.1,164.1,94.8,163.9z"/>
				</g>
				<g>
					<path class="st22" d="M112.2,219.3c2.9,3.1,5.7,6.2,8.6,9.2c-0.3,0.3-0.6,0.5-0.9,0.8c-1.5-2.8-4.3-4.5-6.1-7.1
						c-0.6-0.9-1.3-1.7-2-2.5C111.9,219.6,112,219.4,112.2,219.3z"/>
				</g>
				<g>
					<path class="st15" d="M109.8,150.6c-0.3,0.1-0.5,0.2-0.8,0.4C109.3,150.8,109.6,150.7,109.8,150.6z"/>
				</g>
				<g>
					<path class="st15" d="M110.6,150.2c-0.2,0.1-0.5,0.2-0.8,0.3C110.1,150.4,110.4,150.3,110.6,150.2z"/>
				</g>
				<g>
					<path class="st18" d="M137.5,202.6c-0.2-0.1-0.4-0.2-0.5-0.3C137.2,202.4,137.4,202.5,137.5,202.6z"/>
				</g>
			</g>
			<g>
				<path class="st2" d="M89.6,103c0,0-38.5,14.3-39.7,37.9c0,0-4.8,22.2,23.3,42.4c0,0,12.2,19.6,20,20.1c0,0,4.2-1.6,3-4.4
					c0,0,6.9,5.8,9.9,1.4c0,0,2.6-5-1.5-7.4c0,0,7.5,5.6,9.8,1c0,0,2.1-3.7-5.9-10.3c0,0,7.3-0.4,6.2-4.6c0,0-10.4-20.2-31.8-12.2
					l-1.4-0.4c0,0-12.3-21.2,8.7-32.1l9.3-3.1C99.4,131.2,104.6,113.3,89.6,103z"/>
			</g>
			<g>
				<path class="st7" d="M120.9,130.2c-14.4,0.9-38.2,2.7-41.2,20.1c-0.8,5.2,0.5,10.9,2.6,16c0.3,0.6,0,1.4-0.7,1.6
					c-0.6,0.2-1.2,0-1.6-0.5c-1.6-2.6-2.8-5.4-3.5-8.4c-4.5-18.3,10.8-27.9,26.8-30.2c5.8-1,11.7-1.2,17.6-1.2
					C122.5,127.8,122.6,130.1,120.9,130.2L120.9,130.2z"/>
			</g>
			<g>
				<path class="st7" d="M75,183.1c2.6,4.9,6.2,9.6,10.3,13.3c2.2,1.9,4.5,3.7,7.1,5c0.3,0.2,0.6,0.2,0.9,0.2
					c0.4-0.1,0.6-0.3,0.9-0.7c0.6-0.9,0.6-1.6-0.1-2.4c-1.1-1.2,0.6-2.8,1.8-1.8c1.6,1.3,1.8,4,0.6,5.6c-1.1,1.9-3.7,2.6-5.6,1.4
					c-6.9-3.4-12.4-8.9-16.8-15c-0.9-1.2-1.7-2.5-2.5-3.9c-0.5-0.9-0.2-2.1,0.7-2.7C73.3,181.7,74.6,182.1,75,183.1L75,183.1z"/>
			</g>
			<g>
				<path class="st7" d="M86.1,188.3c3.8,3.5,7.8,7.2,12.1,9.9c1.4,0.9,3,2.1,4.7,2c3.1-0.6,3.1-3.5,1.2-5.6l0.2,0.1
					c-1.2-0.9-2.3-1.7-3.4-2.6c-3.2-2.9-6.9-5.6-8.4-9.8c-0.1-0.5,0.6-0.8,0.8-0.3c1.2,2.4,3.6,4.1,5.6,5.9c2.2,1.8,4.6,3.4,6.9,5
					c3.7,3.5,2.9,8.5-2.5,9.4c-2.4,0.2-4.6-0.6-6.5-1.8c-2.4-1.5-4.4-3.4-6.2-5.4c-1.9-2-3.6-4-5.1-6.3
					C85.1,188.5,85.7,187.9,86.1,188.3L86.1,188.3z"/>
			</g>
			<g>
				<path class="st7" d="M105.1,192.4c2,0.9,7.5,3.6,8.1,0.1c0-1.8-2.3-4.5-2.9-5.2c-0.8-0.4-16.4-13.9-11.9-12.8
					c3.9,4.1,8.9,7.3,13.5,10.8c1.3,1.3,2.5,2.7,3.4,4.4c2.1,3.1,0.1,7.6-3.8,7.7c-2.9-0.1-5.4-1.2-7.7-2.6
					c-0.6-0.4-0.8-1.1-0.4-1.7C103.8,192.2,104.5,192.1,105.1,192.4L105.1,192.4z"/>
			</g>
			<g>
				<path class="st7" d="M81,168.3c-1.2-0.3-1.4-2-0.3-2.6c0.4-0.2,0.7-0.3,1-0.4c4.1-1,8.3-1.3,12.4-1.1
					c8.1,0.1,15.1,5.2,19.7,11.6c2,2.6,2.6,7.3-1.6,8.2c-3,0.4-6-0.8-8.1-2.7c-0.6-0.6,0.2-1.5,0.9-1.1c2,1.6,8.9,3.7,8.3-0.7
					c-0.4-1.8-1.9-3.4-3.2-4.8c-2.8-2.9-6.1-5.6-10-6.9c-3.9-1.2-8.2-1.1-12.2-0.8c-1.9,0.2-3.8,0.5-5.6,1h-0.1
					c0.1,0,0.2-0.1,0.2-0.1c0.9-0.6,0.5-2.2-0.5-2.4C83.5,166.1,82.8,168.7,81,168.3L81,168.3z"/>
			</g>
			<g>
				<path class="st7" d="M65.2,114.7c-2.8,2.2-5.7,5-8.2,7.6c-7,6.7-10.6,16.9-9.4,26.5c2,15.4,13.1,27.3,24.4,36.8
					c1.9,1.5,4.2-1.3,2.3-2.9c-5.5-4.6-10.7-9.6-14.8-15.4c-9.8-13-12-30.2,0.4-42.2c1.7-1.8,4-3.9,5.8-5.6
					c18.1-15.6,42.5-22.8,66.1-24.2c0,0,1.7-1.5,1.2-3.6s-11.8-0.3-16,0.4C98.2,95.4,80,102.5,65.2,114.7z"/>
			</g>
		</g>
		<g>
			<path class="st7" d="M90.8,102c8.5,5.3,11.7,16,10.8,25.5c-0.2,1.3-0.4,2.6-0.5,3.9c-0.1,0.7-0.7,1.2-1.4,1.1
				c-0.7-0.1-1.1-0.7-1.1-1.3c0.1-1.3,0.2-2.6,0.2-3.8c0.2-8-2.7-16.8-9.9-21C85.2,105.2,87.5,100.1,90.8,102L90.8,102z"/>
		</g>
	</g>
</g>
<g id="cabeza">
	<g>
		<g>
			<g>
				<path class="st2" d="M158.2,55c0,0-7.1-3.9-11.7,3c0,0-4.3,12.6,7.9,17c0,0,5.6,1.9,9.7-1.2c0,0,1.2,7.5,2.3,10.9
					c0,0,1.6,8.4,10,14.9c8.5,6.5,15.5,7.4,15.5,7.4s16.6-0.1,24.9-12.4c0,0,10.5-5.5,7.3-21.2c0,0-2.2-14.2,5.8-20.3
					c0,0-9,1.7-16.6-10c0,0-7.3-1-10.9-4.4c0,0-5.8,5.4-17.9,0.3c0,0-0.2,9-10.9,6.9C173.6,46,170.1,58.8,158.2,55z"/>
			</g>
			<g>
				<path class="st23" d="M149.6,55.3c-0.4,0.2-5.3-11.8,0.2-18.3c0,0-8.6-15.7,9.7-23.1c0,0,7.1-3.2,13-1.7c0,0,8.3-20.8,35.3-3.8
					c0,0,19.7-3.6,24.4,25.2c0,0,1,10.5,7.8,11.9c0,0,2.3,4.4-3.2,5.9c0,0-12.6,7.8-22.7-8.4c0,0-6.2,0.8-10.9-3.9
					c0,0-11.4,3.9-18.6-0.6c0,0-1.7,8.8-11.4,8.8c0,0,0.1,9.9-11.5,12.2C161.6,59.3,156.9,50.3,149.6,55.3z"/>
			</g>
		</g>
		<g>
			<g>
				<path class="st7" d="M208.1,78.5c-1.1,0-2.4-0.1-3.9-0.5c-0.7-0.2-1-0.9-0.9-1.6c0.2-0.7,0.9-1,1.6-0.9c2.4,0.6,4.2,0.5,5.2-0.2
					c0.5-0.4,0.7-0.9,0.7-1.3c-4.8-3-5.7-12.2-5.7-12.6c0-0.7,0.4-1.3,1.1-1.3c0.7,0,1.3,0.4,1.3,1.1c0.2,2.5,1.6,9.4,5.1,11
					l0.6,0.3l0,0.7c0,0.9-0.2,2.8-1.6,4.1C210.8,78,209.5,78.5,208.1,78.5z"/>
			</g>
			<g>
				<path class="st7" d="M164.9,73.6c1,9.5,5.1,19.3,12.6,25.3c3.5,3,7.9,5.1,12.5,5.4c9.3,0.6,18.7-4.3,25.7-10.5
					c3.4-3.2,6.9-6.8,7.6-11.6c0.4-2.4-0.1-4.8-0.3-7.2c-0.4-5.2-0.1-10.4,1.6-15.3c0.9-2.4,2.2-4.9,4-6.9c0.5-0.5,1.3-0.6,1.8-0.1
					c0.5,0.5,0.6,1.3,0.1,1.8c-1.7,1.6-2.9,3.7-3.9,6c-1.7,4.5-2,9.6-1.5,14.4c0.3,2.6,0.9,5.2,0.5,7.7c-0.5,5.3-4.1,9.8-7.6,13.5
					c-7.2,7.4-17.6,13.2-28.2,12.2c-13.6-1.3-23.2-14.2-25.3-27c-0.4-2.6-0.7-5.1-0.6-7.7c0-0.3,0.3-0.6,0.6-0.5
					C164.6,73.1,164.9,73.3,164.9,73.6L164.9,73.6z"/>
			</g>
			<g>
				<path class="st7" d="M160.6,58.9c-1.2-1.6-2.6-2.9-4.2-3.4c-3.3-1.2-6.9,1.1-8.2,4.1c-2.6,4.9,0.4,11.4,5.2,13.8
					c3.3,1.7,7.3,2.1,10.4-0.2c0.6-0.5,1.4,0.4,0.9,1c-2.9,3.6-8.7,3.7-12.6,1.4c-4-2.2-6.6-6.1-7.8-10.5
					c-2.9-11,12.7-18.3,17.1-6.5C161.8,59.1,160.9,59.5,160.6,58.9L160.6,58.9z"/>
			</g>
			<g>
				<path class="st7" d="M158.7,57.8c4.1,0.5,8.2-1.8,10.4-5.2c1.6-2.1,2.6-4.6,3.6-7.1c0.2-0.4,0.9-0.3,0.8,0.2
					c0.1,7.3-4.5,13.9-12.2,14.7c-1.3,0-4.3,0.6-4.2-1.5C157.3,58.1,158,57.7,158.7,57.8L158.7,57.8z"/>
			</g>
			<g>
				<path class="st7" d="M173,46.4c4.5-1.5,10.3-2.3,9.8-8.4c-0.2-1.6,2.1-1.9,2.5-0.4c1.6,6.5-4.1,10-9.9,10.1
					c-0.1,0-2.1,0.1-2.1,0.1C172.5,47.7,172.3,46.6,173,46.4L173,46.4z"/>
			</g>
			<g>
				<path class="st7" d="M195.6,66.5c-0.6,0-1.1-0.4-1.2-0.9c-0.4-1.3-1-3-2.2-3.3c-1.8-0.4-4.5,2-5.4,2.9c-0.5,0.5-1.3,0.6-1.8,0.1
					c-0.5-0.5-0.6-1.3-0.1-1.8c0.4-0.5,4.2-4.5,7.8-3.6c1.9,0.4,3.3,2.2,4.1,5c0.2,0.7-0.2,1.3-0.8,1.5
					C195.8,66.5,195.7,66.5,195.6,66.5z"/>
			</g>
			<g>
				<path class="st7" d="M221,67c-0.4,0-0.9-0.2-1.1-0.6c-0.6-1.1-1.4-1.6-2.2-1.7c-1.3-0.1-2.7,1-3,1.5c-0.5,0.5-1.3,0.6-1.8,0.1
					c-0.5-0.5-0.6-1.3-0.1-1.8c0.2-0.2,2.4-2.6,5.2-2.3c1.6,0.1,2.9,1.1,4,2.9c0.3,0.6,0.2,1.4-0.4,1.7C221.4,67,221.2,67,221,67z"
					/>
			</g>
			<g>
				<path class="st7" d="M180.5,59.8c0.3-5.1,5.9-8.8,10.8-7.6c0.5,0.1,0.5,0.8,0,0.9c-4.1,1.1-7.6,3.2-9.8,6.8
					C181.2,60.5,180.5,60.3,180.5,59.8L180.5,59.8z"/>
			</g>
			<g>
				<path class="st7" d="M155.4,69.6c-1.2,0.1-2.4-0.5-3.3-1.6c-0.8-1-1.4-2.1-1.4-3.4c-0.2-2.2,0.3-3.6,1.5-4.5
					c1.6-1.1,3.6-0.3,3.8-0.2c0.6,0.3,0.9,1.1,0.6,1.7c-0.3,0.6-1.1,0.8-1.7,0.6c-0.3-0.1-1-0.3-1.3,0s-0.6,0.8-0.4,2.2
					c0,0.7,0.4,1.4,0.9,2c0.7,0.9,1.4,0.7,1.9,0.5c0.6-0.2,1.4,0,1.6,0.7c0.2,0.7,0,1.4-0.7,1.6C156.4,69.5,155.9,69.6,155.4,69.6z"
					/>
			</g>
			<g>
				<path class="st7" d="M198.5,88.6c-5.5,0.2-9-4-10.2-6.7c-0.2-0.6,0-1.4,0.6-1.6c0.6-0.2,1.4,0,1.6,0.6l0,0
					c0.1,0.3,3.2,6.9,9.9,4.9c0.7-0.2,1.4,0.1,1.5,0.8c0.2,0.7-0.1,1.3-0.8,1.5C200.3,88.4,199.4,88.5,198.5,88.6z"/>
			</g>
			<g>
				<path class="st7" d="M185.2,37.5c4.8,1.4,10,2.1,15,0.9c1.7-0.5,3.2-1.1,4.7-2.1c0.6-0.3,1.1,0.5,0.6,0.9
					c-4,4.1-10.3,5.2-15.8,4.6c-1.9-0.2-3.6-0.5-5.6-1.3c-0.8-0.3-1.3-1.2-1-2.1C183.5,37.7,184.4,37.2,185.2,37.5L185.2,37.5z"/>
			</g>
			<g>
				<path class="st7" d="M203.9,37.8c1.3,0.3,2.1,1.4,3.2,2.1c2.8,1.9,6.2,2.4,9.5,2.1c0.7,0,1.4-0.3,2.1-0.3c0.3,0,0.5,0.2,0.6,0.5
					c0,0.2-0.1,0.4-0.3,0.5c-4.1,2.2-9.4,2.4-13.6,0.2c-1.4-0.7-3-1.5-3.5-3.4c-0.3-1,0.6-1.9,1.5-1.7
					C203.4,37.7,203.9,37.8,203.9,37.8L203.9,37.8z"/>
			</g>
			<g>
				<path class="st7" d="M149.9,55.4c-2.4-1.1-3.3-3.8-3.8-6c-1.5-6.5,1.7-14,7.5-17.2c0.8-0.4,1.5,0.7,0.9,1.3
					c-5.4,4.1-7.2,11.8-4.3,17.9c0.4,1.1,0.7,1.7,1.2,2.3C152,54.4,151,55.8,149.9,55.4L149.9,55.4z"/>
			</g>
			<g>
				<path class="st7" d="M214.4,43c5.3,7.7,15.4,11.5,23.7,6.2c1.2-0.6,1.2-2,0.1-2.3c-5.8-2.3-8.3-9.1-7.4-14.9
					c0.1-0.7,0.8-1.1,1.4-1.1c0.6,0.1,1.1,0.7,1.1,1.3c0,3.8,0.8,7.9,3.8,10.4c0.8,0.8,1.9,1.2,2.9,1.7c1.3,0.7,2.1,2.2,2.1,3.7
					c0,3.2-3.2,4.3-5.7,5.2c-6.6,2.6-14.1,0.6-19.1-4.2c-1.7-1.5-3.1-3.3-4.1-5.2c-0.2-0.4,0-0.8,0.3-1
					C213.8,42.6,214.2,42.8,214.4,43L214.4,43z"/>
			</g>
			<g>
				<path class="st7" d="M146.3,37.1c-2.6-7.5,0.4-15.9,6.3-20.8c5.7-4.7,13.4-6.3,20.7-5.4l-1.1,0.5c5.2-11.5,16.3-12.4,27.1-9
					c3.3,1.1,6.5,2.9,9,5.4c0.5,0.5,0.6,1.3,0.1,1.8c-0.5,0.5-1.3,0.5-1.8,0c-2.3-2.2-5-3.9-8-4.9c-10.1-3.3-20.1-2.6-24.8,8.3
					c-6.7-0.6-14.1,0.9-19.2,5.5c-4.5,4.1-6.9,11.3-4.6,17C151,38.2,147.3,39.7,146.3,37.1L146.3,37.1z"/>
			</g>
			<g>
				<path class="st7" d="M204.4,11.1c3.8-4.4,10.7-4.1,15.6-1.4c6.4,3.7,9.9,10.6,12.4,17.2c0.4,1.4,2.2,6.7-0.3,6.7
					c-0.7,0-1.2-0.5-1.3-1.2c-0.1-1.6-0.3-3.2-0.7-4.9c-2.4-11-13.6-22.5-25.1-15.7C204.6,12.1,204,11.5,204.4,11.1L204.4,11.1z"/>
			</g>
		</g>
	</g>
</g>
<g>
	<path class="st7" d="M119.1,137.1c0.8-5.5,1.5-11,2.7-16.4c0.2-0.8,1.3-0.7,1.4,0.1c0.5,5.5,0.2,10.9-0.4,16.3
		C122.4,140.9,118.6,140.7,119.1,137.1z"/>
</g>
</svg>
