<?xml version="1.0" encoding="utf-8"?>
<!-- Generator: Adobe Illustrator 28.2.0, SVG Export Plug-In . SVG Version: 6.00 Build 0)  -->
<svg version="1.1" id="Capa_28" xmlns="http://www.w3.org/2000/svg" xmlns:xlink="http://www.w3.org/1999/xlink" x="0px" y="0px"
	 viewBox="0 0 295.3 427.3" style="enable-background:new 0 0 295.3 427.3;" xml:space="preserve">
<style type="text/css">
	.st0{fill:#F0D4B6;}
	.st1{fill:#002346;}
	.st2{fill:#FFFFFF;}
	.st3{fill:#123A64;}
	.st4{fill:#010001;}
	.st5{fill:#E33D28;}
	.st6{fill:none;stroke:#002346;stroke-width:3;stroke-linecap:round;stroke-miterlimit:10;}
	.st7{fill:none;stroke:#002346;stroke-width:6.5752;stroke-linecap:round;stroke-miterlimit:10;}
	.st8{fill:#6C4920;}
</style>
<g id="cuerpo">
	<g>
		<path class="st0" d="M123.1,103.2c0,0-0.7,12.8-6.3,18.1c0,0,4,33.8,24.6,39.1c0,0,14.5-4.2,14.6-16.8c0,0,0.8-8.5,2-9.6
			C158,134,166.1,94.7,123.1,103.2z"/>
		<path class="st1" d="M153.7,111.3c0,0,4.2,15.9,3.1,22.8c0,0,1.4,4.6,2.5,1.6s2.1-10.8,0-19.9S152.6,106.8,153.7,111.3z"/>
	</g>
	<g>
		<path class="st2" d="M96.9,135.8c0,0,1.4-15.7,19.9-14.4c0,0,4.9,33.8,21.3,38.5c2.1,0.6,3.3,0.6,3.3,0.6s17.7-8.5,16.2-17.7
			c0,0,31.4,22.6,35.1,55.2c0,0,15.2,74.1,28.1,83c0,0-31.1,12.8-37.8,19.5c0,0-14.6-25-15.6-35.4l-4.2,1.8c0,0,12.4,20.2-2.2,34.5
			c0,0-40,24.7-93,10.7c0,0-58.6,0-45.1-20.4c0,0,11-9.8,11.3-23.5l1.2-52.8C35.3,215.4,34.7,153.8,96.9,135.8z"/>
	</g>
	<g>
		<path class="st3" d="M28.5,306.2c0,0-28.2,15.8-25.3,48.8c0,0,2.6,34.8,26.4,40.7c0,0,5.1-18,20.5-18.3c0,0,15.8,4.8,27.9,2.2
			c0,0,39.9,27.5,89.4,31.2c0,0,9.2,3.3,5.5-20.9l4.8-18.3c0,0,49.5-10.6,57.9-13.9c0,0,41.8-12.8,51.7-32.6c0,0,13.9-19.4-5.1-38.5
			c0,0-26.8-20.2-61.9-4.4c0,0-32.6,8.8-48.8,27.1c0,0-10.3-2.9-10.6-7.7C160.8,301.4,122.2,330,28.5,306.2z"/>
	</g>
	<g>
		<path class="st4" d="M51.6,377c0,0-13.9-1.2-19.8,11.9c0,0-9.6,30.5,11.9,34.9c0,0,13.9,8.4,35.1-12.2c0,0,29-8.7,33.7-15.1
			c0,0-22.4-9.9-36-17.7C76.6,378.7,68.4,382.8,51.6,377z"/>
	</g>
	<g>
		<path class="st4" d="M179.1,370.4c0,0,51.9-17.2,68.4,1.2c0,0,14.9,16.3-8.6,27.5c0,0-49.1,1.4-64.9,0c0,0-1.9-13,1.4-18.8
			L179.1,370.4z"/>
	</g>
	<g>
		<path class="st5" d="M133.8,167.9c-8-3.2-14.9-11.6-20.7-25c-4.2-9.9-6.1-18.6-6.2-19l2.4-0.5c0.1,0.3,7.7,35.1,25.4,42.2
			L133.8,167.9z"/>
	</g>
	<g>
		<path class="st5" d="M128.3,172.3c-8.1-2.2-15-10.7-20.7-25.2c-4.2-10.6-6.1-20.7-6.1-20.8l2.5-0.5c0.1,0.4,7.5,39.2,25,44.1
			L128.3,172.3z"/>
	</g>
	<g>
		<path class="st5" d="M145.7,165.1l-0.4-2c10.1-2,14.9-17.5,15-17.7l1.9,0.6C161.9,146.7,156.9,162.9,145.7,165.1z"/>
	</g>
	<g>
		<path class="st5" d="M151.7,169.3l-0.8-1.9c9.4-3.9,12.4-18,12.4-18.2l2,0.4C165.2,150.3,162,165,151.7,169.3z"/>
	</g>
	<g>
		<path class="st5" d="M94.2,196.7C90.9,159.8,78,144,77.8,143.9l0.6-1.4c0.6,0.2,13.9,16.1,17.3,54L94.2,196.7z"/>
	</g>
	<g>
		<path class="st5" d="M100,237.1l-0.3-36.4c0-55.2-15.9-60.2-16-60.2l0.4-1.4c0.7,0.2,17.2,5,17.2,61.7l0.3,36.4L100,237.1z"/>
	</g>
	<g>
		<path class="st5" d="M106.5,248.1l-0.8-47.4c0-55.5-15.6-61.7-15.7-61.8l0.5-1.4c0.7,0.2,16.7,6.6,16.7,63.2l0.8,47.4L106.5,248.1
			z"/>
	</g>
	<g>
		<polygon class="st5" points="108,316 106.5,315.9 107.8,262.3 109.3,262.3 		"/>
	</g>
	<g>
		<polygon class="st5" points="102,316 100.5,315.9 102.1,252.3 103.6,252.4 		"/>
	</g>
	<g>
		<polygon class="st5" points="95.7,316 94.2,315.9 95.8,254.8 97.2,254.8 		"/>
	</g>
	<g>
		<polygon class="st5" points="90,316 88.5,315.9 90.5,245.6 92,245.7 		"/>
	</g>
	<g>
		<polygon class="st5" points="83.9,316 82.4,315.9 84.6,235.9 86.1,236 		"/>
	</g>
	<g>
		<polygon class="st5" points="76.9,316.1 75.4,316.1 77.8,245 79.3,245 		"/>
	</g>
	<g>
		<polygon class="st5" points="70.4,316 68.9,315.9 71.6,246.1 73.1,246.1 		"/>
	</g>
	<g>
		<polygon class="st5" points="63.3,313.4 61.8,313.3 65,236 66.5,236 		"/>
	</g>
	<g>
		<polygon class="st5" points="56.9,312.1 55.4,312.1 59.5,222.3 61,222.4 		"/>
	</g>
	<g>
		<polygon class="st5" points="50.1,312.1 48.6,312.1 54,188 55.5,188.1 		"/>
	</g>
	<g>
		<polygon class="st5" points="44.2,310.3 42.7,310.2 47.9,179.7 49.4,179.8 		"/>
	</g>
	<g>
		
			<rect x="-22.3" y="248.1" transform="matrix(4.230021e-02 -0.9991 0.9991 4.230021e-02 -210.9453 277.6578)" class="st5" width="123.3" height="1.5"/>
	</g>
	<g>
		
			<rect x="-16.6" y="258.3" transform="matrix(5.659983e-02 -0.9984 0.9984 5.659983e-02 -226.6854 278.274)" class="st5" width="100.9" height="1.5"/>
	</g>
	<g>
		<path class="st5" d="M112.7,256.6l-0.2-0.7l-0.7-0.3c0.2-0.4,1.4-20.1-0.8-85.3l1.5-0.1c1.3,36.8,1.4,54.3,1.3,62.6
			C113.6,242.3,113.2,256.5,112.7,256.6z"/>
	</g>
	<g>
		<path class="st5" d="M113.5,315.8l-0.9-0.4l0.7-0.4l-0.1-0.7c-0.3,0-0.5,0.3-0.6,0.4c0.1-0.3,0.2-34,0.2-51.1h1.5
			C114.4,283.9,114.2,315.6,113.5,315.8z"/>
	</g>
	<g>
		<path class="st5" d="M119.4,258.6l-1.5-0.1c2.2-27.7-0.5-80.3-0.6-80.7l1.5-0.1C118.9,178.1,121.6,230.8,119.4,258.6z"/>
	</g>
	<g>
		<path class="st5" d="M120.1,314.2l-1.5,0c0.2-9.4,0-48.4-0.1-48.5l1.5-0.1C120.1,265.7,120.4,304.7,120.1,314.2z"/>
	</g>
	<g>
		<path class="st5" d="M125.5,259.6l-1.5-0.1c2.2-27.7-1.1-82.5-1.1-82.9l1.5-0.1C124.4,176.9,127.7,231.8,125.5,259.6z"/>
	</g>
	<g>
		<path class="st5" d="M131.4,259l-1.5-0.2c3.5-29.1-1.2-87-1.3-87.5l1.5-0.2C130.2,171.7,134.9,229.8,131.4,259z"/>
	</g>
	<g>
		<path class="st5" d="M130.2,315.3l-1.5-0.1c0.9-20.9,1.5-45.2,1.5-45.4l1.5,0.2C131.7,270,131.1,294.5,130.2,315.3z"/>
	</g>
	<g>
		<path class="st5" d="M125,314.8l-1.5-0.1c0.4-8.5,0.6-34.5,0.7-38c0-1.4,0-2,0-2.4c0-0.1-0.1-9.8-0.1-9.9l0.7-0.1l0.4-0.8
			C125.7,263.9,126,293.6,125,314.8z"/>
	</g>
	<g>
		<path class="st5" d="M136.8,259l-1.5-0.1c3.1-37.2-0.3-91.7-0.4-92.1l1.5-0.1C136.4,167,139.9,221.7,136.8,259z"/>
	</g>
	<g>
		<path class="st5" d="M135.4,313.1l-1.5-0.1c1.3-15.1,1.7-41.6,1.8-44.4c0,0,0-0.8,0.1-1.5s0.3-1.5,0.7-1.5c0.4,0,0.6,0.1,0.7,1.4
			C137.3,269.4,136.9,295.7,135.4,313.1z"/>
	</g>
	<g>
		<path class="st5" d="M142.7,311.4l-1.5-0.1c1.4-16.5,1.4-22.7,1.2-25.1c0,0.1-0.1,0.2-0.1,0.4l-1.4-0.4c0.7-2.5,1.4-2.7,1.9-2.6
			C143.8,283.8,145,284,142.7,311.4z"/>
	</g>
	<g>
		<path class="st5" d="M149.1,254.2l-1.5-0.2c1.5-9.3-1.2-87.3-1.2-88l1.5-0.1C148,168.6,150.6,244.7,149.1,254.2z"/>
	</g>
	<g>
		<path class="st5" d="M148.6,309.5l-1.5-0.2c1.5-9.3,0.6-29.2,0.6-29.4l1.5-0.1C149.2,280.7,150.1,300.1,148.6,309.5z"/>
	</g>
	<g>
		<path class="st5" d="M154.8,252.4l-1.5-0.2c1.2-11.5-0.9-80-1-80.5l1.5-0.1C153.9,173.9,156.1,240.7,154.8,252.4z"/>
	</g>
	<g>
		<path class="st5" d="M154.6,306l-1.5-0.2c1.2-11.5-0.4-29.9-0.4-30l1.5-0.1C154.3,275.9,155.9,294.4,154.6,306z"/>
	</g>
	<g>
		<path class="st5" d="M160.2,300.4l-1.5-0.2c1.2-11.5-0.4-29.9-0.4-30l1.5-0.1C159.9,270.3,161.5,288.8,160.2,300.4z"/>
	</g>
	<g>
		<path class="st5" d="M159.8,252.4l-1.5-0.2c1.2-11.5-0.9-74.8-1-75.3l1.5-0.1C158.9,179,161,240.7,159.8,252.4z"/>
	</g>
	<g>
		<path class="st5" d="M187.3,205.7c-1.7-23.7-20.9-47.3-21.1-47.5l1.2-0.9c0.2,0.2,19.7,24.2,21.4,48.4L187.3,205.7z"/>
	</g>
	<g>
		<path class="st5" d="M183.9,213.8h-1.5c0-16-16.1-48.4-16.3-48.7l1.3-0.8C167.5,164.6,183.9,197.5,183.9,213.8z"/>
	</g>
	<g>
		<path class="st5" d="M177.6,223.9c-2.3-25.7-14-52.9-14.1-53.2l1.4-0.6c0.1,0.3,11.9,27.8,14.2,53.7L177.6,223.9z"/>
	</g>
	<g>
		<path class="st5" d="M172.2,230.1c-2.8-24.3-9.9-50.2-11.6-51.7c0,0,0.1,0.1,0.3,0.1l0-1.5c0.6,0,2.1,0,6.4,17.6
			c2.8,11.6,5.2,24.5,6.4,35.3L172.2,230.1z"/>
	</g>
	<g>
		<path class="st5" d="M190.9,295.5c-8.8-1.2-19.1-31.4-19.6-32.7l1.4-0.5c2.9,8.5,11.8,30.8,18.3,31.7L190.9,295.5z"/>
	</g>
	<g>
		<path class="st5" d="M197,293.7c-6.5-1.9-18.1-29.5-19.4-32.6l1.4-0.6c3.5,8.3,13.6,30.3,18.5,31.8L197,293.7z"/>
	</g>
	<g>
		<path class="st5" d="M202.8,289.3c-6.5-1.9-18.1-29.5-19.4-32.6l1.4-0.6c3.5,8.3,13.6,30.3,18.5,31.8L202.8,289.3z"/>
	</g>
	<g>
		<path class="st5" d="M207.5,287c-4.9-3.6-17.1-32-17.7-33.2l1.4-0.6c3.5,8.1,13.4,29.8,17.2,32.6L207.5,287z"/>
	</g>
	<g>
		<path class="st5" d="M213.3,283.4c-6.1-5.7-15.2-30.4-15.6-31.4l1.4-0.5c0.1,0.2,9.4,25.4,15.2,30.9L213.3,283.4z"/>
	</g>
	<g>
		<path class="st5" d="M89.2,193.1c-0.1-0.2-8.9-37.5-18.4-44.6l0.9-1.2c9.8,7.4,18.6,44.6,18.9,45.3L89.2,193.1z"/>
	</g>
	<g>
		<path class="st1" d="M156.4,146c-0.7,0-1.3-0.5-1.5-1.2c-1.3-5.7,1.7-10.5,1.8-10.7c0.4-0.7,1.4-0.9,2.1-0.5
			c0.7,0.4,0.9,1.4,0.5,2.1l0,0c0,0-2.5,4-1.4,8.5c0.2,0.8-0.3,1.6-1.1,1.8C156.7,146,156.6,146,156.4,146z"/>
	</g>
	<g>
		<path class="st1" d="M158.9,143.5c-2.6,9-9.7,16.6-18.8,19.2c-12.8-4.6-20.4-17.7-23.8-30.2c-0.8-2.8-1.3-5.7-1.7-8.6
			c0-0.1,0,0,0-0.1l0,0c0-0.1-0.1-0.1-0.1-0.1c0,0,0,0-0.1,0c-0.6,0-1.2-0.1-1.8,0c-5.1,0.2-11.1,2.6-13,7.7
			c-0.3,1.1-0.4,2.4-0.1,3.5c1.5,6,3.2,11.9,5.4,17.6c2.1,5.8,4.6,11.4,7.8,16.5c0.8,1.3,1.7,2.5,2.6,3.7c0.8,1,1.5,2.1,2.7,2.7
			c1.2,0.6,2.8,0.4,3.9-0.4l0.9-0.7l1.9-1.4c4.8-3.6,10-7.2,14-11.8c0.5-0.6,1.4-0.8,2.1-0.3c0.6,0.5,0.8,1.4,0.3,2.1
			c-1.1,1.4-2.2,2.5-3.4,3.6c-4.1,3.7-8.5,7.1-12.9,10.4c-4.3,3.7-9.2,2.4-12.2-2.1c-4.9-6.3-8.3-13.7-11.2-21
			c-2.3-5.9-4.2-11.9-5.8-18c-0.5-1.9-0.5-3.9,0.1-5.7c1.6-5.2,6.8-8.8,11.8-10.2c2.6-0.7,5.2-1,7.9-0.8c2.2,0.3,3.9,2.2,4.1,4.4
			l0.2,1.1c1.3,8.1,4.2,16.1,8.8,22.8c3.4,4.9,7.6,8.9,12.6,12.3l-1.1-0.1c7.5-2.8,13.2-9.6,14.9-17.4
			C155.4,139.4,159.7,140.6,158.9,143.5L158.9,143.5z"/>
	</g>
	<g>
		<path class="st1" d="M142.2,159.8c0.6-0.1,1.2,0.1,1.6,0.4c5.2,3.6,9.6,8.3,13.5,13.3l0.1,0.2l0.1,0.1l0,0
			c0.5,0.7,1.6,0.7,2.2,0.1c0.2-0.2,0.4-0.6,0.5-0.9c3.5-7,5.2-15,3.7-22.7c0-0.5-0.4-0.7-0.8-1c-2.4-2.1-4.9-4.1-7.3-6.2
			c-0.6-0.6-0.7-1.5-0.1-2.1c0.5-0.6,1.4-0.7,2-0.2c2.6,1.9,5.1,3.8,7.7,5.7l-0.2-0.2c1,0.5,1.8,1.5,2.2,2.6
			c2.4,8.7,0.8,18.1-3.2,26.1c-1.3,3.5-5.7,5.1-8.8,3c-0.7-0.5-1.3-1.1-1.8-1.8c-1-1.3-2-2.6-3.1-3.9c-2.6-3.1-5.5-6.4-8.3-9.4
			l-0.2-0.2c0,0,0,0-0.1-0.1c0,0,0.1,0,0.1,0c0.3,0.1,0.6,0.1,0.8,0C141,163.1,140.3,160.3,142.2,159.8L142.2,159.8z"/>
	</g>
	<g>
		<path class="st1" d="M96.3,138.5c-22.1,3.9-40.4,20.6-49.4,40.8c-6.2,13.7-8.8,28.9-9.4,43.9c-0.2,5.7-0.1,11.4,0.1,17.1
			c0.2,9.8-0.3,19.4-2,29.1c-1.4,8-3.5,15.8-7.8,22.9l-0.7,0.7c-5.6,4.9-1.7,8.8,3.6,11.6l-0.8-0.3c31.4,6.6,64.2,11.1,96.2,7.1
			c10.4-1.5,21-4.2,29.8-10c2.6-1.3,5.1-3.5,6.8-6c5.4-8,2.8-18.4-1.2-26.5c-0.4-0.8-0.1-1.6,0.7-2c0.7-0.4,1.6,0,2,0.7
			c1.5,3,2.9,6.1,3.8,9.4c2.5,8.4,1.2,18.5-5.7,24.5c-18,14.7-45.1,16.7-68.5,16.6c-22.2-0.4-44-3-65.8-7.3
			c-9.9-4.5-15-13.8-6.2-22.7c0.2-0.2,0.4-0.4,0.8-0.7l-0.7,0.7c2.1-2.7,3.8-5.9,5.1-9.2c4.1-10.4,5.5-21.7,5.9-32.9
			c0.3-7.6-0.3-15.4,0.1-23c1-31,12.6-64.1,40.3-80.8c5.9-3.6,12.3-6.5,19.1-8.3c2.2-0.5,5.3-1.7,6.1,1.5
			C98.8,137,97.8,138.4,96.3,138.5L96.3,138.5z"/>
	</g>
	<g>
		<path class="st1" d="M166.1,147c10.6,10.5,19.9,22.4,25.8,36.2c1.9,4.7,3.4,9.6,3.8,14.8c0.1,1.4-0.9,2.6-2.3,2.8
			c-1.4,0.1-2.7-1-2.8-2.4c-1.1-14.1-9.1-26.9-17.5-38c-2.9-3.8-6.1-7.5-9.4-10.9C162.2,147.9,164.4,145.5,166.1,147L166.1,147z"/>
	</g>
	<g>
		<path class="st6" d="M141.7,242.5"/>
	</g>
	<g>
		<path class="st1" d="M138.7,240.6c2-12.6,2.8-25.4,3-38.2c0.1-11.1,0.1-22.3-1.7-33.3c-0.2-1.6-0.7-3.1-1.1-4.7
			c-0.3-1.3,0.5-2.6,1.8-2.9s2.6,0.5,2.9,1.8c0,0.1,0,0.2,0.1,0.3l0.3,2.5c0.3,2.5,0.4,4.9,0.5,7.4c0.5,15.8,0.1,32.4,0.3,48.2
			c0.1,6.4,0.2,12.8,0.6,19.3c0.1,1.8-1.3,3.4-3.1,3.5C140.1,244.6,138.4,242.7,138.7,240.6L138.7,240.6z"/>
	</g>
	<g>
		<path class="st1" d="M140.6,309.7c1.6-8.5,1-17.2-0.6-25.6c-0.5-3.5,4.7-4,4.8-0.4c0,8.7-0.3,17.8-1.1,26.4
			C143.5,312.3,140.2,311.9,140.6,309.7L140.6,309.7z"/>
	</g>
	<g>
		<path class="st1" d="M168.6,264.5c2.3,7.3,8.6,27.4,15,30.9c3.7,1.1,2.3,6.6-1.5,5.7c-7.9-2.8-11.9-19.2-14.2-26.7
			c-0.8-3-1.6-6.1-2.2-9.2c-0.2-0.8,0.3-1.6,1.1-1.8C167.6,263.3,168.4,263.8,168.6,264.5L168.6,264.5z"/>
	</g>
	<g>
		<path class="st6" d="M224.2,280.5"/>
	</g>
	<g>
		<path class="st1" d="M208.3,247.8c2,5.5,4.1,11,6.5,16.3c2.3,5,4.8,10.5,8.2,14.5c2.8,3.2-1.9,7.4-4.7,4.1
			c-4-5.2-6.2-10.7-8.6-16.5c-2.2-5.6-4.1-11.2-6-16.9C202.8,246.4,207.2,244.9,208.3,247.8L208.3,247.8z"/>
	</g>
	<g>
		<path class="st1" d="M29.8,309.2c-1.5,1.6-3.5,2.6-5.2,3.9c-1.8,1.2-3.5,2.6-5,4c-16.9,15.5-18.1,40.2-9,60.2
			c3.6,7.8,9.9,14.5,18.4,16.8c0.8,0.2,1.2,1.1,1,1.9c-0.2,0.8-1,1.2-1.8,1c-4.7-1-9.1-3.3-12.8-6.5c-7.2-6.4-11.3-15.5-13.4-24.7
			c-4.8-18.6-0.5-39.4,14.4-52.3c2.2-2,4.7-3.8,7.2-5.3c1.6-1,3.1-1.7,5.1-1.9C30.1,306.3,30.9,308.2,29.8,309.2L29.8,309.2z"/>
	</g>
	<g>
		<path class="st1" d="M23.9,330.1c8.6-11.2,22.8-17.8,37-17.7c13.9-0.1,28.8,6.6,39.2,14c17.6,9.5,36.3,17.6,55.8,22.6
			c5.9,0.5,17,2.4,22.6,7.9c2.8,3,3.8,7.3,2.8,11.1c-0.5,1.9-1.3,3.7-1.8,5.6c-1.7,5.3-3.2,10.7-3.9,16.2c-0.1,1.4-0.2,3.5,0.1,4.6
			c0.2,0.9,0.4,1.8,0.5,2.6c0.9,5.9-0.4,13.5-6.8,15.7l0,0l-0.5,0.2l-0.7-0.1c-9.8-1-19.3-2.8-28.8-5.1
			c-18.9-4.5-37.5-11.1-54.2-21.3c-4.2-2.6-8.2-5.4-12-8.5c-3.7-3.2-7.1-6.8-10-10.8c-0.4-0.7,0.3-1.5,1-1
			c7.8,5.6,15.3,11.2,23.5,16c24.7,13.9,52.7,22,80.8,25.3c0,0-1.2,0.1-1.1,0.1c3.2-1.1,3.8-4.9,3.7-8c-0.1-2-0.3-3.3-0.7-4.8
			c-0.3-1.9-0.2-3.7,0-5.5c0.8-5.9,2.5-11.6,4.3-17.2c0.6-1.8,1.2-3.5,1.8-5.3c0.7-2.7-0.2-5.7-2.4-7.3c-5.6-3.9-12.6-5-19.3-5.8
			c-10.1-2.5-19.9-5.7-29.5-9.6c-9.6-3.9-18.8-8.2-27.9-13.2c-5.5-3.9-11.4-7.2-17.6-9.6c-18.9-7.9-40-4.6-55,9.6
			c-0.2,0.3-0.7,0.3-0.9,0C23.8,330.7,23.8,330.4,23.9,330.1L23.9,330.1z"/>
	</g>
	<g>
		<path class="st1" d="M21.1,350.7c8.1,10.5,19.1,19.5,31.7,23.8c7.4,2.6,15.4,3.1,23,1.6c4.2-0.7,5.3,5.4,1.2,6.3
			c-17.5,2.6-34.8-5.5-47-17.6c-4-3.9-7.6-8.2-10.8-12.9c-0.3-0.5-0.2-1.2,0.3-1.5C20.1,350.1,20.8,350.2,21.1,350.7L21.1,350.7z"/>
	</g>
	<g>
		<path class="st1" d="M163.6,314c0.1-0.4,0.4-0.7,0.6-1c0.6-0.7,1.1-1.4,1.8-2c12.4-12.4,27.6-21.7,43.7-28.4
			c17.4-7.2,37.3-11.3,55.8-6.2c5.4,1.1,13.5,4.3,18.7,8.6c12.2,9.2,14.1,26,6.7,38.8c-2.5,4.6-6.2,8.5-10.2,11.6
			c-14.1,11.6-30.7,19.5-47.9,24.9c-9.4,2.9-19,5-28.6,6.5c-1.9,0.3-2.4-2.5-0.5-3c24.9-5.1,49.7-14,69.9-29.7c2.4-1.9,5-4,7.1-6.1
			c6.2-6.2,9.8-15.4,8.4-24c-1.1-8.8-8.4-15.3-16.4-18.6C244.1,274,213,286,187.5,300c-7.2,4-15.2,8.6-22,13.2l-0.7,0.5l-0.3,0.2
			l-0.1,0.1l-0.1,0.1c0,0,0-0.1,0-0.1C164.3,314.5,163.6,314.5,163.6,314L163.6,314z"/>
	</g>
	<g>
		<path class="st1" d="M132.9,342.3c19,0.1,36.2-17.6,51-28.5c8.4-6.3,17.9-11.2,27.8-14.5c9.9-3.4,20.3-5.1,30.6-5.1
			c0.5,0,0.9,0.4,0.9,0.9c0,0.5-0.4,0.8-0.8,0.9c-20.1,2.1-39.4,9.7-55.2,22.2c-15.1,11.7-33.6,32.2-54.7,27.2
			C130.8,344.8,131.1,342.3,132.9,342.3L132.9,342.3z"/>
	</g>
	<g>
		<path class="st1" d="M162.4,301.1c1.6,1.7,3.8,3.3,6,4.2c1.3,0.7,3.9,0.2,3.7,2.4c-0.4,2.5-6.1,0.6-7.6,0.1
			c-2-0.8-3.7-1.8-5.5-3.1C156.4,302.3,160,298.5,162.4,301.1L162.4,301.1z"/>
	</g>
	<g>
		<path class="st1" d="M50.9,378.1c-3.4,0.4-7.2,2-10.3,3.5l-0.7-0.5l-0.2-0.1l0,0l0,0c0,0,0.1,0,0.3,0.1c0.1,0.7,2.8-4.7,1.6-2.5
			l0,0c0,0,0,0,0,0l0.3,0.2c15,12.9,12.1,31.1,0.7,45.3l-0.5-3.6c0.2,0.1,0.6,0.4,0.8,0.5c5.7,2.7,12.2,2.2,18.1,0.1
			c6.6-2.3,12.6-6.5,17.9-11.4c9.8-3.5,19.7-6.9,29.1-11.2c1.3-0.6,2.7-1.3,3.6-2.1c1.5-1.2,3.4,1.1,1.8,2.4
			c-5.2,3.5-10.9,5.2-16.6,7.5c-5.6,2.1-11.1,4.1-16.7,6.1l0.5-0.3c-5.3,5.2-11.3,9.9-18.3,12.7c-8,3.3-18.1,3.8-25.4-1.6l1.7-2.2
			c10.6-12.1,14-27.9,1.2-39.8l-0.3-0.2l-0.1,0l-0.1-0.1c-1.2,2.2,1.5-3.2,1.6-2.5c0.4,0.2,0.3,0.2,0.6,0.3l-1.5-0.1
			c3.5-1.5,6.9-3,10.7-3.4C52.7,375,52.9,377.9,50.9,378.1L50.9,378.1z"/>
	</g>
	<g>
		<path class="st1" d="M42.6,380.7c-8.3,3.5-11.7,13.1-11.2,21.6c0.1,6,1.3,14,7.3,16.8c0.8,0.3,1.6,0.5,2.5,0.7
			c1.5,0.3,2.4,1.7,2.2,3.1s-1.7,2.4-3.1,2.2c-1.3-0.3-2.6-0.6-3.8-1.2c-7.9-3.8-9.7-14.4-9.3-21.7c-0.1-9.9,4.6-20.9,14.6-24.4
			C43.6,377.3,44.5,380.1,42.6,380.7L42.6,380.7z"/>
	</g>
	<g>
		<path class="st1" d="M62.7,386.3c7.7,3.6,10.3,13.8,7.7,21.4c-0.8,2.6-2.1,4.9-3.7,6.9c-0.3,0.3-0.7,0.4-1.1,0.1
			c-0.2-0.2-0.3-0.5-0.3-0.8c0.6-2.5,1.2-4.8,1.5-7.1c1-6.8-0.4-13.9-5.2-19C60.8,387.1,61.7,385.8,62.7,386.3L62.7,386.3z"/>
	</g>
	<g>
		<path class="st1" d="M174.7,398.1c14-0.3,28.3,0.1,42.3-0.1c11.4-0.4,29-0.5,31.4-14.6c0.9-5.7-2.8-11.5-8-14.1
			c-5.6-3-12.7-3.3-19.1-3.2c-13.7-0.1-27.3,4.2-41.6,5.7c-0.8,0.1-1.6-0.5-1.6-1.3c-0.1-0.8,0.4-1.5,1.2-1.6
			c10.3-2.2,20.5-5.6,31-7.4c3.5-0.6,7.3-1,10.8-1.1c7.5-0.4,15.2-0.1,22.2,3.4c7.5,3.7,12.7,12,11.5,20.6
			c-3.3,18.4-22.7,19.7-37.8,19.4c-14.3-0.4-28.2-1.5-42.4-2.6C172.7,401,172.8,398.2,174.7,398.1L174.7,398.1z"/>
	</g>
	<g>
		<path class="st7" d="M158.9,198.1"/>
	</g>
	<g>
		<path class="st1" d="M162.5,235c0.6-11.9,0.3-23.8-0.2-35.7c0-1.2,1.8-1.4,2-0.2c1.5,8.9,2.4,17.9,2.7,27c0.1,3,0.1,6,0,9.1
			c0,1.3-1.1,2.3-2.4,2.2C163.4,237.4,162.4,236.3,162.5,235L162.5,235z"/>
	</g>
	<g>
		<path class="st1" d="M30.3,394.9c-1.3,5.9-0.6,12.1,0.9,18c0.5,1.9,1.1,3.8,2.2,5.4c1.2,1.6,3,2.7,5,2.5c2.6-0.2,4.4-2.6,5.7-4.8
			c3.3-5.6,5.8-11.9,5.7-18.5c-0.1-5.2-2.6-14.5-8.3-16.4C35.7,379.3,31.2,390.9,30.3,394.9z"/>
	</g>
	<path class="st1" d="M140,284.1c0,0-0.1-35.3-1.3-42.5c1.4-7.2,6.6-0.7,6.6-0.7s2,39.8-0.5,42.7"/>
	<path class="st1" d="M191.1,186.7c0,0,3.3,4.8,4.6,13c1.3,8.2,10,41.2,12.6,48.1l-1.4,5.4l-3.2-3.8c0,0-5.7-14.3-13.1-51
		L191.1,186.7z"/>
	<path class="st1" d="M168.6,264.5c0,0-1.9-12.1-1.5-29.4c0,0-2.6-7.1-4.6-0.2c0,0,0.9,21.1,3.1,30.3"/>
	<g>
		<path class="st5" d="M197.7,252c-5.3-13.2-10.3-45.9-10.4-46.2l1.5-0.1c0.1,0.3,5.1,32.8,10.3,45.8L197.7,252z"/>
	</g>
	<g>
		<path class="st5" d="M189.9,253.8c-4.2-14-7.5-39.7-7.5-40h1.5c0,0.3,3.2,25.5,7.4,39.4L189.9,253.8z"/>
	</g>
	<g>
		<path class="st5" d="M183.4,256.7c-4.2-9.6-5.7-31.8-5.7-32.8l1.5-0.1c0,0.2,1.5,22.9,5.6,32.3L183.4,256.7z"/>
	</g>
	<g>
		<path class="st5" d="M177.5,261c-0.1-0.4-3.4-7.5-5.4-30.9l1.5-0.2c2,23.2,5.2,30.4,5.3,30.5L177.5,261z"/>
	</g>
	<g>
		<path class="st5" d="M171.4,262.8c-0.2-0.8-4.3-15.8-4.4-24.9l0.1-5.4c0,9,5.6,29.6,5.6,29.8L171.4,262.8z"/>
	</g>
</g>
<g id="brazo">
	<path class="st2" d="M82.4,166c0,0,13.3,19.8,13.6,37.1c0.3,17.3,3.2,35.6,7.7,39.1c4.4,3.6,5.4,8.3,10.5,7.7
		c5.1-0.6,35.9-3.7,35.9-3.7l2.6,4.3l-1.5,12.8l4.2,10.9c0,0-27.8,21.6-43.9,25.7S71,302.2,62,280.2c-8.9-22-15.9-56.4-16.4-63.2
		c-0.5-6.7-1.8-33.9-1.8-34.1C44,182.9,64.2,133.1,82.4,166z"/>
	<g>
		<path class="st0" d="M152,247.8c0,0,14.2-7.1,19.3-12.7c0,0,11-26.1,29.2-32.1c0,0,35.9-13,37.8,6.3c0,0-1.4,6.2-9.1,4.2
			c0,0,6.5,9.7-1.9,14.3c0,0,2.2,8.1-3.1,9c0,0,5.7,6.6-1.9,11.1c0,0-10.2,2.9-13.1-1.9c0,0-7.7,14.9-19.6,15.2l-11.4,1
			c0,0-14.5,10.1-21.2,11c0,0-7.9-6.9-5.1-16.6C151.8,256.6,153.5,251.1,152,247.8z"/>
	</g>
	<g>
		<path class="st5" d="M102.6,249.8c-14.3-2.6-15.7-39.5-15.8-41.1c-1.3-14.9-4.7-28.2-10.2-39.5c-4.4-9-8.8-14.2-10.8-15.8l1-1.2
			c5,4.2,18.6,22.4,21.5,56.4c0,0.4,1.5,37.3,14.6,39.7L102.6,249.8z"/>
	</g>
	<g>
		<path class="st5" d="M105.2,255.7c-9.1-0.6-12.6-3.6-12.9-3.8c-10-9.3-11.6-36.8-11.6-37.9c-2.8-41.5-20.1-55.4-20.3-55.5l0.9-1.2
			c0.7,0.6,18.1,14.4,20.9,56.6c0,0.3,1.6,28,11.1,36.9c0,0,2.1,1.8,7.2,2.8c4.7,0.9,13.1,1.4,26.1-1.9l0.4,1.5
			C117.6,255.6,110.5,256.1,105.2,255.7z"/>
	</g>
	<g>
		<path class="st5" d="M104,266.4c-4.4-0.3-8.5-1.6-12-3.9c-11-7.1-15.8-22.5-17.9-34.2c-2.3-12.6-2-23.7-2-23.8
			c-1-26.7-16.3-41.2-16.5-41.4l1-1.1c0.2,0.2,15.9,15.1,17,42.5c0,0.5-1,43.7,19.1,56.7c8.4,5.5,19.5,4.9,33-1.7l0.7,1.3
			C118.1,265,110.6,266.8,104,266.4z"/>
	</g>
	<g>
		<path class="st5" d="M151.7,276.3c-5.1-2.9-7.4-9-6.8-17.5c0.4-6.3,2.3-11.7,2.4-11.9l1.4,0.5c-0.1,0.2-7.3,21.2,3.7,27.6
			L151.7,276.3z"/>
	</g>
	<g>
		<path class="st5" d="M148,278.8c-5.3-3.3-7.9-10-7.4-19.2c0.3-6.8,2.2-12.6,2.3-12.9l1.4,0.5c-0.1,0.2-7.2,22.9,4.5,30.3
			L148,278.8z"/>
	</g>
	<g>
		<path class="st5" d="M144.4,282.3c-5.6-2.6-8.6-9.3-8.5-19.5c0.1-7.6,1.8-14.5,1.8-14.5l1.5,0.4c-0.1,0.3-6.5,26.7,5.8,32.3
			L144.4,282.3z"/>
	</g>
	<g>
		<path class="st5" d="M140.2,285.9c-6.2-3.9-9.4-11.6-9.2-22.3c0.1-8,2-14.7,2.1-15l1.4,0.4c-0.1,0.3-7.5,26.9,6.5,35.6
			L140.2,285.9z"/>
	</g>
	<g>
		<path class="st5" d="M101,274.5c-5.8-0.4-11-2.1-15.4-5.2c-6.4-4.5-14.8-14.4-18.5-36.2c-2.2-13-1.6-24.2-1.6-24.3
			c0.2-23.2-14.9-39.3-15-39.5l1.1-1c0.2,0.2,15.6,16.8,15.4,40.6c0,0.1-0.5,11.2,1.6,24c2,11.7,6.7,27.4,17.9,35.2
			c9.7,6.8,22.9,6.7,39.2-0.2l0.6,1.4C116.8,273.2,108.4,275,101,274.5z"/>
	</g>
	<g>
		<path class="st5" d="M97.6,282.8c-6.3-0.4-11.9-2.2-16.8-5.4c-21.7-14.2-22.7-51.5-22.8-51.9c-0.1-33.2-11.6-50-11.7-50.2l1.2-0.9
			c0.1,0.2,3,4.4,6,12.8c2.7,7.7,5.9,20.7,6,38.2c0,0.4,1,36.9,22.1,50.7c10.8,7.1,25.2,7,42.7-0.2l0.6,1.4
			C114.8,281.5,105.7,283.3,97.6,282.8z"/>
	</g>
	<g>
		<path class="st5" d="M96.9,293.4c-6.3-0.4-12-2.1-17.1-5.2c-13.4-8.1-20.2-24.1-23.6-36c-3.6-12.9-4.1-24.1-4.1-24.2
			c-0.7-27.7-9.3-44.4-9.4-44.6l1.3-0.7c0.1,0.2,8.9,17.1,9.5,45.2c0,0.4,2,44,26.9,59c12.7,7.6,29.2,6.7,49.1-2.8l0.6,1.4
			C117.9,291.4,106.7,294.1,96.9,293.4z"/>
	</g>
	<g>
		<path class="st1" d="M44.3,182.9c1.5,27.8,7.6,108.8,40.8,114.8c25.5,4.7,49.7-10.5,68.5-26.4c1.2-1.1,3.1-1,4.2,0.3
			c1,1.2,0.9,3-0.3,4c-3.3,3-6.6,6-10.2,8.7c-14.2,11.1-31.3,19.8-49.6,20.7c-7.6,0.2-15.6-0.7-22.4-4.5
			c-25-15.1-29.6-64.5-31.3-91.3c-0.4-8.8-0.6-17.6-0.3-26.4c0-0.2,0.2-0.4,0.4-0.4C44.2,182.5,44.3,182.7,44.3,182.9L44.3,182.9z"
			/>
	</g>
	<g>
		<path class="st1" d="M82.7,165.1c9.9,11.1,14.8,26.1,15.6,40.8c-0.2,11.4,0.8,24.9,7.6,34.4c2.2,3.1,5.3,5.4,9,6.7
			c0.8,0.3,1.2,1.2,0.9,2c-0.3,0.7-1,1.1-1.7,0.9c-2.2-0.4-4.4-1.2-6.4-2.3c-10-5.9-13.5-18.1-14.9-28.8c-0.5-3.9-0.7-9.9-0.5-12.8
			c-0.1-3.5-0.4-6.9-0.9-10.3c-1.5-10.4-4.9-20.6-9.9-29.8C81.1,165.3,82,164.5,82.7,165.1L82.7,165.1z"/>
	</g>
	<g>
		<path class="st1" d="M88.4,253.9c7.5-10.7,22.4-7,33.5-7.2c8.9,0.1,17.7-0.9,26.4-2.8c3.3-0.6,6.5,2.3,6.4,5.6
			c0,0.6-0.2,1.2-0.3,1.8c-0.7,3.6-1.1,7.3-0.8,10.8c0.3,3.5,1.4,6.8,3.7,8.8c2.5,2.3-0.8,6.1-3.5,3.9c-6.5-6.8-5.1-17-3.3-25.3
			c0.1-0.8-0.7-1.7-1.6-1.5c-0.1,0-0.8,0.2-0.9,0.2c-12.3,2.6-25.2,3.6-37.7,2.6c-7.2-0.4-14.7,0-20.9,4.2
			C88.8,255.4,87.9,254.6,88.4,253.9L88.4,253.9z"/>
	</g>
	<g>
		<path class="st1" d="M130.3,249.7c-2.1,9.2-3.8,20.1,0,29c1.2,2.6,3.1,4.4,5.4,5.4c2,0.8,2.9,3.1,2.1,5.1c-0.8,2-3.1,2.9-5.1,2.1
			c-2.2-1.1-4.1-2.7-5.5-4.6c-3.8-4.8-4.6-11.4-4.3-17c0.4-7.3,2.1-14.2,4.6-21c0.3-0.8,1.2-1.2,1.9-0.9
			C130.1,248.2,130.5,249,130.3,249.7L130.3,249.7z"/>
	</g>
	<g>
		<path class="st1" d="M152,245.4c6.3-3.4,13-6.4,17.9-11.7c3.2-5,6.2-10.9,9.5-15.9c3.7-5.4,8.6-9.9,14.2-13.2
			c9-5.2,19.5-7.4,29.8-7.1c6.6,0.4,15.6,2.4,17.4,10c1,6.3-5,8.9-10.1,8.4c-3.9-0.7-7.9-1.3-11.9-1.6c-3.8-0.2-8.1-0.7-11.5,0.7
			c-0.5,0.2-1.1,0-1.3-0.5c-0.2-0.4,0-1,0.4-1.2c0.9-0.7,2-1.2,3.1-1.5c3.1-0.9,6.4-1.1,9.5-1.1c4.2,0,8.3,0.4,12.5,1.1l-0.3,0
			c1.1,0,2.2,0,3.1-0.3c4.4-1.2,1.7-5.8-1.1-7.2c-7.3-3.9-16.3-3.4-24.3-1.8c-9.4,1.9-18.2,7.1-23.9,14.9c-3,3.9-5,8.4-7.5,12.6
			c-1.3,2.1-2.4,4.6-4,6.7c-5.5,6-12.9,9-20.2,11.7C151.4,248.8,150.3,246.3,152,245.4L152,245.4z"/>
	</g>
	<g>
		<path class="st1" d="M204.9,224.8c5.5-2.1,11.8-2.8,17.4-0.5c1.8,0.8,4,1,5.7,0.1c0.9-0.6,1.3-2.1,1.4-3.2c-0.2-4.3-3.7-6.8-8.2-7
			c-1.9-0.2-1.8-2.9,0.1-3c3-0.1,6.6,0.8,8.9,3.1c2.4,2.4,3.6,6.2,2.6,9.5c-1.4,5.2-7.4,5.9-11.7,3.8c-4.7-2.1-10.3-1.8-15.2-0.5
			C204.4,227.4,203.6,225.3,204.9,224.8L204.9,224.8z"/>
	</g>
	<g>
		<path class="st1" d="M204.9,233.9c3.5-0.8,7.1-1.1,10.7-0.5c2.6,0.5,4.6,2,7.3,2c1.4,0.1,2.5-0.4,2.8-1.7c0.4-1.8,0.1-3.4-0.9-5.1
			c-0.5-0.7-0.3-1.8,0.5-2.2c2.1-1.1,4.5,2.9,4.7,4.8c0.4,2.1-0.1,4.3-1.4,6c-2.8,3.4-7.7,2.4-11.1,0.7c-3.4-2-8.2-2.1-12.2-1.9
			C204.1,236,203.7,234.2,204.9,233.9L204.9,233.9z"/>
	</g>
	<g>
		<path class="st1" d="M155.7,271.7c7.3-2.3,14.8-5.6,20.4-10.7c2.3-2.1,5.5,1.2,3.3,3.5c-6.7,5.4-14.7,8.3-22.9,10.2
			C154.6,275,153.9,272.2,155.7,271.7L155.7,271.7z"/>
	</g>
	<g>
		<path class="st1" d="M178.3,260c8.4,0.4,18-0.9,24.3-6.9c2.1-2,3.5-4.5,4.4-7.3c0.2-0.6,0.8-0.9,1.3-0.7c0.5,0.2,0.8,0.7,0.6,1.2
			c-0.8,3.1-2.2,6.2-4.4,8.6c-5.5,6.1-13.8,8.6-21.7,9.5c-2.3,0-7,1.5-7.2-2.1C175.7,261,176.9,259.9,178.3,260L178.3,260z"/>
	</g>
	<g>
		<path class="st1" d="M209.8,245.1c1,1,2.8,1.4,4.7,1.4c4.1,0.2,9.7-0.5,9.9-5.5c0-1.1,0.2-1.1-0.4-2.2c-0.8-1.7,1.3-3,2.5-1.6
			c1.9,1.9,2,5.2,1,7.8c-2.2,5.1-8.4,6-13.3,5.4c-2.5-0.3-5.3-1.1-6.8-3.4C206.4,245.4,208.5,243.8,209.8,245.1L209.8,245.1z"/>
	</g>
</g>
<g id="cabeza">
	<g>
		<path class="st8" d="M98.6,83c0,0-16.6-34.4,8.7-51.5c0,0,5.9-23.9,44.9-28.6c0,0,38.4-2.8,35.6,16.4c0,0,3.1,2.6,14.5,0.9
			c0,0,8.9-2.3,10.8,0.5c0,0,2.6,7.9-5.4,9.8c0,0,7.2,4.5,12.4,5.6c0,0,11.5,6.6,1.9,16.2c0,0,8.7,20.1-11.5,22.7
			c0,0-1.2-14.7-7.7-18.2c0,0-8.7,0-16.4-3.8c0,0-12.2,7.5-27.9-7.5c0,0-3.1-2.3-3.8,3.7c0,0-8.4,20.1-20.6,15.9
			c0,0-4.5,13.4-11.3,13.8c0,0-7.9-8.9-13.3-7C109.4,71.9,99.5,72.6,98.6,83z"/>
	</g>
	<g>
		<path class="st0" d="M122.3,78.1c-0.5,0.2-8.5-10-16-5c0,0-15,8-3.7,25c0,0,7.7,11.3,20.5,5.2c0,0,3.9,8.1,34.9,30.8
			c0,0,16.1,9,27.8,0.3c0,0,15.6-10.5,20-32.9c0,0,5.3-22.5,3.5-33.3c0,0-2-9-5.8-11.8c0,0-7.8,0.8-16.3-2.8c0,0-9.3,9-29.3-8.5
			c0,0-3.3-0.5-3.3,4.8c0,0-4.8,17.8-22.1,15C132.4,64.8,130.7,75.5,122.3,78.1z"/>
	</g>
	<g>
		<path class="st1" d="M123.9,87.2c-1.3-5.5-4.4-11.8-10.3-13.1c-9.2-1.9-15.5,8-12.5,16.2c2.2,8.4,10.8,15.3,19.6,12.3
			c1.8-0.6,2.8,1.9,1.2,2.8c-6.7,3.3-15,0.7-19.8-4.6c-4.7-5.4-7.4-13-5.2-20.1c3-9.4,14.5-14.1,22.5-7.6c2.8,2.2,4.6,5.4,5.7,8.8
			c0.6,1.6,0.9,3.2,1.1,5c0.1,0.6-0.4,1.2-1,1.3C124.5,88.2,124,87.8,123.9,87.2L123.9,87.2z"/>
	</g>
	<g>
		<path class="st1" d="M96.3,82.6c-10.8-18.3-7.9-41.7,10.8-53.5c0.7-0.5,1.6-0.2,2.1,0.4c0.4,0.6,0.3,1.5-0.3,2
			c-3.5,3.1-6.6,6.5-9,10.3c-7.3,11.8-5.9,26.9-1,39.3C99.8,82.9,97.3,84.2,96.3,82.6L96.3,82.6z"/>
	</g>
	<g>
		<path class="st1" d="M107.5,35.5c-3.6-16.6,14.8-26.9,27.9-31.5c9.4-3.3,19.6-4.4,29.5-3.2c8.6,1,18.6,4,23.7,11.7
			c4,6.3-1.3,16.1-8.8,15.4c-0.9-0.1-1-1.4-0.1-1.6c4-1.1,6.8-5.2,6.4-9.2c-0.4-3.1-3.1-5.1-5.6-6.7c-16.3-9.5-40.8-6.1-56.5,3.4
			c-7.6,4.2-15.4,11.7-13.6,21C110.8,36.6,108,37.3,107.5,35.5L107.5,35.5z"/>
	</g>
	<g>
		<path class="st1" d="M188.9,18.7c6.5,1.2,12.8-2.2,19.7-1.8c4.7,0.1,8.5,2.5,7.5,7.7c-0.7,4.1-4.6,7.5-8.8,7.2
			c-1.5-0.1-1.9-2.2-0.5-2.9c1.2-0.6,2.2-1.4,2.9-2.3c0.8-1,1.5-2.8,1.3-4c0,0,0,0.1,0,0c0,0-0.1-0.1-0.2-0.1
			c-7.3-2.1-15.3,2.3-22.8-0.9C186.3,20.8,187.1,18.2,188.9,18.7L188.9,18.7z"/>
	</g>
	<g>
		<path class="st1" d="M208.2,29.1c2.7,1.4,5.8,2.7,8.7,3.7c3.3,0.9,7.4,2.6,9.1,6c4.4,6.8-1,18.6-9.8,16.7c-0.8-0.2-1.2-1.1-1-1.9
			c0.2-0.7,0.9-1.1,1.6-1.1c1.2,0,2.3-0.4,3.3-1.2c3-2.3,4.1-7.1,2.2-10.4c-1.4-2.6-4-3.4-6.8-4.6c-3.2-1.4-6-2.8-8.9-4.7
			c-0.7-0.5-0.9-1.4-0.4-2.1C206.7,29,207.6,28.8,208.2,29.1L208.2,29.1z"/>
	</g>
	<g>
		<path class="st1" d="M211.2,76.1c-0.6,0-1.2,0-1.8-0.1c-0.8-0.1-1.4-0.9-1.3-1.7c0.1-0.8,0.9-1.4,1.7-1.3c3.5,0.5,7.3-0.9,9.6-3.5
			c2.3-2.6,3.7-8.1,2.8-11.6c-0.2-0.8-0.8-2.6-2.1-3.2c-0.8-0.3-1.1-1.2-0.8-2s1.2-1.1,1.9-0.8c1.9,0.8,3.3,2.6,3.9,5.3
			c1.1,4.5-0.6,11-3.5,14.3C219,74.4,215.1,76.1,211.2,76.1z"/>
	</g>
	<g>
		<path class="st1" d="M122.5,76.7c5.4-2.1,10.1-7.9,8-13.8c-0.6-1.5,1.6-2.5,2.3-1c3.5,7.3-1.7,15.5-8.4,18.8
			C121.7,81.9,119.8,77.9,122.5,76.7L122.5,76.7z"/>
	</g>
	<g>
		<path class="st1" d="M133.7,63c9.4,0.6,16.8-5.4,19.4-14.3c0.1-0.3,0.8-2,0.9-2.3l0.1-0.2l0.1-0.1c0.7-2.6,4.1-3.2,5.7-1.1
			c6.8,7.6,16.5,10.1,26.2,7.3c2.8-0.7,3.9,3.3,1.1,4.2c-10.4,1.8-21.2-1.1-28.4-9.1c-0.5-0.5-1.1-1.2-1.2-1.2
			c-0.3-0.1-0.7,0.2-0.5,0.5c-0.8,12.4-11.3,22.2-23.9,21C130.1,67.1,130.7,62.6,133.7,63L133.7,63z"/>
	</g>
	<g>
		<path class="st1" d="M178.5,43.4c2.3,4,6.1,6.8,10.3,8.4c5.2,2.1,11.3,2.4,17.1,2.2c2.6-0.2,6.2,0.3,7.5-2.2
			c0.2-0.5,0.3-0.7-0.1-1.3c-0.4-0.6-1.4-1.6-2.2-2.5c-1.6-1.8-3.2-3.7-4.7-5.7c-0.3-0.4-0.2-0.9,0.2-1.1c0.3-0.2,0.6-0.2,0.9,0
			c2.1,1.3,4.1,2.7,6.1,4.2c1,0.8,2.2,1.5,3,2.6c2.8,3,0.9,7.8-2.5,9.4c-3.9,1.8-7.9,1.2-11.9,1.3c-9.9-0.1-21.8-4.2-25.6-14.3
			C176.2,43.1,177.9,42.3,178.5,43.4L178.5,43.4z"/>
	</g>
	<g>
		<path class="st1" d="M114.3,95.4c-0.3,0-0.6-0.1-0.9-0.3c-0.7-0.5-0.8-1.4-0.4-2.1c1.1-1.6,1.5-3.1,1.2-4.4
			c-0.7-2.4-3.5-3.8-3.6-3.8c-0.8-0.3-1.1-1.2-0.7-2s1.2-1.1,2-0.7c0.2,0.1,4.2,1.9,5.2,5.7c0.6,2.2,0.1,4.6-1.6,7
			C115.3,95.2,114.8,95.4,114.3,95.4z"/>
	</g>
	<g>
		<path class="st1" d="M168.5,108.8c2.7,3.5,7.1,5.8,11.7,5c0.7-0.1,1.4-0.3,2.1-0.4c0.4-0.1,0.6,0.6,0.2,0.8
			c-4,2.5-9.4,2.5-13.3-0.2c-1.3-1-5.2-3.9-2.9-5.6C167.1,107.9,168.1,108.2,168.5,108.8L168.5,108.8z"/>
	</g>
	<g>
		<path class="st1" d="M154.7,88.2c2-5.2,7.1-8.6,12.6-6.2c0.9,0.3,1.4,1.3,1.1,2.2c-0.3,0.9-1.3,1.4-2.2,1.1
			c-1.7-0.9-3.6-1.5-5.5-0.6c-1.8,0.8-3.3,2.5-4.3,4.2C155.8,89.9,154.2,89.2,154.7,88.2L154.7,88.2z"/>
	</g>
	<g>
		<path class="st1" d="M148.6,79.6c-2.4-5.9,2.5-12.4,8.7-12.2c1.9,0,3.6,0.5,5.2,1.4c0.3,0.2,0.4,0.5,0.2,0.7
			c-0.1,0.1-0.2,0.2-0.3,0.3c-1.6,0.5-3.1,0.8-4.6,1.3c-2.7,0.9-4.4,2.2-6,4.5c-0.8,1.2-1.5,2.6-2.3,4.1
			C149.3,80,148.7,80,148.6,79.6L148.6,79.6z"/>
	</g>
	<g>
		<path class="st1" d="M188.9,67.8c3.4-4.8,10.9-4.2,14.3,0.4c0.4,0.6,0.8,1.3,1.1,2c0.1,0.3,0,0.6-0.3,0.7c-0.1,0.1-0.3,0.1-0.4,0
			c-0.7-0.3-1.3-0.6-1.9-0.9c-1.6-0.8-3.4-1.6-5.1-1.9c-2.4-0.5-5,0-7.4,0.7C188.8,68.8,188.9,68.1,188.9,67.8L188.9,67.8z"/>
	</g>
	<g>
		<path class="st1" d="M191.1,84.9c0.6-4.4,5.9-7.3,9.4-3.9c1.1,1,3.1,4.1,1,4.7c-0.4,0.1-0.9-0.1-1.1-0.4c-0.7-0.8-1.3-1.4-2-1.9
			c-2.3-1.7-4.6,0.2-6.5,1.9C191.7,85.7,191.1,85.4,191.1,84.9L191.1,84.9z"/>
	</g>
	<g>
		<path class="st1" d="M181.8,80c-0.4,6,4.6,9.8,9.2,12.7c3.6,2.4,4.1,7.6,0.7,10.4c-2.6,2.1-6.8,2.8-9.1,0.1
			c-0.3-0.4-0.5-1.1-0.5-1.6c0.1-0.9,1.2-0.9,1.5-0.1c0.4,0.6,1.6,0.8,2.7,0.5c2.1-0.4,3.9-2,3.9-4.1c-0.2-2.4-3.4-3.4-5-5.1
			c-1.2-1.1-2.3-2.3-3.2-3.7c-1.8-2.8-2.5-6.3-1.4-9.4C180.8,79,181.8,79.2,181.8,80L181.8,80z"/>
	</g>
	<g>
		<path class="st1" d="M206.2,57c2.5,4.1,4.6,8.5,5,13.4c0.1,1.7,0,3.4-0.5,5.1l0.1-0.4c-0.2,7.3-1.1,14.5-2.5,21.6
			c-4.2,21.7-15.9,47.4-42.4,42.5c-12.4-3.7-24.3-10.9-31-22.2c-0.7-1.1,0.9-2.2,1.7-1.2c1.9,2.5,3.8,4.9,6.2,6.9
			c6.6,6.1,15.9,10.6,24,12.9c33.1,5.6,40-41.1,41.5-65c-0.4-4.2-2.3-8.4-4.6-12C202.7,57,205.1,55.4,206.2,57L206.2,57z"/>
	</g>
</g>
<g>
	<path class="st1" d="M123.3,99.4c2.9,7.9,0.8,17.2-4.4,23.8c-2.1,2.7-6.1-0.5-3.9-3.2c4.9-5.4,7.2-12.6,5.4-19.8
		C120,98.4,122.7,97.6,123.3,99.4L123.3,99.4z"/>
</g>
<g>
	<path class="st1" d="M96.3,138.5c-22.1,3.9-40.4,20.6-49.4,40.8c-6.2,13.7-8.8,28.9-9.4,43.9c-0.2,5.7-0.1,11.4,0.1,17.1
		c0.2,9.8-5.1,16.9-4.6,5.7c0.3-7.6-0.3-15.4,0.1-23c1-31,12.6-64.1,40.3-80.8c5.9-3.6,12.3-6.5,19.1-8.3c2.2-0.5,5.3-1.7,6.1,1.5
		C98.8,137,97.8,138.4,96.3,138.5L96.3,138.5z"/>
</g>
</svg>
