<?xml version="1.0" encoding="utf-8"?>
<!-- Generator: Adobe Illustrator 28.2.0, SVG Export Plug-In . SVG Version: 6.00 Build 0)  -->
<svg version="1.1" id="Capa_1" xmlns="http://www.w3.org/2000/svg" xmlns:xlink="http://www.w3.org/1999/xlink" x="0px" y="0px"
	 viewBox="0 0 228.6 313.8" style="enable-background:new 0 0 228.6 313.8;" xml:space="preserve">
<style type="text/css">
	.st0{fill:#EDCBAF;}
	.st1{fill:#2E3154;}
	.st2{fill:#FFFFFF;}
	.st3{fill:#1B243E;}
	.st4{fill:none;}
	.st5{fill:#2F3664;}
	.st6{fill:#DD2C2B;}
	.st7{fill:#C4C1C1;}
	.st8{fill:#1C243E;}
	.st9{fill:#AEABAB;}
	.st10{fill:#64361F;}
	.st11{fill:#21243F;}
	.st12{fill:#25253F;}
</style>
<g id="cuerpo">
	<path class="st0" d="M94.2,102.8c0,0,1.2,15.3-0.8,20c-2,4.7-10.8,4.1-11.7,3.3c0,0,2.9-1.2,1.7-5.3c-1.2-4.1-2.8-5.8-4.5-6
		c-1.7-0.2-6.2-0.3-6.8-1c-0.5-0.7-2.4-27.1,1.1-27C76.7,86.9,94.9,98.1,94.2,102.8z"/>
	<g>
		<g>
			<path class="st1" d="M226.3,260.4c0,0-12.1-32.5-53.5-13.3l-148.7,9.8c0,0-17.4,4.4-21.6,22.5c0,0-2.8,21.8,25,31.5l14-2.2
				c0.5-1.1,1.1-2.1,1.8-2.4c0,0,1.4,0.6,4,1.5l82.2-12.7c-0.4-2.1-0.9-4.2-1.7-6.6l5,5c0,0,0.4,0.3,1,0.9l88-13.6
				C225.9,275.5,228.4,268.7,226.3,260.4z"/>
		</g>
	</g>
	<g>
		<g>
			<path class="st2" d="M41.9,306.3c0,0-0.5,0.9-1,2.5l6.4-1L41.9,306.3z"/>
		</g>
	</g>
	<g>
		<g>
			<path class="st3" d="M19.9,305.3c-8.2-5.2-13.8-13.8-14-23.4c0.3-10.8,8.2-19.5,17.8-23.4c4-1.5,2-7.3-2-6.1
				c-7.6,2.8-14.4,8.2-18.2,15.4c-2.2,4.2-3.3,8.9-3.4,13.6c0.1,3.5,0.9,6.9,2.2,10.1c3.8,9.8,12.3,16.3,21.7,19.8l6.9-1.1
				C27,309.1,23.3,307.5,19.9,305.3z"/>
		</g>
	</g>
	<g>
		<g>
			<path class="st3" d="M22.3,294.7c-0.2-0.1-0.5,0-0.7,0.2c-0.2,0.2-0.2,0.6,0.1,0.8c6.7,5.4,14.4,9.1,22.1,12.6l8.3-1.3
				C42,303.4,32.2,298.9,22.3,294.7z"/>
		</g>
		<g>
			<path class="st3" d="M125.6,290.4c0.1,0.5,0.3,1,0.4,1.5c0.5,0.2,1,0.4,1.5,0.6L125.6,290.4z"/>
		</g>
		<g>
			<path class="st3" d="M131.9,288.7l-0.4-1.5c0,0-1.5-0.6-1.5-0.6c-22.7-8.9-46.1-16.1-70.4-18.5c-8.1-0.6-16.4-0.7-24.4,1.2
				c-0.5,0.1-0.8,0.6-0.8,1.1c0.1,0.6,0.6,1,1.1,0.9c3.9-0.5,7.9-0.5,11.8-0.2c11.9,0.7,23.5,3.3,35,6.3c14.8,4,29.4,9.1,43.7,14.7
				c-0.1-0.5-0.2-1-0.4-1.5l1.9,2.1c-0.5-0.2-1-0.4-1.5-0.6c0.3,1.1,0.5,2.3,0.7,3.5l6.5-1C132.8,292.5,132.4,290.6,131.9,288.7z"/>
		</g>
	</g>
	<g>
		<path class="st3" d="M115.5,280.7c16.4-11.4,34.3-20.3,53.3-26.4c4.2-1.3,9.4-2.6,13.8-3.4c1.6-0.4,4-0.6,5.6-0.9
			c3.7-0.6,7.5-0.6,11.3-0.8c0.4,0,0.7,0.3,0.7,0.6c0,0.4-0.3,0.7-0.6,0.7c-7.3,1.1-14.5,2.8-21.5,5c-14,4.6-27.3,11.1-39.9,18.7
			c-6.2,3.8-12.5,7.9-18.3,12.3C115.9,289.3,111.6,283.6,115.5,280.7"/>
	</g>
	<g>
		<g>
			<path class="st4" d="M173.2,245.6c0,0.1-0.1,0.3-0.1,0.4C173.1,245.8,173.2,245.7,173.2,245.6z"/>
		</g>
		<g>
			<path class="st3" d="M171.5,243.2c0.1,0,0.1,0,0.5,0.1c0.9,0.3,1.3,1.4,1.1,2.2c0.3-1.2-0.4-2.1-1.4-2.4c-0.1,0-0.1,0-0.2,0
				C171.6,243.2,171.5,243.2,171.5,243.2z"/>
		</g>
		<g>
			<path class="st3" d="M228.4,264c-1-9.8-7.6-18.8-16.6-22.8c-8.8-4.4-18.8-2.7-28-0.9c-3.9,0.8-8.1,2-12,2.9
				c0.9,0.3,1.7,1.3,1.4,2.4c0,0.1-0.1,0.3-0.1,0.4c0.1-0.1,0.1-0.3,0.1-0.4c0.2-0.9-0.3-1.9-1.1-2.2c-0.5-0.2-0.5-0.1-0.5-0.1
				c-0.1,0,0,0,0.1,0c0.1,0,0.1,0,0.2,0c-0.9-0.3-1.9-0.1-2.4,1c-0.6,1.1,0,2.6,1.1,3c0.9,0.3,1.1,0.2,1.6,0.2
				c0.7-0.1,2.1-0.3,2.7-0.4c7.5-1.6,15.2-3,22.8-3.4c8.1-0.4,16.3,3.5,21.2,10c6.8,9.3,6,19.9-0.6,27.9l5.9-0.9
				C227.4,275.7,229.2,270,228.4,264z"/>
		</g>
	</g>
	<g>
		<g>
			<path class="st3" d="M130.9,291.7c-2.4-1.3-4.2,2-2.1,3.5l6.4-1L130.9,291.7z"/>
		</g>
	</g>
	<g>
		<g>
			<path class="st3" d="M42.9,307.7c0.3-0.4,0.2-0.9-0.1-1.2s-0.9-0.2-1.2,0.1c-0.6,0.7-1,1.5-1.4,2.3l2.5-0.4
				C42.6,308.2,42.7,308,42.9,307.7z"/>
		</g>
		<g>
			<path class="st3" d="M52.2,336.8c0.1,0,0.2,0,0.3,0c0.1,0,0.2,0,0.3-0.1L52.2,336.8z"/>
		</g>
	</g>
	<g>
		<path class="st5" d="M18.1,195.2c-9.7,21,2.2,28.7,2.2,28.7c26.2,19.2,65.7,0.9,65.7,0.9l8.2-33l-18.2-56.7l0.6-3.7
			c13.9-8.4,3.6-15.3,3.6-15.3l-7-1.9c0,0-2.3,4.2-2.4,4.4s-17.5,5-17.5,5L18.1,195.2z"/>
	</g>
	<g>
		<path class="st5" d="M94.6,112.5c0,0,9.9-0.1,11.2,6.8c0,0,1,7.1-2.9,11.4l2.7,7.2l-12.5,55.1l-1.2-11.2l1.9-42.6
			c0,0,7.6-13.1,1.1-20.2L94.6,112.5z"/>
	</g>
	<g>
		<path class="st5" d="M80.6,251.9c0,0-43.2,11.3-58.7,3.8l15-34.8l49.5,2.8L80.6,251.9z"/>
	</g>
	<g>
		<path class="st2" d="M48.2,242.1c-6.5,0-13.2-0.7-19.7-2.7l0.7-2.4c24.5,7.5,54.3-3.8,54.6-3.9l0.9,2.3
			C84.5,235.5,67.5,242.1,48.2,242.1z"/>
	</g>
	<g>
		<path class="st2" d="M46.6,250.2c-6.7,0-13.9-0.8-20.9-2.8l0.7-2.4c26.9,7.7,55.5-3.6,55.8-3.8l0.9,2.3
			C82.8,243.6,66.4,250.2,46.6,250.2z"/>
	</g>
	<g>
		<path class="st2" d="M93.9,138.3l-1.8,47.7l-16.5-53.3c0,0,5.3-3,6.8-6.8c0,0,9.4,3.8,12.5-6.4C94.9,119.5,103.2,124.3,93.9,138.3
			"/>
	</g>
	<g>
		<path class="st6" d="M89.1,130.3l-0.1-0.8c5.7-1.1,7.8-5.3,7.8-5.3l0.7,0.3C97.4,124.7,95.2,129.2,89.1,130.3z"/>
	</g>
	<g>
		<path class="st6" d="M90.2,132.4l-0.2-0.8c5.2-1.1,6.7-4,6.7-4.1l0.7,0.3C97.4,128.1,95.8,131.3,90.2,132.4z"/>
	</g>
	<g>
		<path class="st6" d="M86.6,130.9c-1,0-4.6-0.1-6-1.9l0.6-0.5c1.3,1.7,5.6,1.6,5.6,1.6l0,0.8C86.9,130.9,86.8,130.9,86.6,130.9z"/>
	</g>
	<g>
		<path class="st6" d="M85.6,133.9c-1.2,0-3.6-0.3-6.5-2.4l0.5-0.7c3.9,2.8,6.8,2.2,6.8,2.2l0.2,0.8
			C86.6,133.9,86.2,133.9,85.6,133.9z"/>
	</g>
	<g>
		
			<rect x="88.6" y="129.4" transform="matrix(0.999 -4.450042e-02 4.450042e-02 0.999 -6.7499 4.1131)" class="st6" width="0.8" height="48.4"/>
	</g>
	<g>
		
			<rect x="91.4" y="135.1" transform="matrix(0.9995 -3.130031e-02 3.130031e-02 0.9995 -4.8623 2.9506)" class="st6" width="0.8" height="43.3"/>
	</g>
	<g>
		
			<rect x="85.5" y="138.1" transform="matrix(0.9981 -6.120156e-02 6.120156e-02 0.9981 -9.212 5.5457)" class="st6" width="0.8" height="30.1"/>
	</g>
	<g>
		
			<rect x="81.3" y="136.5" transform="matrix(0.9978 -6.560301e-02 6.560301e-02 0.9978 -9.4275 5.6778)" class="st6" width="0.8" height="19.7"/>
	</g>
	<g>
		<path class="st3" d="M72.1,118.7c3.4,3.8,8,6.7,13.2,7.3c0.8,0.1,0.7,1.3-0.1,1.3c-5.7,0.2-11-3.2-14.6-7.4
			C69.7,118.9,71.2,117.7,72.1,118.7"/>
	</g>
	<g>
		<path class="st3" d="M95.3,111.6c4.8,0.2,10.7,2.2,11.6,7.6c1.1,3.4-0.6,8.9-3,12.3l0.2-1l2.2,9.6c0.1,0.6-0.7,0.9-1,0.3l-3.5-9.2
			l-0.2-0.4c0.5-1,1.4-2,1.8-3c2.2-3.9,2.7-10.3-2.1-12.3c-1.8-0.8-4.1-1.2-6-1.1C93.6,114.2,93.6,111.6,95.3,111.6"/>
	</g>
	<g>
		<path class="st3" d="M94.6,118.6c5.2,3.4,4.2,10.7,2.6,15.8l0,0.1l-1.8,4.4c0,0,0.2-0.6,0.2-0.6l-2,50.1c-0.1,1.3-2.1,1.4-2.1-0.1
			l0.9-50.1l0-0.3l0.2-0.3l2.3-4.2l0,0.1l0.7-1.8c1.4-3.8,2.3-9.2-1.3-12.2C93.6,119.2,94.1,118.3,94.6,118.6"/>
	</g>
	<g>
		<path class="st5" d="M73.7,115.3c0,0,13.8-1.5,9.5,9.8c0,0,1.1,3.8-7.2,6.8l-6.1,2l-5.2-4.8c0,0,7.6-4.3,8.5-7.5
			c0.1-0.2,0-0.4,0-0.6l-0.6-2.1L73.7,115.3z"/>
	</g>
	<g>
		<path class="st3" d="M73.4,113.2c3.8,0.3,7.8,1.2,10.3,4.4c2.6,3.5,1.3,8.2-1.2,11.3c-1.4,1.7-3.3,3-5.2,3.9
			c-0.1,0.1-0.1,0.2,0,0.3c0,0,0,0,0,0.1l0.2,0.6c5.3,17.2,10.7,34.6,15.9,51.8c0.2,0.6-0.2,1.3-0.8,1.5c-0.6,0.2-1.3-0.2-1.5-0.8
			c-5.5-16.6-10.9-33.6-16.3-50.2l-0.4-1.3c-1-2.3,0.1-4.1,2.3-5c4-1.5,7.7-7,5.2-10.8c-1.8-2.5-5.5-3.4-8.5-3.7
			C71.9,115.2,72,113.2,73.4,113.2"/>
	</g>
	<g>
		<path class="st3" d="M58.6,118.7c-10.8,19.2-25,44.5-33.4,64.8c-2.7,6.8-5.3,13.6-7.2,20.6c-3.8,12.2,3.5,21.1,15,23.9
			c16.1,3.8,35.4,4.2,50.5-3.3c0.2-0.1,0.6,0,0.7,0.2c0.1,0.2,0,0.5-0.2,0.6c-3.2,2-6.6,3.6-10.2,4.8c-10.7,3.6-22.2,4.1-33.4,3.1
			c-7.6-0.8-15.9-2.5-21.7-7.9c-6.2-5.6-8-15-5.5-22.8c8.3-28.8,26.9-60.6,43-85.6C57.2,115.9,59.5,117.1,58.6,118.7z"/>
	</g>
	<g>
		<path class="st3" d="M77.1,212.8c-7.1,1.8-14.6,2.1-21.8,0.2c-8.1-2.1-14.2-9-11.4-17.7c0.2-0.5,0.9-0.4,1,0.1
			c0.7,3.3,1.5,6.4,3.7,8.9c6.5,7.3,19.2,7.3,28.4,7.6C77.5,211.8,77.7,212.7,77.1,212.8"/>
	</g>
	<g>
		<path class="st3" d="M79.9,253.6c-13.6,4.3-27.5,7.3-41.9,7.2c-3.6-0.1-7.2-0.3-10.9-1c-1.1-0.2-2.4-0.4-3.3-1.1
			c-2.8-1.7-3.8-5.4-2.4-8.3c3-7.1,6-14.1,9.1-21.1c0.6-1.3,2-1.8,3.3-1.3c1.2,0.6,1.8,2,1.3,3.2c-2.8,6.9-5.8,13.7-8.8,20.5
			c-0.2,0.6-0.7,1.3-0.4,1.9c0.2,0.9,1.5,1.1,2.2,1.2c10,2.1,20.4,1.4,30.5,0c6.8-1,13.7-2.3,20.3-4.2
			C80.8,250.3,81.7,252.9,79.9,253.6"/>
	</g>
	<g>
		<path class="st3" d="M86.3,139.4c-1.2,0-6.4-0.5-11.1-8.2c-0.3-0.5,1.4-1.5,1.7-1c3.5,5.7,7.1,6.9,8.7,7.2l1.2-9.5
			c0.1-0.6,0.6-1.1,1.2-1.1c0.6,0,1.1,0.3,1.3,0.9c1.4,5.5,4.7,9.7,4.7,9.8c0.3,0.4,0.3,1.1-0.2,1.4s-1.1,0.3-1.4-0.2
			c-0.1-0.1-2.4-3.1-4-7.3l-1,7.9l-0.8,0.1C86.6,139.4,86.5,139.4,86.3,139.4z"/>
	</g>
	<g>
		<path class="st3" d="M95.5,108.9c0.2,3.6,0.6,7.2,0.5,10.8c-0.6,3.9-4.4,7-8.2,7.6c-2.5,0.3-3.7,0.4-5.8-0.9
			c-0.3-0.2,0-0.9,0.5-0.9c1.1,0.2,2.2,0.4,3.3,0.3c1.6,0,3.3-0.4,4.6-1.3c2.1-1.5,3.5-4.2,3.2-6.7c-0.1-2.9-0.2-5.9-0.2-8.9
			C93.5,107.7,95.4,107.6,95.5,108.9"/>
	</g>
	<polygon class="st3" points="218.3,281.3 30.8,310.3 23.9,311.4 28.4,313.3 221.9,283.9 224.2,280.4 	"/>
</g>
<g id="mano">
	<g>
		<path class="st0" d="M84.5,224.9l-17.7-28.9c0,0-0.4-1,4.9-7l7.9-7.2c0,0,5.5-5.5,7.6,5.6c0,0,4.9,0.3,4.9,2.2L84.5,224.9z"/>
	</g>
	<g>
		<path class="st7" d="M68.6,192.7l-24.4-19.2c0,0-2.2-4.9,2.3-2.4l27.2,15.7L68.6,192.7z"/>
	</g>
	<g>
		<path class="st3" d="M82.4,224.3c-2-3.3-17.9-26.8-16.2-30c3.2-4.5,11-16.3,17-15.8c2.2,0.3,3.3,2.8,3.8,4.4
			c0.4,1.3,0.7,2.7,0.9,4c0.1,0.6-0.3,1.1-0.8,1.1c-0.5,0.1-1.1-0.3-1.1-0.8c-0.3-1.8-0.8-3.6-1.7-5.2c-0.3-0.5-0.7-1-1.1-1.2
			c-3.4-0.4-8.1,6.1-10.1,8.6c-1.5,2.1-3,4.2-4.3,6.4l0.2-0.4c0.1,1.1,0.8,2.6,1.3,3.7c2.1,4.4,12,19.6,14.6,23.6
			C85.8,224.3,83.5,225.9,82.4,224.3"/>
	</g>
	<g>
		<path class="st8" d="M75.4,193.9c0.2,0,0.3-0.1,0.5-0.2c2.3-1.8,9-6.2,12.9-5.5c1,0.2,1.8,0.7,2.3,1.6c0.3,0.5,0.9,0.6,1.4,0.3
			s0.6-0.9,0.3-1.4c-0.8-1.4-2.1-2.2-3.7-2.5c-5.6-1-14.2,5.6-14.5,5.9c-0.4,0.3-0.5,1-0.2,1.4C74.7,193.8,75,193.9,75.4,193.9"/>
	</g>
	<g>
		<path class="st3" d="M77.9,197.9c0.1,0,0.3-0.1,0.4-0.1c3.2-1.9,10.3-5.2,11.7-2.8c0.3,0.5,0.9,0.6,1.4,0.3s0.6-0.9,0.3-1.4
			c-2.9-4.7-13.3,1.5-14.5,2.2c-0.5,0.3-0.6,0.9-0.3,1.4C77.1,197.8,77.5,197.9,77.9,197.9"/>
	</g>
	<g>
		<path class="st3" d="M89.8,201c0.2,0,0.3-0.1,0.4-0.2c0.4-0.3,0.6-0.9,0.2-1.4c-2.4-3.5-9.3,0-10.1,0.4c-0.5,0.3-0.7,0.9-0.4,1.3
			c0.3,0.5,0.9,0.7,1.3,0.4c2-1,6.4-2.6,7.5-1.1C89.1,200.9,89.5,201,89.8,201"/>
	</g>
	<g>
		<path class="st3" d="M68.2,193.4l1.2-1.6l-21.2-16.4c-1.6-1.4-3.1-3-3.7-3.9c0.6,0.1,2,0.4,4.7,1.5l24.1,14.6l1-1.7l-24.3-14.7
			c-4.7-1.9-6.7-2.2-7.5-0.9c-0.3,0.5-1.2,1.9,4.4,6.6L68.2,193.4z"/>
	</g>
</g>
<g id="tableta">
	<g>
		<path class="st9" d="M83.1,258.2l80.8-7.6c3.5-0.2,6.8-3.2,7.3-6.7l25.6-110.3c0.5-3.6-1.9-6.3-5.4-6.2l-78.1,3.1
			c-3.5,0.2-6.8,3.2-7.3,6.7L80.6,251.9C80.1,255.5,79.6,258.3,83.1,258.2"/>
	</g>
	<g>
		<path class="st3" d="M86.2,259.5c-4.7,0.4-8.2-3.4-7.2-8l0.2-0.9l0.8-3.4l3.1-13.8c5.8-25.8,15.9-72.4,22-98.2
			c1.5-3.9,5.5-6.4,9.7-6.2l1.8-0.1l28.1-1.2c11.6-0.5,35.3-1.6,46.6-2.2c4.7-0.4,8.4,3.8,7.6,8.4c0,0.1-12.7,55.2-12.7,55.3
			c0-0.2-12.8,55.9-12.7,55c-0.4,2.4-1.6,4.4-3.3,6c-1.7,1.5-4,2.4-6.2,2.5l-11.1,1C132.9,255.4,105.9,257.7,86.2,259.5 M86,256.8
			c19.7-2,46.7-4.9,66.3-7l11.1-1.1c1.4-0.1,2.8-0.6,3.9-1.5c1.1-1,1.9-2.3,2.1-3.7l12.8-55.1c-0.1,0.2,13.1-55.9,12.9-55
			c0.4-2.3-1.2-4.1-3.3-4c-0.1,0-0.2,0-0.4,0l-0.9,0c-11,0.4-34.6,1.2-45.7,1.6l-28.2,1l-1.8,0.1l-0.9,0c-2.7-0.1-5.2,1.8-6.2,4.3
			C102,161.9,92,208.5,86.4,234l-3,13.8c-0.2,0.7-0.9,4-1,4.6C82.1,254.6,83.8,256.9,86,256.8"/>
	</g>
	<g>
		<path class="st0" d="M184.2,194.1c0.2-0.9,1.2-1.3,1.9-0.9c1.8,0.9,4.2,2.8,3.4,5.4c0,0-0.3,3.1-4.4,3.6c0,0,3.4,4.6-1.6,6.1
			c0,0,0.4,2.1-1.3,4.3c0,0,5,2.2,1.9,6.5c0,0-7.6,3.9-14.3,1.3c0,0-2.7-2.7,5.2-4.1l3.2-0.4l0.6-2.2c0,0-14.5,0.6-14.4-3.8
			c0,0-0.4-1.5,1.8-2.4c0,0-2.9-3.7,4.2-5.5c0,0-5.9-2.5,1-4.5c0,0,8.1-1.2,12-0.4L184.2,194.1z"/>
	</g>
	<g>
		<path class="st3" d="M182.8,209.3c0.1,0,0.1,0,0.1,0c2.3-0.3,3.9-1.6,4.3-3.5c0.4-1.7-0.3-3.6-1.6-4.4l-0.9,1.6
			c0.4,0.3,0.9,1.3,0.7,2.4c-0.2,1.2-1.2,1.9-2.7,2.1c-0.7,0.1-8.4-0.6-13-1c-2.3-0.3-2.9-0.9-3-1c0.4-2.2,4.6-2.7,4.7-2.7l-0.2-1.8
			c-0.2,0-5.9,0.6-6.4,4.4c0,0.4,0,2.4,4.6,2.9C172.3,208.6,181.4,209.4,182.8,209.3"/>
	</g>
	<g>
		<path class="st3" d="M177.9,214.6c1.7-0.1,3.2-0.3,4-0.9c1.3-0.6,3.4-2.5,2.6-5.6l-1.8,0.4c0.6,2.4-1.4,3.5-1.6,3.6l-0.2,0.1
			c-1.1,0.9-6.6,0.6-10.1,0.2c-4.3-0.5-5.2-2.3-5.4-2.7c0.1-1.3,2.3-1.8,2.3-1.8l-0.4-1.8c-1.4,0.3-3.8,1.4-3.7,3.7v0.1l0,0.1
			c0,0.1,0.7,3.4,7,4.2C171.5,214.3,175,214.7,177.9,214.6"/>
	</g>
	<g>
		<path class="st3" d="M179.9,216.4c-3,0.5-6.2,0.9-8.9,2.3c-0.4,0.2-0.9,0.6-0.7,0.7c0.1,0.1,0.2,0.2,0.3,0.3l-0.2-0.1
			c0.7,0.3,1.7,0.5,2.5,0.7c2.7,0.4,5.5,0.2,8.2-0.4c0.9-0.2,1.6-0.5,2.2-1c1.1-1,1.3-2.9,0.5-4.1c-0.4-0.6-1-1-1.8-1.3
			c-0.5-0.1-0.8-0.7-0.6-1.1c0.1-0.5,0.7-0.8,1.1-0.6c3.6,0.9,4.9,6,2,8.5c-0.8,0.8-2,1.2-3,1.4c-3.4,0.8-7,1-10.4,0.2
			c-0.6-0.2-1.2-0.3-1.8-0.7c-0.6-0.6-1.1-1.6-0.6-2.4c0.5-0.8,1.1-1.1,1.6-1.4c3.1-1.3,6.3-1.5,9.5-1.8
			C180.4,215.3,180.5,216.3,179.9,216.4"/>
	</g>
	<g>
		<path class="st3" d="M181.1,203.7c3.3-0.1,7.3-0.8,8.6-3.2c0.1-0.1,1.5-2.9,0.2-5.3c-0.8-1.7-2.6-2.7-5.2-3.2
			c-0.5-0.1-1,0.2-1.1,0.7c-0.1,0.5,0.2,1,0.7,1.1c2,0.4,3.3,1.1,3.9,2.2c0.8,1.6-0.2,3.7-0.2,3.7c-1.1,2.2-7.7,2.4-11.5,2.1
			c-3.9-0.2-5.8-0.9-6.7-1.3c-0.2-0.1-0.2-0.3-0.2-0.3c0-0.1,0-0.2,0.1-0.3c3.9-3.4,14.4-1.8,14.5-1.8c0.5,0.1,1-0.3,1-0.8
			c0.1-0.5-0.3-1-0.8-1c-0.5-0.1-11.4-1.7-15.9,2.2c-0.5,0.5-0.8,1.2-0.7,1.9c0.1,0.7,0.5,1.4,1.2,1.7c1.5,0.8,4,1.3,7.4,1.5
			C176.8,203.6,178.8,203.8,181.1,203.7"/>
	</g>
</g>
<g id="cabeza">
	<g>
		<path class="st10" d="M120.5,93.8c0,0,19-7.9,11.9-35.8c0,0-6.7-24.7-31.8-26.2c0,0-22.2-9.9-42,10.6c0,0-35.5,39.7-6.7,78.8
			l8.5,7.3c0,0-9.9,5.8-0.4,19.5c0,0-5,3.7-2.1,9.7l-2.2,7.1c0,0,2.8,6.3,7.4,2.9l4.8-3.3l-4.8-4.7c0,0,3.1-5.2-1.5-11.2
			c0,0,6.9-1.4,5.4-10.5c0,0-0.1-6.5-4.1-9.2c0,0,12.6-3.2,14.1-16.7c0,0-0.4-13.5-2.9-16.4C74,95.8,104.8,109.5,120.5,93.8"/>
	</g>
	<g>
		<path class="st3" d="M131.3,50.3c-4.2-8.3-11.6-15.3-20.5-18.1c-3.4-1.1-7.1-1.4-10.6-1.3c0,0-0.2,0-0.4,0
			C82.1,25.2,63.1,33,52.3,47.7C42.2,61.4,38.2,82.2,40.5,98.9c1.6,11.9,8.2,23.3,18.5,29.8c1.1,0.7,2.2-0.9,1.1-1.7
			c-4.6-3.3-8.6-7.6-11.4-12.5c-8.6-15.1-6.6-33.9-1.7-50c6.8-22.3,28.3-38.9,52-31.9l0.2,0.1l0.1,0l0.5,0.1
			c16.2-1.3,29.1,13.6,31.6,28.6c2.5,11.6,0.1,25.5-11.3,31.3c-0.5,0.2-0.8,0.8-0.6,1.3c0.2,0.5,0.8,0.8,1.3,0.6
			c1.9-0.7,3.4-1.7,5-2.9c4.5-3.5,7.6-8.7,8.9-14.2C136.7,68.5,135.3,58.7,131.3,50.3z"/>
	</g>
	<g>
		<path class="st3" d="M74.7,95.6c5.7,12,3.3,30.4-11.2,34.1c-1.2,0.3-1.8-1.3-0.7-1.9c11.9-5.8,13.4-18.4,11.7-30.3l-0.1-0.3
			c0-0.1-0.4-1.3-0.4-1.3c-0.3-0.3,0.6,0.3,0.9,0.7"/>
	</g>
	<g>
		<path class="st0" d="M119.2,63.9c0,0-6.7-26.8-36.9-14.3c0,0-16,6.6-18.4,23.6c0,0-0.4,9,4.1,14.7l5.5,6.8c0,0,5.3,4.4,10.5,7.5
			c5.3,3.2,10.5,6.7,10.5,6.7s18.6,3.5,25.5-19.9C120,89.1,122.6,73,119.2,63.9"/>
	</g>
	<g>
		<path class="st3" d="M118.7,61c4.4,10.9,5.2,23.9,0,34.7c-4.1,9.4-15.3,17.5-25.7,13.7c-3.1-1.1-5.7-3.2-7.7-5.7
			c-0.2-0.2-0.2-0.6,0.1-0.8c0.2-0.2,0.5-0.2,0.7,0c2.3,2,4.8,3.8,7.6,4.6c8.7,2.6,17.6-3.4,21.9-10.9c3-5.2,4.6-11.2,4.8-17.2
			c0.2-6.1-0.6-12.2-2.5-18.1C117.7,60.9,118.5,60.5,118.7,61"/>
	</g>
	<g>
		<path class="st3" d="M96.9,76.6c0,3.4-3.9,5.3-6.3,3c-0.6-0.6-1-1.5-1-2.3c0-0.2,0.2-0.4,0.4-0.4c0.1,0,0.2,0,0.3,0.1
			c0.7,0.9,1.7,1.7,2.9,1.5c1.2-0.1,1.9-1.3,2.4-2.3C95.9,75.6,97,75.9,96.9,76.6"/>
	</g>
	<g>
		<path class="st3" d="M117.1,75.7c-0.1,3.4-3.9,5.3-6.3,3.1c-0.5-0.4-1.7-2.6-0.7-2.8c0.2,0,0.3,0,0.4,0.2c0.7,0.9,1.7,1.8,2.8,1.6
			c1.3-0.1,1.9-1.3,2.4-2.3C116,74.7,117.1,75,117.1,75.7"/>
	</g>
	<g>
		<path class="st3" d="M105.6,74.3c0.3,3.2,0.5,6.8,2.9,9.1l-0.2-0.1c1.1,0.8,1.8,1.8,1.9,3.2c0.2,4.3-5.8,5.8-7.1,1.6
			c-0.1-0.3,0.3-0.5,0.5-0.3c0.7,0.6,1.4,0.9,2,0.9c1.1,0,2.1-1,2.1-2c0-0.5-0.5-1-0.9-1.3c-1.6-1.6-2.4-3.4-2.7-5.5
			c-0.2-1.9-0.1-3.8,0.2-5.6c0.1-0.4,0.4-0.6,0.8-0.5C105.3,73.8,105.6,74,105.6,74.3"/>
	</g>
	<g>
		<path class="st11" d="M93,66c1,2.5-2.3,2.4-3.8,3.3c-1.1,0.7-4.8,5.5-4,1.8C85.8,68.5,92,63.5,93,66"/>
	</g>
	<g>
		<path class="st12" d="M116.3,64.5c0.3,0.3,1.1,0.8,1.1,0.9c1.6,3.2-3.1,0.7-4.2,0.3c-1.5-0.5-4.2,0.5-3.6-2.2
			C110.1,61.3,115.1,63.5,116.3,64.5"/>
	</g>
	<g>
		<path class="st0" d="M65.9,75.2c0,0-5.7-7.7-10.8-2.8c0,0-6.2,8.5,2.6,15.2c0,0,3.4,4.5,9.7-0.4l5.4,7.2l3.5-17L65.9,75.2z"/>
	</g>
	<g>
		<path class="st3" d="M75.8,97.4c-3.4-2.4-6.4-5.5-8.7-9c-0.1-0.1-0.2-0.3-0.2-0.3c0,0,0,0,0,0l0,0l0,0l-0.1,0.1
			c-2.7,1.9-6.6,2.5-9.4,0.5c-5.1-3.6-8-11.9-3.4-17c3.5-3.7,9.9-1.8,11.3,2.8c0.2,0.6-0.7,0.9-0.9,0.4c-1.6-3.2-6.3-4.5-8.7-1.7
			c-3.3,4.1-0.7,10.5,3.1,13.4c2.2,1.7,5.1,0.9,7.3-0.6c1.1-0.5,2.3,0.1,2.8,1.1c2,3.4,4.7,6.5,7.5,9.3C76.9,97,76.3,97.8,75.8,97.4
			"/>
	</g>
	<g>
		<path class="st10" d="M122.2,67.1c0,0-9.3,0.4-9.9-10.7l-0.5-1.3c0,0-6.9,4.9-11.8-2.2c0,0-12.3-4.6-16.2,8.3
			c0,0-0.2,15.3-18.7,20.9l-1.8-1.5c0,0,1.5-6.5,1.2-12.8c0,0-1.6-16.8,14.8-21.2c0,0,23.9-9.9,37.8,5.5
			C117.1,52.2,123.6,59,122.2,67.1"/>
	</g>
	<g>
		<path class="st3" d="M123.4,67.7c-7.6,2.3-12.5-5.9-12.3-12.5c0-0.9,0.1-1.8,0.2-2.7c0-0.3,0.3-0.5,0.6-0.5c0.2,0,0.4,0.2,0.4,0.4
			c0.3,0.9,0.5,1.7,0.7,2.5c1.1,3.7,2.5,7.7,5.9,9.9c1.2,0.8,2.8,1.4,4.4,1.7C124,66.6,124,67.5,123.4,67.7"/>
	</g>
	<g>
		<path class="st3" d="M112.4,55.8c-5,3.8-11.7,2.4-13.6-3.9c-0.1-0.8-1.1-2.7,0.1-3c0.3,0,0.6,0.1,0.7,0.3c0.4,0.6,0.7,1.3,1,1.9
			c0.7,1.2,1.5,2.4,2.6,3.3c2.4,1.8,5.8,1.2,8.4,0.1C112.4,54.1,113.1,55.2,112.4,55.8"/>
	</g>
	<g>
		<path class="st3" d="M99.9,53.6c-5.4-1.8-11.6-0.4-13.9,5.1c-0.8,1.7-1.1,3.6-1.7,5.5c-2.5,8.7-8.5,17.9-18,19.5
			c-0.5,0.1-1.8,0.4-2.3,0.3c-2-0.2-3.1-2.7-1.9-4.3c2.6-4.8,0.5-10.4,1.8-15.5C65.2,56,70.7,49,78.6,46.3c0.2-0.1,0.5,0,0.6,0.3
			c0.1,0.2,0,0.5-0.2,0.5c-9.3,3.8-13.8,13.3-12.9,23c0.5,3.7,0.8,8.1-1.2,11.5c0.1-0.2,0.2-0.4,0.1-0.6c-0.1-0.2-0.4-0.5-0.7-0.4
			l0.1,0c5-0.4,9.4-3.2,12.5-7.2c2.9-3.6,4.9-8.2,6.2-12.7c0.2-0.9,0.7-2.1,1.1-2.9c2.9-6.3,10.1-7.8,16.2-5.5
			C101.2,52.7,100.7,53.9,99.9,53.6"/>
	</g>
	<g>
		<path class="st3" d="M61.9,149.4c-3.6,0-6.7-4.4-7.2-10.4l0,0c-0.5-6.1,2-11.2,5.7-11.5c3.7-0.3,7.1,4.2,7.6,10.4
			c0.5,6.1-2,11.2-5.7,11.5C62.1,149.4,62,149.4,61.9,149.4z M56.7,138.9c0.4,4.9,2.9,8.8,5.4,8.5c2.5-0.2,4.3-4.5,3.9-9.3
			c-0.4-4.9-2.9-8.8-5.5-8.5C58,129.8,56.2,134.1,56.7,138.9L56.7,138.9z"/>
	</g>
	<g>
		<path class="st3" d="M60.9,160.9c-1.2,0-2.4-0.6-3.3-1.8c-0.9-1.1-1.5-2.7-1.6-4.4c-0.2-1.7,0.2-3.3,0.8-4.6
			c0.8-1.4,1.9-2.3,3.2-2.4c2.6-0.2,4.9,2.5,5.2,6.2s-1.5,6.8-4,7C61.1,160.9,61,160.9,60.9,160.9z M60.3,149.6c0,0-0.1,0-0.1,0
			c-0.8,0.1-1.4,0.9-1.6,1.3c-0.5,0.9-0.7,2.2-0.6,3.5c0.1,1.3,0.5,2.5,1.2,3.4c0.3,0.4,1,1.1,1.8,1c1.4-0.1,2.4-2.4,2.2-4.9
			C63,151.6,61.7,149.6,60.3,149.6z"/>
	</g>
	<g>
		<path class="st3" d="M59.9,169.8c-0.4,0-0.8,0-1.2-0.1c-1.8-0.5-3.1-2-4-4.5l-0.1-0.3l1.6-6.8c0.1-0.5,0.7-0.9,1.2-0.7
			c0.5,0.1,0.9,0.7,0.7,1.2l-1.5,6.2c0.6,1.7,1.5,2.7,2.5,3c1.8,0.5,3.8-1.3,3.8-1.3c1.1-1.1,2.1-1.8,2.9-2.2
			c-2.8-2.3-3.7-3.9-3.8-4c-0.2-0.5,0-1.1,0.5-1.3c0.5-0.2,1.1-0.1,1.3,0.4c0,0,1,1.8,4.5,4.4l1.7,1.2l-2,0.5c0,0-1.7,0.5-3.7,2.5
			C64.4,168,62.3,169.8,59.9,169.8z"/>
	</g>
</g>
<g id="globo1">
	<g>
		<path class="st2" d="M167.7,1.6c19.6,0,35.5,11.1,35.5,24.6s-16,24.5-35.6,24.5c-4.1,0-8.1-0.5-11.9-1.4c-0.3-0.1-0.6-0.1-0.9,0.1
			c-2.9,1.6-6.3,3.9-10.6,7.1c1.1-3.6,1.8-6.8,2.1-9.9c0.1-0.5-0.2-1-0.6-1.2c-8.6-4.7-13.6-11.7-13.6-19.3
			C132.1,12.6,148.1,1.6,167.7,1.6L167.7,1.6z"/>
		<path class="st3" d="M144.2,58c-0.3,0-0.6-0.1-0.8-0.3c-0.6-0.4-0.8-1.1-0.6-1.7c1.1-3.4,1.7-6.5,2-9.4c-9-5-14.2-12.4-14.2-20.5
			c0-14.3,16.7-26,37.1-26s37.1,11.7,37.1,26s-16.6,26-37.1,26c-4.2,0-8.3-0.5-12.2-1.4c-2.8,1.6-6.2,3.9-10.4,7
			C144.8,57.9,144.5,58,144.2,58L144.2,58z M155.4,47.7c0.2,0,0.5,0,0.7,0c3.7,0.9,7.6,1.4,11.6,1.4c18.8,0,34.1-10.3,34.1-23
			S186.4,3.2,167.6,3.2s-34.1,10.3-34.1,23c0,7,4.6,13.6,12.8,18c1,0.5,1.5,1.5,1.4,2.6c-0.2,2-0.5,4-1,6.1c2.8-2,5.2-3.6,7.3-4.8
			C154.5,47.8,154.9,47.7,155.4,47.7L155.4,47.7z"/>
	</g>
	<circle class="st3" cx="182.1" cy="26.3" r="4.5"/>
	<circle class="st3" cx="167.7" cy="26.3" r="4.5"/>
	<circle class="st3" cx="153.2" cy="26.3" r="4.5"/>
</g>
<g id="boca2">
	<ellipse transform="matrix(0.6406 -0.7679 0.7679 0.6406 -38.3497 107.8346)" class="st3" cx="96" cy="94.9" rx="5.9" ry="2.7"/>
</g>
<g id="boca1">
	<g>
		<path class="st3" d="M94.8,91.3c0.3,1.6,1.2,3.4,2.7,4.1c0.5,0.3,1.1,0.3,1.7,0.4c1.5,0.2,1.2,2.4-0.3,2.2
			c-2.4-0.3-4.5-2.2-5.2-4.5c-0.2-0.8-1-2.8,0.3-3C94.4,90.5,94.8,90.9,94.8,91.3"/>
	</g>
</g>
</svg>
